{"glyphs":{"0":{"ha":832,"x_min":51,"x_max":775,"o":"m 76 697 q 147 860 100 790 q 261 970 194 929 q 414 1011 328 1011 q 567 971 500 1011 q 681 860 635 931 q 751 697 726 790 q 775 497 775 603 q 751 294 775 388 q 680 131 726 200 q 566 23 633 63 q 414 -17 499 -17 q 254 25 322 -17 q 141 138 186 67 q 74 301 96 208 q 51 497 51 394 q 76 697 51 603 m 133 497 q 150 322 133 406 q 201 176 167 239 q 288 76 235 113 q 414 39 340 39 q 545 82 492 39 q 632 192 599 125 q 680 340 665 258 q 694 497 694 421 q 688 599 694 546 q 668 702 682 651 q 633 799 654 753 q 580 879 611 844 q 508 934 549 914 q 414 954 467 954 q 285 915 339 954 q 198 811 232 875 q 149 665 164 747 q 133 497 133 582 z "},"1":{"ha":832,"x_min":239,"x_max":649,"o":"m 247 42 l 403 67 l 403 917 l 265 917 q 256 924 256 917 l 256 947 q 264 954 256 954 l 444 985 l 475 985 q 485 979 485 985 l 485 67 l 640 42 q 649 36 649 42 l 649 6 q 639 0 649 0 l 249 0 q 239 6 239 0 l 239 36 q 247 42 239 42 z "},"2":{"ha":832,"x_min":53,"x_max":772,"o":"m 53 6 q 99 121 58 60 q 197 244 140 182 q 319 362 254 306 q 436 461 383 418 q 503 519 465 485 q 574 594 540 554 q 630 675 607 633 q 653 757 653 717 q 585 901 653 847 q 408 954 518 954 q 331 938 371 954 q 255 895 290 922 q 192 831 219 868 q 150 753 164 794 q 134 717 146 732 q 101 701 122 701 q 78 718 83 701 q 72 756 72 735 q 96 840 72 794 q 163 923 119 885 q 269 986 207 961 q 408 1011 332 1011 q 642 942 557 1011 q 726 753 726 872 q 692 639 726 696 q 610 532 657 582 q 515 444 563 482 q 442 385 467 406 q 372 325 415 364 q 285 242 329 286 q 205 153 242 199 q 154 75 168 108 l 661 75 l 721 232 q 726 238 722 238 q 731 236 729 238 l 767 224 q 772 217 772 221 l 744 4 q 736 0 744 0 l 63 0 q 53 6 53 0 z "},"3":{"ha":832,"x_min":96,"x_max":800,"o":"m 99 233 q 119 250 104 249 q 126 250 124 250 q 156 235 146 250 q 171 206 165 221 l 178 192 l 175 193 q 292 76 225 110 q 435 43 360 43 q 549 59 497 43 q 639 104 601 75 q 698 176 676 133 q 719 271 719 218 q 707 350 719 307 q 649 429 694 393 q 605 456 640 436 q 514 489 569 476 q 445 499 485 494 q 354 503 406 503 q 346 508 346 503 l 346 558 q 354 564 346 564 q 467 578 410 564 q 572 618 525 592 q 647 682 618 644 q 676 767 676 719 q 656 862 676 825 q 602 919 636 899 q 524 947 568 940 q 433 954 481 954 q 364 947 397 954 q 301 922 331 939 q 247 875 271 904 q 206 804 222 846 l 199 786 l 200 788 q 187 758 193 769 q 157 747 181 747 q 135 763 142 747 q 129 793 129 778 q 129 800 129 797 q 154 870 132 833 q 216 938 176 907 q 311 990 256 969 q 436 1011 367 1011 q 585 992 524 1011 q 684 939 646 972 q 740 860 722 906 q 757 764 757 815 q 740 688 757 724 q 692 624 722 653 q 619 574 661 594 q 526 540 576 553 q 618 517 569 535 q 707 468 667 500 q 774 389 747 436 q 800 276 800 342 q 769 145 800 201 q 687 53 738 89 q 569 -1 636 17 q 432 -19 503 -19 q 284 6 346 -19 q 182 65 222 31 q 122 135 142 100 q 99 189 101 169 q 96 214 96 203 q 99 233 96 225 z "},"4":{"ha":832,"x_min":64,"x_max":808,"o":"m 64 308 l 64 340 l 553 1000 q 560 1004 557 1004 l 639 1004 q 649 997 649 1004 l 649 358 l 800 358 q 808 353 808 358 l 808 308 q 800 303 808 303 l 649 303 l 649 65 l 775 42 q 783 36 783 42 l 783 6 q 774 0 783 0 l 442 0 q 433 6 433 0 l 433 36 q 440 42 433 42 l 568 65 l 568 303 l 72 303 q 64 308 64 303 m 568 358 l 567 914 l 154 358 l 568 358 z "},"5":{"ha":832,"x_min":69,"x_max":771,"o":"m 78 272 q 104 286 86 286 q 132 272 124 286 q 147 239 140 258 q 149 231 147 236 q 151 221 150 225 l 154 210 q 186 147 167 178 q 235 92 206 117 q 307 53 264 68 q 411 39 350 39 q 532 59 479 39 q 619 116 585 79 q 672 203 654 153 q 690 313 690 253 q 617 501 690 435 q 408 567 543 567 q 281 529 353 567 q 217 492 244 513 q 168 453 190 472 q 164 451 165 451 q 157 453 160 451 l 133 467 q 129 471 129 468 l 165 961 q 174 967 165 967 l 657 967 l 703 1042 q 708 1046 704 1046 q 713 1044 710 1046 l 746 1031 q 753 1026 753 1028 l 739 899 q 729 893 739 893 l 225 893 l 211 728 q 203 647 207 689 q 197 546 200 606 q 408 625 308 619 q 436 625 422 625 q 569 605 507 625 q 677 542 631 585 q 747 441 724 500 q 771 313 771 382 q 744 178 771 239 q 671 74 718 117 q 558 7 624 31 q 411 -17 492 -17 q 255 11 319 -17 q 149 78 190 39 q 88 162 107 118 q 69 236 69 206 q 78 272 69 258 z "},"6":{"ha":832,"x_min":64,"x_max":763,"o":"m 86 656 q 155 838 107 758 q 280 965 203 918 q 468 1013 357 1013 q 568 994 524 1013 q 645 951 613 976 q 697 895 678 925 q 724 842 717 865 q 725 832 724 836 q 717 808 724 817 q 697 799 710 799 q 667 808 678 799 q 650 829 656 818 q 576 918 621 881 q 450 956 531 956 q 317 917 374 956 q 224 814 261 878 q 167 669 186 750 q 147 504 149 588 q 273 596 196 557 q 449 635 350 635 q 581 611 522 635 q 679 544 639 588 q 741 442 719 501 q 763 310 763 382 q 742 187 763 246 q 681 83 722 128 q 575 12 639 39 q 424 -15 511 -15 q 267 19 335 -15 q 155 115 200 54 q 87 260 110 176 q 64 439 64 343 q 86 656 64 551 m 171 251 q 224 147 189 194 q 308 68 258 99 q 424 38 358 38 q 522 55 475 38 q 604 106 568 72 q 662 192 640 140 q 683 310 683 243 q 660 444 683 392 q 601 525 636 496 q 525 565 565 554 q 450 576 485 576 q 336 558 390 576 q 242 510 282 540 q 177 442 201 481 q 153 360 153 403 q 171 251 153 307 z "},"7":{"ha":832,"x_min":67,"x_max":758,"o":"m 94 985 q 103 990 94 990 l 354 990 l 750 989 q 758 982 758 989 l 758 913 q 708 834 736 882 q 650 729 681 786 q 588 611 619 672 q 529 492 557 550 q 475 349 501 426 q 428 203 449 272 q 396 79 408 133 q 383 6 383 25 q 375 0 383 0 l 299 0 q 289 6 289 0 q 306 90 289 32 q 347 220 322 149 q 401 367 372 292 q 456 500 431 442 q 503 599 476 546 q 560 706 531 653 q 618 808 589 758 q 671 897 647 858 q 677 906 675 904 q 683 914 679 908 l 178 914 l 119 758 q 113 753 118 753 q 107 754 110 753 l 72 767 q 67 775 67 772 l 94 985 z "},"8":{"ha":832,"x_min":36,"x_max":792,"o":"m 58 332 q 115 405 79 371 q 197 467 151 439 q 293 513 243 494 q 224 543 261 525 q 155 590 186 561 q 103 664 124 619 q 82 772 82 708 q 98 842 82 801 q 151 922 114 883 q 252 986 189 960 q 410 1013 315 1013 q 541 997 482 1013 q 642 952 600 982 q 708 878 685 922 q 731 778 731 835 q 708 688 731 728 q 653 618 686 649 q 583 565 621 588 q 514 529 546 543 q 615 482 565 508 q 704 422 665 456 q 767 345 743 388 q 792 251 792 303 q 759 128 792 179 q 674 45 726 78 q 551 -2 621 13 q 410 -17 482 -17 q 272 -1 339 -17 q 152 48 204 15 q 68 131 100 81 q 36 251 36 182 q 58 332 36 293 m 118 251 q 142 169 118 208 q 205 101 165 131 q 297 55 244 72 q 410 38 350 38 q 524 52 469 38 q 619 94 578 67 q 685 162 661 122 q 710 251 710 201 q 683 320 710 289 q 613 378 656 351 q 519 426 571 404 q 417 467 467 447 l 375 483 q 292 448 338 471 q 209 395 247 425 q 144 328 171 365 q 118 251 118 292 m 189 704 q 251 644 213 671 q 338 596 290 617 q 432 558 386 575 q 594 656 536 600 q 651 778 651 713 q 638 844 651 813 q 594 901 624 876 q 519 941 565 926 q 410 956 474 956 q 224 904 285 956 q 164 778 164 853 q 189 704 164 738 z "},"9":{"ha":832,"x_min":64,"x_max":763,"o":"m 85 810 q 146 913 104 868 q 251 985 188 958 q 403 1013 315 1013 q 559 978 492 1013 q 672 881 626 943 q 740 737 717 819 q 763 558 763 654 q 741 342 763 446 q 672 158 719 238 q 547 32 624 79 q 360 -15 469 -15 q 260 2 304 -15 q 183 46 215 19 q 130 101 150 72 q 104 154 110 131 q 103 167 103 161 q 110 190 103 181 q 131 199 118 199 q 160 188 150 199 q 178 167 171 178 q 209 119 192 142 q 251 78 226 96 q 306 51 275 61 q 378 40 336 40 q 510 79 454 40 q 604 182 567 118 q 660 327 642 246 q 682 492 679 408 q 554 400 632 439 q 381 361 476 361 q 247 385 306 361 q 148 451 189 408 q 85 554 107 494 q 64 686 64 614 q 85 810 64 750 m 169 553 q 226 471 192 500 q 302 431 261 442 q 378 419 343 419 q 491 438 438 419 q 585 485 544 456 q 649 554 625 515 q 674 636 674 593 q 656 746 674 689 q 603 850 638 803 q 519 928 569 897 q 403 958 468 958 q 305 941 351 958 q 223 890 258 924 q 167 804 188 856 q 146 686 146 753 q 169 553 146 604 z "},"Ҭ":{"ha":722,"x_min":92,"x_max":633,"o":"m 92 33 l 92 1189 l 633 1189 l 633 33 l 92 33 m 181 125 l 542 125 l 542 1100 l 181 1100 l 181 125 z "},"\u0000":{"ha":722,"x_min":0,"x_max":0,"o":""},"\r":{"ha":347,"x_min":0,"x_max":0,"o":""}," ":{"ha":417,"x_min":0,"x_max":0,"o":""},"!":{"ha":449,"x_min":140,"x_max":304,"o":"m 165 1006 q 172 1011 165 1011 l 269 1011 q 279 1006 279 1011 l 254 361 q 246 356 254 356 l 199 356 q 189 361 189 356 l 165 1006 m 164 136 q 222 158 186 158 q 281 135 257 158 q 304 81 304 113 q 281 23 304 46 q 222 0 257 0 q 163 23 186 0 q 140 81 140 46 q 164 136 140 113 z "},"\"":{"ha":451,"x_min":46,"x_max":403,"o":"m 54 1011 l 157 1011 q 167 1006 167 1011 l 136 729 q 128 724 136 724 l 83 724 q 74 729 74 724 l 46 1006 q 54 1011 46 1011 m 283 1006 q 290 1011 283 1011 l 394 1011 q 403 1006 403 1011 l 374 729 q 365 724 374 724 l 321 724 q 313 729 313 724 l 283 1006 z "},"#":{"ha":974,"x_min":117,"x_max":849,"o":"m 117 354 q 125 360 117 360 l 269 360 l 308 644 l 154 644 q 146 651 146 644 l 146 694 q 154 701 146 701 l 319 701 l 358 978 q 368 982 358 982 l 431 982 q 439 978 439 982 q 439 975 439 976 l 401 701 l 625 701 l 663 978 q 672 982 663 982 l 736 982 q 744 978 744 982 q 744 975 744 976 l 706 701 l 840 701 q 849 694 849 701 l 849 651 q 840 644 849 644 l 696 644 q 676 502 686 571 q 654 360 665 433 l 811 360 q 821 354 821 360 l 821 310 q 811 304 821 304 l 646 304 l 606 4 q 596 0 606 0 l 533 0 q 527 2 529 0 q 525 6 525 4 q 525 7 525 6 l 565 304 l 342 304 l 300 4 q 292 0 300 0 l 229 0 q 218 4 218 0 q 219 7 218 6 l 260 304 l 125 304 q 117 310 117 304 l 117 354 m 350 360 l 574 360 l 615 644 l 392 644 l 350 360 z "},"$":{"ha":753,"x_min":39,"x_max":710,"o":"m 46 235 l 78 247 q 81 247 79 247 q 85 246 82 247 q 89 242 88 244 q 127 156 108 193 q 169 101 146 119 q 240 69 193 82 q 333 51 288 57 l 333 528 l 299 542 q 250 563 276 550 q 197 591 224 575 q 147 626 171 607 q 107 664 124 644 q 61 799 61 724 q 134 961 61 899 q 333 1032 207 1024 l 333 1150 q 342 1157 333 1157 l 393 1157 q 403 1150 403 1157 l 403 1032 q 472 1022 438 1029 q 535 1006 507 1014 q 582 990 563 997 q 607 979 601 982 q 613 975 613 979 l 657 819 q 657 818 657 818 q 651 811 657 814 l 624 799 q 613 803 617 799 l 604 817 q 587 851 597 832 q 564 888 576 869 q 537 922 551 906 q 506 946 522 938 l 506 944 q 454 966 482 958 q 403 976 426 974 l 403 567 q 459 542 429 556 q 517 516 489 529 q 569 490 546 503 q 607 464 592 476 q 683 366 656 424 q 710 244 710 308 q 687 145 710 190 q 623 67 664 100 q 526 13 582 33 q 403 -10 469 -7 l 403 -160 q 393 -165 403 -165 l 342 -165 q 333 -160 333 -165 l 333 -8 q 254 1 292 -6 q 184 16 217 8 q 127 33 151 24 q 89 49 103 42 q 85 53 85 49 l 39 226 q 39 228 39 228 q 46 235 39 232 m 503 68 q 576 112 546 85 q 624 174 607 139 q 640 247 640 208 q 617 348 640 308 q 560 419 593 388 q 494 458 536 438 q 403 500 451 479 l 403 49 q 503 68 458 50 m 132 794 q 151 724 132 754 q 199 670 169 693 q 263 630 228 647 q 332 597 299 613 l 333 596 l 333 978 q 260 965 296 975 q 195 934 224 956 q 149 878 167 913 q 132 794 132 844 z "},"%":{"ha":1176,"x_min":44,"x_max":1125,"o":"m 697 253 q 709 342 697 294 q 747 428 721 389 q 813 494 772 468 q 911 521 854 521 q 999 499 960 521 q 1067 440 1039 476 q 1110 354 1094 403 q 1125 253 1125 306 q 1113 165 1125 213 q 1076 78 1101 118 q 1010 10 1050 38 q 911 -17 969 -17 q 812 11 853 -17 q 746 80 771 39 q 709 167 721 121 q 697 253 697 214 m 44 758 q 56 847 44 800 q 93 934 68 894 q 158 1000 118 974 q 256 1026 199 1026 q 345 1004 306 1026 q 413 945 385 982 q 455 860 440 908 q 469 758 469 811 q 458 671 469 718 q 421 583 446 624 q 355 515 396 542 q 256 488 314 488 q 157 515 197 488 q 92 584 117 543 q 56 672 67 625 q 44 758 44 719 m 779 253 q 786 185 779 222 q 808 117 793 149 q 849 63 824 85 q 911 42 874 42 q 974 64 949 42 q 1015 119 999 86 q 1037 188 1031 151 q 1043 253 1043 225 q 1036 320 1043 283 q 1013 388 1029 357 q 972 439 997 418 q 911 460 947 460 q 848 438 874 460 q 807 383 822 415 q 785 315 792 350 q 779 253 779 279 m 124 758 q 131 691 124 728 q 153 622 138 654 q 194 569 168 590 q 256 547 219 547 q 319 570 293 547 q 360 626 344 593 q 382 694 375 658 q 389 758 389 731 q 381 825 389 789 q 358 892 374 861 q 317 944 342 924 q 256 965 292 965 q 193 942 218 965 q 152 888 168 919 q 130 820 136 856 q 124 758 124 785 m 271 8 l 825 1008 q 832 1011 828 1011 l 889 1011 q 897 1006 897 1011 q 896 1001 897 1004 l 349 3 q 340 0 346 0 l 279 0 q 269 4 269 0 q 271 8 269 6 z "},"&":{"ha":1044,"x_min":72,"x_max":983,"o":"m 72 261 q 92 359 72 314 q 144 442 113 404 q 212 508 175 479 q 283 558 249 538 q 242 606 265 576 q 199 670 219 635 q 163 744 178 706 q 149 822 149 783 q 162 889 149 853 q 203 956 175 925 q 277 1007 232 986 q 386 1028 322 1028 q 489 1010 444 1028 q 563 965 533 993 q 608 901 593 938 q 624 826 624 865 q 600 735 624 778 q 541 657 576 692 q 465 596 506 622 q 392 553 425 569 l 688 232 q 711 291 700 256 q 732 367 722 326 q 749 451 742 408 q 760 535 757 494 l 639 558 q 632 564 632 558 l 632 594 q 640 601 632 601 l 946 601 q 956 594 956 601 l 956 564 q 947 558 956 558 l 825 535 q 813 447 821 494 q 792 352 804 400 q 766 260 781 304 q 733 183 751 217 l 832 69 l 976 39 q 983 33 983 39 l 983 6 q 975 0 983 0 l 790 0 q 783 1 785 0 l 685 118 q 551 20 629 57 q 365 -17 474 -17 q 245 6 299 -17 q 153 67 192 29 q 93 156 114 106 q 72 261 72 207 m 153 261 q 168 186 153 225 q 213 115 183 147 q 283 60 242 82 q 375 39 324 39 q 456 50 417 39 q 530 78 496 61 q 593 119 564 96 q 644 167 622 142 l 322 517 q 198 405 243 469 q 153 261 153 340 m 243 760 q 274 696 256 726 q 314 639 293 665 q 351 594 335 613 q 410 632 376 608 q 473 686 443 656 q 523 752 503 717 q 543 826 543 788 q 533 878 543 853 q 502 925 522 904 q 453 958 482 946 q 386 971 424 971 q 324 959 353 971 q 275 927 296 947 q 242 880 254 907 q 229 822 229 853 q 243 760 229 792 z "},"'":{"ha":353,"x_min":115,"x_max":236,"o":"m 115 1006 q 124 1011 115 1011 l 226 1011 q 236 1006 236 1011 l 206 729 q 197 724 206 724 l 153 724 q 146 729 146 724 l 115 1006 z "},"(":{"ha":472,"x_min":139,"x_max":418,"o":"m 146 486 q 178 647 153 558 q 251 835 203 736 q 381 1031 299 935 q 389 1032 382 1032 l 410 1026 q 418 1021 418 1025 q 417 1017 418 1019 q 358 911 392 972 q 295 770 325 850 q 245 591 265 690 q 225 371 225 492 q 245 149 225 250 q 295 -33 265 49 q 358 -176 325 -114 q 417 -282 392 -237 q 418 -285 418 -283 q 411 -290 418 -289 l 389 -299 q 381 -297 382 -299 q 251 -100 299 -200 q 178 91 203 0 q 146 255 153 182 q 139 371 139 328 q 146 486 139 414 z "},")":{"ha":485,"x_min":51,"x_max":331,"o":"m 53 -282 q 111 -176 78 -237 q 174 -33 144 -114 q 223 149 203 49 q 243 371 243 250 q 223 591 243 492 q 174 770 203 690 q 111 911 144 850 q 53 1017 78 972 q 51 1021 51 1019 q 60 1026 51 1025 l 81 1032 q 89 1031 88 1032 q 219 835 171 935 q 292 647 267 736 q 324 486 317 558 q 331 371 331 414 q 324 255 331 328 q 292 91 317 182 q 219 -100 267 0 q 89 -297 171 -200 q 85 -299 88 -299 l 79 -299 l 60 -290 q 51 -285 51 -289 q 53 -282 51 -283 z "},"*":{"ha":667,"x_min":46,"x_max":618,"o":"m 47 788 l 82 860 q 88 863 83 863 q 94 861 90 863 l 314 732 l 285 1006 q 293 1011 285 1011 l 372 1011 q 382 1006 382 1011 l 353 736 l 569 861 q 575 863 572 863 q 582 860 579 863 l 617 788 q 618 783 617 786 q 611 778 617 779 l 365 696 l 585 486 q 588 482 588 485 q 583 476 588 479 l 521 429 q 515 428 518 428 q 508 431 511 428 l 333 678 q 244 554 288 615 q 156 431 201 493 q 150 428 153 428 q 144 429 147 428 l 82 476 q 78 482 78 479 q 81 486 78 485 l 299 696 q 175 737 238 715 q 51 778 113 758 q 46 783 46 779 q 47 788 46 786 z "},"+":{"ha":882,"x_min":99,"x_max":778,"o":"m 99 507 l 99 564 q 107 569 99 569 l 397 569 l 397 863 q 406 869 397 869 l 469 869 q 478 863 478 869 l 478 569 l 769 569 q 778 564 778 569 l 778 507 q 769 501 778 501 l 478 501 l 478 208 q 469 203 478 203 l 406 203 q 397 208 397 203 l 397 501 l 107 501 q 99 507 99 501 z "},",":{"ha":529,"x_min":142,"x_max":310,"o":"m 142 83 q 163 135 142 113 q 225 158 185 158 q 289 131 268 158 q 310 68 310 103 q 294 -4 310 31 q 259 -67 279 -39 q 217 -117 239 -96 q 183 -147 196 -137 q 178 -149 181 -149 q 176 -150 176 -150 q 171 -147 174 -150 l 149 -121 q 147 -118 147 -119 q 149 -114 147 -115 q 197 -61 175 -87 q 219 -10 219 -35 q 214 6 219 6 q 174 22 189 11 q 152 44 160 32 q 143 67 144 56 q 142 83 142 78 z "},"-":{"ha":757,"x_min":79,"x_max":672,"o":"m 79 494 l 79 564 q 88 569 79 569 l 663 569 q 672 564 672 569 l 672 494 q 663 489 672 489 l 88 489 q 79 494 79 489 z "},".":{"ha":447,"x_min":135,"x_max":299,"o":"m 135 81 q 158 135 135 113 q 217 158 181 158 q 275 135 251 158 q 299 81 299 113 q 275 23 299 46 q 217 0 251 0 q 158 23 181 0 q 135 81 135 46 z "},"/":{"ha":415,"x_min":-8,"x_max":419,"o":"m -7 -290 l 346 1007 q 354 1011 347 1011 l 410 1011 q 419 1007 419 1011 q 419 1004 419 1006 l 67 -294 q 57 -299 64 -299 l 1 -299 q -6 -297 -3 -299 q -8 -293 -8 -296 q -7 -290 -8 -292 z "},":":{"ha":454,"x_min":144,"x_max":307,"o":"m 144 556 q 167 611 144 588 q 225 635 190 635 q 283 611 260 635 q 307 556 307 588 q 283 498 307 521 q 225 475 260 475 q 167 498 190 475 q 144 556 144 521 m 144 81 q 167 135 144 113 q 225 158 190 158 q 283 135 260 158 q 307 81 307 113 q 283 23 307 46 q 225 0 260 0 q 167 23 190 0 q 144 81 144 46 z "},";":{"ha":454,"x_min":142,"x_max":310,"o":"m 164 136 q 225 158 185 158 q 289 131 268 158 q 310 68 310 103 q 294 -4 310 31 q 259 -67 279 -39 q 217 -117 239 -96 q 183 -147 196 -137 q 178 -149 181 -149 q 176 -150 176 -150 q 171 -147 174 -150 l 149 -121 q 147 -118 147 -119 q 149 -114 147 -115 q 197 -61 175 -87 q 219 -10 219 -35 q 214 6 219 6 q 174 22 189 11 q 152 44 160 32 q 143 67 144 56 q 142 83 142 78 q 164 136 142 113 m 168 611 q 225 635 190 635 q 283 611 260 635 q 307 556 307 588 q 283 498 307 521 q 225 475 260 475 q 167 498 190 475 q 144 556 144 521 q 168 611 144 588 z "},"<":{"ha":915,"x_min":99,"x_max":811,"o":"m 99 508 l 99 560 q 103 567 99 563 l 797 939 q 803 940 800 940 q 808 938 804 940 q 811 932 811 936 l 811 881 q 807 875 811 876 l 172 536 l 807 192 q 811 186 811 189 l 811 133 q 808 128 811 131 q 801 125 804 125 q 797 126 800 125 l 103 503 q 99 508 99 504 z "},"=":{"ha":924,"x_min":99,"x_max":819,"o":"m 99 396 q 107 403 99 403 l 810 403 q 819 396 819 403 l 819 340 q 810 335 819 335 l 107 335 q 99 340 99 335 l 99 396 m 107 725 l 810 725 q 819 719 819 725 l 819 669 q 810 663 819 663 l 107 663 q 99 669 99 663 l 99 719 q 107 725 99 725 z "},">":{"ha":915,"x_min":99,"x_max":811,"o":"m 99 932 q 102 938 99 936 q 107 940 106 940 q 113 939 110 940 l 807 567 q 811 560 811 563 l 811 508 q 807 503 811 504 l 113 126 q 108 125 110 125 q 102 128 106 125 q 99 133 99 131 l 99 186 q 103 192 99 189 l 738 536 l 103 875 q 99 881 99 876 l 99 932 z "},"?":{"ha":726,"x_min":56,"x_max":665,"o":"m 72 853 q 125 935 89 897 q 217 997 161 972 q 353 1021 274 1021 q 581 966 497 1021 q 665 807 665 911 q 658 751 665 776 q 639 706 650 726 q 616 670 628 685 q 594 646 604 656 l 550 601 q 494 547 521 574 q 447 491 467 519 q 416 431 428 463 q 404 360 404 399 q 394 354 404 354 l 351 356 q 342 361 342 356 q 351 437 343 404 q 374 496 360 469 q 408 545 389 522 q 451 593 428 568 l 508 658 q 550 710 529 678 q 571 804 571 742 q 550 881 571 850 q 497 929 529 911 q 426 955 465 947 q 351 963 388 963 q 271 951 307 963 q 209 922 235 940 q 168 879 183 903 q 150 832 153 856 q 149 818 149 825 q 150 805 149 813 q 154 790 151 797 l 161 783 l 161 786 q 175 765 168 778 q 182 731 182 753 q 165 698 182 711 q 129 685 149 685 q 110 687 122 685 q 85 697 97 689 q 65 722 74 706 q 56 765 56 738 q 72 853 56 807 m 311 136 q 369 158 335 158 q 428 135 404 158 q 453 81 453 113 q 428 23 453 46 q 369 0 404 0 q 311 23 335 0 q 288 81 288 46 q 311 136 288 113 z "},"@":{"ha":1157,"x_min":42,"x_max":1114,"o":"m 88 690 q 212 867 133 793 q 397 983 290 942 q 624 1025 503 1025 q 820 990 738 1025 q 957 901 903 954 q 1037 783 1011 847 q 1063 661 1063 719 q 1031 483 1063 564 q 950 343 999 401 q 842 253 901 285 q 729 221 783 221 q 638 240 667 221 q 610 301 610 258 q 615 339 610 322 q 561 288 589 308 q 508 256 533 268 q 459 240 482 244 q 418 235 436 235 q 323 280 356 235 q 290 392 290 325 q 302 458 290 419 q 335 540 314 497 q 387 624 357 582 q 455 698 417 665 q 537 751 493 731 q 629 771 581 771 q 684 753 663 771 q 719 715 706 736 l 732 761 q 740 765 733 765 l 808 765 q 818 761 818 765 q 818 758 818 760 l 699 313 q 699 298 699 307 q 706 289 700 289 q 804 314 754 289 q 894 387 854 339 q 960 504 935 435 q 986 661 986 574 q 960 773 986 718 q 885 871 933 828 q 771 940 838 914 q 624 967 704 967 q 402 920 496 967 q 247 801 308 874 q 154 639 185 728 q 124 467 124 550 q 147 321 124 385 q 207 208 169 257 q 293 126 244 160 q 392 71 342 92 q 492 40 443 50 q 581 31 542 31 q 748 60 674 31 q 878 134 822 89 q 974 232 935 179 q 1033 332 1013 285 q 1042 335 1036 335 l 1104 335 q 1112 332 1110 335 q 1114 328 1114 329 q 1113 325 1114 326 q 1085 265 1103 300 q 1038 190 1067 229 q 969 112 1010 150 q 872 42 928 74 q 744 -8 817 11 q 581 -26 672 -26 q 362 11 461 -26 q 192 115 263 49 q 81 270 121 181 q 42 463 42 360 q 88 690 42 586 m 394 333 q 435 308 417 308 q 540 347 479 308 q 649 461 600 386 l 700 649 q 673 690 690 668 q 629 713 656 713 q 538 681 583 713 q 454 604 492 650 q 394 505 417 558 q 371 407 371 451 q 394 333 371 357 z "},"A":{"ha":939,"x_min":-40,"x_max":963,"o":"m -40 6 l -40 36 q -33 42 -40 42 l 94 67 l 417 1022 q 425 1026 421 1026 l 461 1026 q 471 1022 467 1026 l 826 67 l 956 42 q 963 36 963 42 l 963 6 q 954 0 963 0 l 643 0 q 635 6 635 0 l 635 36 q 642 42 635 42 l 739 65 l 622 382 l 267 382 l 163 65 l 257 42 q 265 36 265 42 l 265 6 q 256 0 265 0 l -32 0 q -40 6 -40 0 m 286 439 l 601 439 l 436 889 l 286 439 z "},"B":{"ha":964,"x_min":19,"x_max":907,"o":"m 19 1006 q 29 1011 19 1011 l 521 1011 q 674 994 611 1010 q 778 949 738 979 q 837 876 818 919 q 857 772 856 832 q 814 626 857 686 q 686 536 771 565 q 907 286 907 460 q 551 0 899 4 l 29 0 q 19 6 19 0 l 19 36 q 28 42 19 42 l 154 65 l 154 946 l 28 968 q 19 975 19 968 l 19 1006 m 235 513 l 235 57 l 533 57 q 749 120 675 61 q 822 279 822 179 q 822 286 822 282 q 822 292 822 289 q 801 377 822 338 q 736 444 779 417 q 653 487 697 469 q 557 514 610 504 q 540 513 549 513 l 235 513 m 235 954 l 235 567 l 514 567 q 710 619 647 569 q 774 782 774 668 q 710 909 769 868 q 517 954 651 950 l 235 954 z "},"C":{"ha":1042,"x_min":89,"x_max":993,"o":"m 89 497 q 129 728 89 629 q 235 894 169 828 q 385 995 300 961 q 560 1029 469 1029 q 726 1013 644 1029 q 868 974 808 997 q 874 968 874 974 l 921 811 l 921 810 q 914 804 921 807 l 882 792 q 878 790 879 790 q 872 794 874 790 q 856 825 865 808 q 837 858 847 842 q 815 890 826 875 q 789 915 803 906 q 685 960 749 947 q 561 974 621 974 q 508 969 543 974 q 428 948 472 964 q 339 901 385 932 q 256 817 293 869 q 195 685 219 764 q 171 497 171 607 q 203 304 171 389 q 289 161 235 219 q 413 72 343 103 q 561 42 483 42 q 647 53 607 42 q 723 83 688 64 q 788 124 758 101 q 840 172 817 147 q 935 304 896 229 q 940 307 938 307 q 946 306 943 307 l 989 278 q 993 274 993 276 q 992 271 993 272 q 803 54 908 126 q 563 -18 697 -18 q 414 5 496 -18 q 260 85 332 28 q 138 243 188 143 q 89 497 89 343 z "},"D":{"ha":1100,"x_min":54,"x_max":1026,"o":"m 54 975 l 54 1006 q 64 1011 54 1011 l 444 1011 q 1026 507 1004 1000 q 440 1 1025 33 q 436 0 439 0 l 64 0 q 54 6 54 0 l 54 36 q 63 42 54 42 l 189 65 l 189 946 l 63 968 q 54 975 54 968 m 269 954 l 269 57 l 417 57 q 674 101 583 69 q 817 182 763 133 q 909 313 875 231 q 943 507 943 396 q 910 701 943 619 q 818 832 876 783 q 682 914 756 886 q 578 940 642 929 q 424 954 515 950 l 269 954 z "},"E":{"ha":957,"x_min":54,"x_max":890,"o":"m 54 36 q 63 42 54 42 l 188 65 l 188 946 l 63 968 q 54 975 54 968 l 54 1006 q 64 1011 54 1011 l 835 1011 q 843 1007 843 1011 l 869 796 q 864 789 869 790 l 829 775 q 825 774 826 774 q 818 779 819 774 l 754 954 l 269 954 l 269 558 l 626 558 l 650 694 q 658 699 650 699 l 696 699 q 706 693 706 699 l 706 365 q 696 358 706 358 l 658 358 q 650 363 650 358 l 626 501 l 269 501 l 269 57 l 788 57 l 810 149 q 831 239 821 194 q 842 243 832 243 l 882 236 q 890 231 890 236 l 871 6 q 863 0 871 0 l 64 0 q 54 6 54 0 l 54 36 z "},"F":{"ha":882,"x_min":60,"x_max":872,"o":"m 60 36 q 65 42 60 42 l 190 65 l 190 946 l 65 968 q 60 975 60 968 l 60 1006 q 67 1011 60 1011 l 838 1011 q 846 1007 846 1011 l 872 796 q 865 789 872 792 l 832 775 q 828 774 829 774 q 821 779 822 774 l 756 954 l 272 954 l 272 558 l 629 558 l 653 694 q 661 699 653 699 l 700 699 q 708 693 708 699 l 708 365 q 700 358 708 358 l 661 358 q 653 363 653 358 l 629 501 l 272 501 l 272 65 l 400 42 q 406 36 406 42 l 406 6 q 399 0 406 0 l 67 0 q 60 6 60 0 l 60 36 z "},"G":{"ha":1053,"x_min":69,"x_max":1050,"o":"m 106 710 q 205 878 140 807 q 358 989 269 949 q 551 1029 446 1029 q 635 1024 592 1029 q 719 1012 679 1019 q 792 994 758 1004 q 847 972 826 983 q 853 967 853 972 l 901 811 l 901 810 q 894 804 901 807 l 861 792 q 857 790 858 790 q 851 794 853 790 q 818 853 836 822 q 779 907 800 885 q 688 953 751 933 q 542 974 625 974 q 481 967 519 974 q 399 940 443 960 q 311 887 356 921 q 231 800 267 853 q 173 673 196 747 q 150 497 150 599 q 176 319 150 403 q 253 172 201 235 q 379 73 304 110 q 554 36 454 36 q 649 47 603 36 q 733 76 694 58 q 801 119 771 94 q 849 168 832 143 l 849 403 q 769 415 808 408 q 690 428 731 422 q 685 435 685 428 l 685 469 q 692 475 685 475 l 1042 475 q 1050 469 1050 475 l 1050 435 q 1043 428 1050 428 l 929 404 l 929 8 q 921 3 929 3 l 886 1 q 876 6 878 1 l 856 88 q 810 54 836 72 q 748 20 785 36 q 664 -7 711 4 q 554 -18 617 -18 q 339 23 431 -18 q 188 133 247 64 q 99 297 128 203 q 69 497 69 390 q 106 710 69 611 z "},"H":{"ha":1139,"x_min":24,"x_max":1108,"o":"m 32 42 l 158 65 l 158 946 l 32 968 q 24 975 24 968 l 24 1006 q 33 1011 24 1011 l 365 1011 q 374 1006 374 1011 l 374 975 q 367 968 374 968 l 239 944 l 239 557 l 893 557 l 893 946 l 767 968 q 758 975 758 968 l 758 1006 q 768 1011 758 1011 l 1099 1011 q 1108 1006 1108 1011 l 1108 975 q 1100 968 1108 968 l 974 944 l 974 65 l 1100 42 q 1108 36 1108 42 l 1108 6 q 1099 0 1108 0 l 768 0 q 758 6 758 0 l 758 36 q 767 42 758 42 l 893 65 l 893 500 l 239 500 l 239 65 l 367 42 q 374 36 374 42 l 374 6 q 365 0 374 0 l 33 0 q 24 6 24 0 l 24 36 q 32 42 24 42 z "},"I":{"ha":418,"x_min":33,"x_max":383,"o":"m 33 6 l 33 36 q 40 42 33 42 l 167 65 l 167 946 l 40 968 q 33 975 33 968 l 33 1006 q 43 1011 33 1011 l 374 1011 q 383 1006 383 1011 l 383 975 q 375 968 383 968 l 249 944 l 249 65 l 375 42 q 383 36 383 42 l 383 6 q 374 0 383 0 l 43 0 q 33 6 33 0 z "},"J":{"ha":606,"x_min":4,"x_max":578,"o":"m 15 3 q 44 13 25 13 q 100 -24 71 13 l 99 -24 q 189 -62 146 -62 q 247 -49 221 -62 q 293 -4 274 -35 q 323 74 313 26 q 333 190 333 122 l 333 944 l 178 968 q 169 975 169 968 l 169 1006 q 179 1011 169 1011 l 569 1011 q 578 1006 578 1011 l 578 975 q 571 968 578 968 l 415 944 l 415 190 q 415 144 415 163 q 408 90 414 125 q 396 33 404 58 q 371 -24 388 8 q 302 -93 347 -65 q 186 -121 257 -121 q 122 -115 151 -121 q 64 -94 92 -110 q 4 -21 4 -61 q 15 3 4 -7 z "},"K":{"ha":947,"x_min":17,"x_max":972,"o":"m 17 36 q 24 42 17 42 l 151 65 l 151 946 l 24 968 q 17 975 17 968 l 17 1006 q 26 1011 17 1011 l 357 1011 q 367 1006 367 1011 l 367 975 q 358 968 367 968 l 232 944 l 232 503 l 692 946 q 636 958 664 953 q 579 968 608 964 q 572 975 572 968 l 572 1006 q 582 1011 572 1011 l 929 1011 q 939 1006 939 1011 l 939 975 q 931 968 939 968 l 775 942 l 444 628 l 832 67 l 964 42 q 972 36 972 42 l 972 6 q 963 0 972 0 l 626 0 q 618 6 618 0 l 618 36 q 625 42 618 42 l 740 65 l 565 321 q 392 576 478 449 l 232 425 l 232 65 l 358 42 q 367 36 367 42 l 367 6 q 357 0 367 0 l 26 0 q 17 6 17 0 l 17 36 z "},"L":{"ha":874,"x_min":56,"x_max":856,"o":"m 56 36 q 63 42 56 42 l 188 65 l 188 946 l 63 968 q 56 975 56 968 l 56 1006 q 64 1011 56 1011 l 394 1011 q 403 1006 403 1011 l 403 975 q 397 968 403 968 l 269 944 l 269 57 l 739 57 l 803 232 q 810 238 804 238 q 814 236 811 238 l 849 224 q 856 217 856 221 l 828 4 q 819 0 828 0 l 64 0 q 56 6 56 0 l 56 36 z "},"M":{"ha":1254,"x_min":64,"x_max":1181,"o":"m 64 975 l 64 1006 q 72 1011 64 1011 l 289 1011 q 299 1007 294 1011 l 615 139 q 782 573 699 358 q 949 1007 865 788 q 953 1010 951 1008 q 958 1011 956 1011 l 1174 1011 q 1181 1006 1181 1011 l 1181 975 q 1175 968 1181 968 l 1057 944 l 1057 65 l 1175 42 q 1181 36 1181 42 l 1181 6 q 1174 0 1181 0 l 858 0 q 849 6 849 0 l 849 36 q 857 42 849 42 l 978 65 l 978 249 l 976 901 l 632 4 q 627 1 629 3 q 622 0 625 0 l 588 0 q 578 4 582 0 l 253 896 l 253 65 l 358 42 q 367 36 367 42 l 367 6 q 357 0 367 0 l 88 0 q 79 6 79 0 l 79 36 q 86 42 79 42 l 189 65 l 189 944 l 71 968 q 64 975 64 968 z "},"N":{"ha":1151,"x_min":67,"x_max":1079,"o":"m 74 42 l 189 65 l 189 944 l 74 968 q 67 975 67 968 l 67 1006 q 76 1011 67 1011 l 283 1011 q 290 1008 288 1011 l 893 89 l 893 944 l 767 968 q 758 975 758 968 l 758 1006 q 768 1011 758 1011 l 1071 1011 q 1079 1006 1079 1011 l 1079 975 q 1072 968 1079 968 l 956 944 l 956 6 q 946 0 956 0 l 872 0 q 864 3 867 0 l 251 921 l 251 65 l 372 42 q 381 36 381 42 l 381 6 q 371 0 381 0 l 76 0 q 67 6 67 0 l 67 36 q 74 42 67 42 z "},"O":{"ha":1029,"x_min":28,"x_max":979,"o":"m 63 717 q 160 882 97 813 q 311 990 224 951 q 503 1029 399 1029 q 693 990 606 1029 q 844 882 781 951 q 943 717 907 813 q 979 508 979 621 q 944 299 979 396 q 847 132 910 203 q 696 22 783 61 q 503 -18 608 -18 q 313 21 400 -18 q 163 129 226 60 q 64 296 100 199 q 28 508 28 393 q 63 717 28 621 m 107 508 q 135 328 107 413 q 214 179 163 243 q 338 78 265 115 q 503 42 411 42 q 667 78 594 42 q 791 179 740 115 q 869 328 842 243 q 897 508 897 413 q 869 688 897 603 q 788 835 840 772 q 664 936 736 899 q 503 974 592 974 q 342 936 415 974 q 217 835 269 899 q 136 688 165 772 q 107 508 107 603 z "},"P":{"ha":921,"x_min":56,"x_max":892,"o":"m 56 36 q 64 42 56 42 l 188 65 l 188 946 l 64 968 q 56 975 56 968 l 56 1006 q 65 1011 56 1011 l 556 1011 q 805 938 721 1008 q 892 742 889 867 q 870 626 892 679 q 806 535 849 574 q 701 476 764 497 q 556 454 639 454 l 269 454 l 269 67 l 425 42 q 433 36 433 42 l 433 6 q 424 0 433 0 l 65 0 q 56 6 56 0 l 56 36 m 269 954 l 269 506 l 546 506 q 749 567 688 508 q 810 747 810 625 q 810 753 810 750 q 795 834 810 797 q 749 898 781 871 q 669 940 718 925 q 550 954 619 954 l 269 954 z "},"Q":{"ha":1029,"x_min":28,"x_max":979,"o":"m 63 717 q 160 882 97 813 q 311 990 224 951 q 503 1029 399 1029 q 693 990 606 1029 q 844 882 781 951 q 943 717 907 813 q 979 508 979 621 q 950 316 979 406 q 867 158 921 226 q 740 44 814 89 q 575 -12 665 0 q 613 -33 597 -22 q 635 -51 628 -44 q 687 -91 656 -71 q 751 -111 718 -111 q 790 -103 771 -111 q 825 -83 810 -94 q 861 -56 843 -71 q 867 -53 864 -53 q 875 -58 872 -53 l 899 -92 q 901 -96 901 -93 q 897 -99 901 -97 q 853 -133 876 -118 q 807 -158 833 -147 q 753 -168 781 -168 q 668 -147 703 -168 q 610 -110 633 -126 l 593 -96 l 594 -96 q 550 -68 579 -85 q 493 -51 521 -51 q 460 -59 478 -51 q 428 -76 443 -67 q 392 -101 410 -87 q 386 -103 389 -103 q 378 -100 381 -103 l 350 -61 q 347 -57 347 -58 q 351 -53 347 -54 q 371 -39 360 -46 q 392 -25 381 -32 q 419 -11 404 -18 q 262 47 333 3 q 138 160 190 92 q 57 316 86 228 q 28 508 28 404 q 63 717 28 621 m 107 508 q 135 328 107 413 q 214 179 163 243 q 338 78 265 115 q 503 42 411 42 q 667 78 594 42 q 791 179 740 115 q 869 328 842 243 q 897 508 897 413 q 869 688 897 603 q 788 835 840 772 q 664 936 736 899 q 503 974 592 974 q 342 936 415 974 q 217 835 269 899 q 136 688 165 772 q 107 508 107 603 z "},"R":{"ha":1019,"x_min":56,"x_max":1040,"o":"m 56 1006 q 65 1011 56 1011 l 557 1011 q 893 757 888 1004 q 806 567 893 647 q 632 489 740 503 l 872 67 l 1032 42 q 1040 36 1040 42 l 1040 6 q 1031 0 1040 0 l 821 0 q 813 3 815 0 l 546 483 l 269 483 l 269 65 l 411 42 q 419 36 419 42 l 419 6 q 410 0 419 0 l 65 0 q 56 6 56 0 l 56 36 q 64 42 56 42 l 189 65 l 189 946 l 64 968 q 56 975 56 968 l 56 1006 m 549 536 q 742 597 675 539 q 810 763 810 656 q 810 767 810 764 q 749 904 810 854 q 551 954 689 954 l 269 954 l 269 536 l 549 536 z "},"S":{"ha":843,"x_min":31,"x_max":775,"o":"m 31 225 q 38 232 31 229 l 76 242 q 85 239 83 242 q 128 153 107 190 q 178 97 150 117 q 223 75 194 85 q 285 58 251 65 q 353 47 318 51 q 415 43 388 43 q 533 60 481 43 q 621 103 585 76 q 676 166 657 131 q 696 240 696 201 q 672 342 696 304 q 606 413 647 381 q 553 444 586 428 q 483 476 519 461 q 409 505 446 492 q 346 528 372 518 l 319 538 q 265 558 294 546 q 207 587 236 571 q 151 621 178 603 q 107 658 125 639 q 66 723 79 688 q 53 796 53 758 q 76 894 53 850 q 144 968 100 938 q 252 1015 189 999 q 393 1032 315 1032 q 491 1024 440 1032 q 583 1004 542 1015 q 679 976 632 992 q 686 972 686 976 l 733 814 q 733 813 733 814 q 726 807 733 810 l 694 796 q 685 799 686 796 l 672 819 q 631 885 656 850 q 567 940 606 921 q 522 955 547 949 q 471 965 496 961 q 424 972 446 969 q 393 975 403 975 q 303 967 349 975 q 219 939 257 960 q 158 883 182 918 q 135 792 135 847 q 153 725 135 754 q 201 674 172 696 q 265 635 231 651 q 331 604 299 618 l 392 579 q 462 553 424 568 q 538 524 500 539 q 607 492 575 508 q 660 461 639 475 q 747 364 718 421 q 775 239 775 307 q 748 135 775 182 q 672 55 721 89 q 558 2 624 21 q 415 -17 492 -17 q 309 -10 361 -17 q 213 4 257 -4 q 135 22 168 13 q 85 40 101 32 q 81 46 81 40 l 31 225 z "},"T":{"ha":882,"x_min":24,"x_max":851,"o":"m 50 1007 q 60 1011 50 1011 l 814 1011 q 824 1007 824 1011 l 851 796 q 844 789 851 792 l 810 775 q 806 774 808 774 q 797 779 801 774 l 735 954 l 472 954 l 472 65 l 600 42 q 607 36 607 42 l 607 6 q 599 0 607 0 l 267 0 q 257 6 257 0 l 257 36 q 265 42 257 42 l 392 65 l 392 954 l 140 954 l 76 779 q 71 776 74 776 q 67 775 68 775 q 64 775 65 775 l 31 789 q 24 796 24 792 l 50 1007 z "},"U":{"ha":1004,"x_min":-1,"x_max":997,"o":"m 7 1011 l 339 1011 q 349 1006 349 1011 l 349 975 q 340 968 349 968 l 214 944 l 214 340 q 230 213 214 268 q 282 121 246 157 q 374 65 318 85 q 511 46 429 46 q 647 63 583 46 q 757 122 711 79 q 811 210 792 157 q 831 343 831 264 l 831 946 l 735 968 q 726 975 726 968 l 726 1006 q 736 1011 726 1011 l 990 1011 q 997 1006 997 1011 l 997 975 q 992 968 997 968 l 893 946 l 893 340 q 870 195 893 261 q 806 85 847 129 q 685 9 758 36 q 510 -18 611 -18 q 215 85 307 -18 q 133 340 133 175 l 133 946 l 6 968 q -1 975 -1 968 l -1 1006 q 7 1011 -1 1011 z "},"V":{"ha":999,"x_min":-6,"x_max":996,"o":"m -6 975 l -6 1006 q 3 1011 -6 1011 l 347 1011 q 356 1006 356 1011 l 356 975 q 349 968 356 968 l 211 944 q 360 524 286 729 q 508 104 433 319 l 803 944 l 679 968 q 672 975 672 968 l 672 1006 q 682 1011 672 1011 l 989 1011 q 996 1006 996 1011 l 996 975 q 990 968 996 968 l 871 943 l 539 4 q 532 0 535 0 l 468 0 q 458 4 463 0 l 131 943 q 66 956 97 949 q 1 968 35 963 q -6 975 -6 968 z "},"W":{"ha":1347,"x_min":-31,"x_max":1369,"o":"m -31 1006 q -21 1011 -31 1011 l 322 1011 q 332 1006 332 1011 l 332 975 q 324 968 332 968 l 186 944 q 328 526 258 729 q 469 107 397 322 l 661 749 l 610 943 q 546 956 578 949 q 482 968 514 963 q 474 975 474 968 l 474 1006 q 483 1011 474 1011 l 826 1011 q 836 1006 836 1011 l 836 975 q 828 968 836 968 l 690 944 l 911 110 q 1044 527 978 321 q 1176 944 1110 733 l 1054 968 q 1046 975 1046 968 l 1046 1006 q 1056 1011 1046 1011 l 1361 1011 q 1369 1006 1369 1011 l 1369 975 q 1363 968 1369 968 l 1243 943 l 943 4 q 935 0 939 0 l 871 0 q 865 1 868 0 q 861 4 863 1 l 692 635 l 501 4 q 492 0 497 0 l 428 0 q 419 4 424 0 l 106 943 q 42 956 74 949 q -22 968 10 963 q -31 975 -31 968 l -31 1006 z "},"X":{"ha":1072,"x_min":29,"x_max":1061,"o":"m 36 42 l 188 68 l 506 518 l 189 943 q 124 956 157 949 q 60 968 92 963 q 51 975 51 968 l 51 1006 q 61 1011 51 1011 l 399 1011 q 407 1006 407 1011 l 407 975 q 400 968 407 968 l 279 944 l 551 575 q 677 759 615 667 q 803 944 739 851 q 736 957 771 950 q 671 968 701 964 q 663 975 663 968 l 663 1006 q 672 1011 663 1011 l 1010 1011 q 1019 1006 1019 1011 l 1019 975 q 1011 968 1019 968 l 875 943 l 583 526 l 908 68 l 1054 42 q 1061 36 1061 42 l 1061 6 q 1053 0 1061 0 l 704 0 q 694 6 694 0 l 694 36 q 703 42 694 42 l 822 67 l 540 468 q 399 268 468 368 q 257 67 329 168 q 325 53 290 60 q 392 42 360 47 q 400 36 400 42 l 400 6 q 390 0 400 0 l 38 0 q 29 6 29 0 l 29 36 q 36 42 29 42 z "},"Y":{"ha":1025,"x_min":24,"x_max":1006,"o":"m 33 1011 l 386 1011 q 394 1006 394 1011 l 394 975 q 388 968 394 968 l 251 944 l 539 504 q 680 725 610 615 q 821 944 750 835 q 769 957 796 950 q 718 968 743 964 q 710 975 710 968 l 710 1006 q 719 1011 710 1011 l 997 1011 q 1006 1006 1006 1011 l 1006 975 q 999 968 1006 968 l 892 943 l 567 449 l 567 65 l 693 42 q 701 36 701 42 l 701 6 q 692 0 701 0 l 360 0 q 351 6 351 0 l 351 36 q 358 42 351 42 l 486 65 l 486 457 l 163 943 l 32 968 q 24 975 24 968 l 24 1006 q 33 1011 24 1011 z "},"Z":{"ha":882,"x_min":43,"x_max":869,"o":"m 43 6 l 43 40 l 726 951 q 585 952 656 951 q 443 954 514 953 l 197 954 l 133 779 q 125 774 131 774 q 121 775 124 774 l 86 789 q 81 796 81 792 l 107 1007 q 117 1011 107 1011 l 826 1011 q 836 1006 836 1011 l 836 968 l 151 57 l 753 57 l 818 232 q 825 238 819 238 q 829 236 826 238 l 863 224 q 869 217 869 219 l 843 4 q 835 0 843 0 l 51 0 q 43 6 43 0 z "},"[":{"ha":440,"x_min":117,"x_max":390,"o":"m 117 -265 l 117 1006 q 125 1011 117 1011 l 382 1011 q 390 1006 390 1011 l 390 960 q 382 954 390 954 l 249 954 q 197 901 197 954 l 197 -160 q 249 -215 197 -215 l 382 -215 q 390 -221 390 -215 l 390 -265 q 382 -271 390 -271 l 125 -271 q 117 -265 117 -271 z "},"\\":{"ha":415,"x_min":-8,"x_max":419,"o":"m -7 1010 q 1 1011 -3 1011 l 57 1011 q 67 1007 64 1011 l 419 -290 q 419 -292 419 -292 q 410 -299 419 -299 l 354 -299 q 346 -294 347 -299 l -7 1004 q -8 1007 -8 1006 q -7 1010 -8 1008 z "},"]":{"ha":440,"x_min":100,"x_max":374,"o":"m 100 -221 q 108 -215 100 -215 l 242 -215 q 292 -160 292 -215 l 292 901 q 242 954 292 954 l 108 954 q 100 960 100 954 l 100 1006 q 108 1011 100 1011 l 365 1011 q 374 1006 374 1011 l 374 -265 q 365 -271 374 -271 l 108 -271 q 100 -265 100 -271 l 100 -221 z "},"^":{"ha":440,"x_min":-25,"x_max":453,"o":"m -24 492 l 167 1007 q 175 1011 171 1011 l 253 1011 q 258 1010 256 1011 q 263 1007 260 1008 l 451 492 q 453 489 453 490 q 442 485 453 485 l 378 485 q 369 489 374 485 l 215 931 l 54 489 q 47 485 50 485 l -15 485 q -22 486 -19 485 q -25 489 -25 488 q -24 492 -25 490 z "},"_":{"ha":574,"x_min":-7,"x_max":576,"o":"m -7 6 l -7 58 q 1 65 -7 65 l 568 65 q 576 58 576 65 l 576 6 q 568 0 576 0 l 1 0 q -7 6 -7 0 z "},"`":{"ha":454,"x_min":110,"x_max":340,"o":"m 111 1008 q 119 1011 114 1011 l 208 1011 q 217 1008 214 1011 l 339 761 q 340 757 340 758 q 332 753 340 753 l 283 753 q 275 756 278 753 l 113 1001 q 110 1006 110 1004 q 111 1008 110 1007 z "},"a":{"ha":701,"x_min":35,"x_max":646,"o":"m 35 156 q 58 234 35 190 q 142 317 81 278 q 247 365 188 343 q 360 397 307 386 q 426 410 390 404 q 489 421 461 417 l 489 458 q 476 534 489 504 q 440 581 463 564 q 385 606 417 599 q 317 614 354 614 q 131 508 189 614 q 85 475 108 475 l 81 475 q 57 511 57 478 q 135 619 57 569 q 217 659 171 646 q 317 672 264 672 q 508 615 447 672 q 569 465 569 557 l 569 82 q 594 36 569 44 q 611 38 601 36 q 628 42 621 39 q 632 43 631 43 q 640 38 638 43 l 646 13 q 642 4 646 6 q 582 -12 610 -12 l 574 -12 q 521 0 542 -12 q 492 50 500 13 q 376 0 436 18 q 263 -18 315 -18 q 95 31 156 -18 q 35 156 35 79 m 115 164 q 131 103 115 126 q 168 66 144 79 q 220 47 192 53 q 276 42 249 42 q 392 63 336 42 q 489 110 449 85 l 489 367 q 213 288 310 339 q 115 164 115 238 z "},"b":{"ha":838,"x_min":15,"x_max":769,"o":"m 15 967 l 15 996 q 22 1003 15 1003 l 196 1021 q 206 1014 206 1021 l 206 606 q 251 626 224 614 q 309 648 278 638 q 374 665 340 658 q 439 672 407 672 q 545 653 488 672 q 653 592 603 635 q 736 483 703 550 q 769 319 769 415 q 733 148 769 214 q 645 45 697 82 q 535 -5 593 8 q 436 -18 478 -18 q 366 -10 403 -18 q 297 8 329 -3 q 237 28 264 18 q 194 46 210 39 l 178 4 q 173 1 175 3 q 168 0 171 0 l 135 0 q 125 6 125 0 l 125 961 l 24 961 q 15 967 15 961 m 206 544 l 207 114 q 245 91 221 104 q 300 66 269 78 q 366 46 331 54 q 439 38 401 38 q 522 56 478 38 q 603 109 567 74 q 665 197 640 144 q 689 319 689 250 q 664 455 689 399 q 601 547 639 511 q 520 598 564 582 q 439 614 476 614 q 365 606 401 614 q 299 588 329 599 q 245 565 269 576 q 206 544 221 553 z "},"c":{"ha":701,"x_min":22,"x_max":660,"o":"m 51 481 q 127 588 79 544 q 234 651 175 631 q 354 672 293 672 l 363 672 q 549 621 469 672 q 608 573 586 597 q 635 528 631 549 q 636 519 636 524 q 631 502 636 511 q 617 490 625 493 q 611 489 614 489 q 589 496 601 489 q 561 524 576 503 q 467 589 518 564 q 363 614 415 614 q 242 589 293 614 q 159 524 192 564 q 110 433 126 485 q 94 331 94 382 q 113 219 94 272 q 167 127 132 167 q 253 64 203 88 q 364 40 303 40 l 372 40 q 429 48 399 40 q 492 74 460 56 q 553 117 524 92 q 607 175 582 143 q 614 179 610 179 q 621 176 617 179 l 657 151 q 660 149 660 150 q 658 143 660 146 q 520 22 596 61 q 365 -18 444 -18 q 224 9 288 -18 q 115 83 160 36 q 47 194 71 131 q 22 328 22 257 q 51 481 22 415 z "},"d":{"ha":825,"x_min":49,"x_max":817,"o":"m 49 319 q 82 483 49 415 q 165 592 115 550 q 274 653 215 635 q 381 672 332 672 q 444 665 411 672 q 508 648 476 658 q 565 626 539 638 q 611 606 592 614 l 611 961 l 510 961 q 501 967 501 961 l 501 996 q 508 1003 501 1003 l 682 1021 q 692 1014 692 1021 l 692 65 l 808 50 q 817 44 817 50 l 817 6 q 807 0 817 0 l 621 0 q 611 6 611 0 l 611 42 q 566 24 593 33 q 508 4 539 14 q 445 -12 478 -6 q 383 -18 413 -18 q 283 -5 340 -18 q 173 45 225 8 q 85 148 121 82 q 49 319 49 214 m 129 319 q 153 197 129 250 q 215 109 178 144 q 296 56 251 74 q 381 38 340 38 q 451 46 417 38 q 517 66 486 54 q 572 91 547 78 q 611 114 596 104 l 611 544 q 572 565 596 553 q 517 588 547 578 q 453 606 488 599 q 381 614 418 614 q 299 598 343 614 q 217 547 254 582 q 154 455 179 511 q 129 319 129 399 z "},"e":{"ha":724,"x_min":28,"x_max":675,"o":"m 42 440 q 93 549 56 497 q 196 637 131 601 q 364 672 261 672 q 498 646 440 672 q 594 576 556 619 q 651 476 632 532 q 671 360 671 419 l 671 326 q 661 321 671 321 l 107 321 q 125 212 108 263 q 173 123 142 161 q 251 63 204 85 q 364 40 299 40 q 449 53 408 40 q 522 85 489 65 q 581 128 556 104 q 622 175 606 151 q 629 179 625 179 q 636 176 632 179 l 672 151 q 675 149 675 150 q 674 143 675 146 q 544 27 625 72 q 363 -18 463 -18 q 222 10 285 -18 q 117 85 160 38 q 51 198 74 133 q 28 336 28 263 q 42 440 28 382 m 108 376 l 588 376 q 571 467 586 424 q 528 542 556 510 q 458 594 500 575 q 364 614 417 614 q 249 594 296 614 q 173 543 203 575 q 128 467 143 511 q 108 376 113 424 z "},"f":{"ha":432,"x_min":28,"x_max":419,"o":"m 28 653 q 36 658 28 658 l 147 658 l 147 724 q 201 914 153 850 q 336 982 249 978 q 399 969 379 981 q 419 940 419 957 q 376 908 419 908 q 347 913 361 908 l 349 913 l 322 917 q 297 910 311 917 q 274 896 282 903 q 238 838 250 872 q 225 746 225 804 l 225 658 l 351 658 q 360 653 360 658 l 360 613 q 351 607 360 607 l 225 607 l 225 64 l 353 40 q 360 35 360 40 l 360 6 q 351 0 360 0 l 36 0 q 28 6 28 0 l 28 35 q 35 40 28 40 l 147 64 l 147 607 l 36 607 q 28 613 28 607 l 28 653 z "},"g":{"ha":725,"x_min":32,"x_max":724,"o":"m 32 -54 q 45 -6 32 -28 q 78 35 58 17 q 124 67 99 53 q 175 90 150 81 q 135 101 156 94 q 99 117 115 107 q 74 140 83 126 q 64 171 64 153 q 100 226 64 203 q 185 261 136 249 q 110 332 140 288 q 81 443 81 376 q 99 529 81 488 q 153 603 118 571 q 240 653 189 635 q 356 672 292 672 q 450 658 407 672 q 528 619 493 643 q 643 671 579 671 l 646 671 q 706 649 689 664 q 724 617 724 633 q 722 607 724 613 q 708 581 719 592 q 678 571 696 571 l 669 571 q 639 578 650 572 q 608 597 628 583 q 597 600 604 600 q 588 599 594 600 q 574 592 582 599 l 565 586 q 612 516 596 554 q 628 440 628 478 q 603 340 628 382 q 539 271 578 297 q 451 232 500 244 q 356 219 403 219 q 308 222 332 219 q 260 231 283 224 q 204 218 228 226 q 167 203 181 210 q 152 191 158 199 q 146 175 146 183 q 157 167 146 171 q 184 158 168 163 q 216 151 200 154 q 240 147 232 149 l 372 133 q 426 128 400 131 q 467 124 451 126 q 547 106 507 117 q 620 75 588 94 q 673 26 653 56 q 693 -49 693 -4 q 661 -136 693 -99 q 579 -199 629 -174 q 469 -237 529 -224 q 354 -250 410 -250 q 237 -240 294 -250 q 133 -206 179 -229 q 60 -144 88 -182 q 32 -54 32 -107 m 178 372 q 219 322 193 342 q 279 291 244 301 q 354 281 314 281 q 498 328 450 281 q 546 443 546 376 q 535 506 546 475 q 501 560 524 536 q 442 599 478 585 q 356 614 406 614 q 210 567 258 614 q 163 444 163 519 q 178 372 163 403 m 113 -56 q 143 -124 113 -97 q 212 -162 172 -149 q 292 -181 251 -176 q 354 -186 332 -186 q 436 -176 392 -186 q 519 -149 481 -167 q 585 -107 558 -132 q 613 -51 611 -82 q 584 22 613 -4 q 475 58 556 49 q 401 68 446 64 q 310 78 356 72 q 297 78 303 78 q 285 79 292 79 q 233 58 263 71 q 177 29 204 46 q 131 -9 150 13 q 113 -56 113 -31 z "},"h":{"ha":851,"x_min":18,"x_max":825,"o":"m 18 35 q 26 40 18 40 l 136 64 l 136 961 l 35 961 q 28 967 28 961 l 28 997 q 33 1004 28 1004 l 206 1022 q 217 1015 217 1022 l 217 561 q 268 600 239 581 q 331 635 297 619 q 403 662 365 651 q 482 672 440 672 q 572 655 531 672 q 642 608 613 638 q 689 542 672 579 q 706 463 706 504 l 706 64 l 818 40 q 825 35 825 40 l 825 6 q 817 0 825 0 l 517 0 q 507 6 507 0 l 507 35 q 515 40 507 40 l 625 64 l 625 443 q 619 501 625 471 q 598 556 614 531 q 554 597 582 581 q 482 614 526 614 q 356 584 425 614 q 217 490 288 554 l 217 64 l 326 40 q 335 35 335 40 l 335 6 q 325 0 335 0 l 28 0 q 18 6 18 0 l 18 35 z "},"i":{"ha":440,"x_min":46,"x_max":392,"o":"m 53 40 l 179 64 l 179 581 l 78 581 q 69 588 69 581 l 69 618 q 76 624 69 624 l 249 642 q 258 636 258 642 l 258 64 l 385 40 q 392 35 392 40 l 392 6 q 383 0 392 0 l 54 0 q 46 6 46 0 l 46 35 q 53 40 46 40 m 160 954 q 207 974 179 974 q 256 953 235 974 q 276 906 276 933 q 256 860 276 879 q 207 840 235 840 q 159 860 179 840 q 139 906 139 879 q 160 954 139 933 z "},"j":{"ha":325,"x_min":-61,"x_max":231,"o":"m -11 -192 q 4 -193 0 -192 q 14 -197 8 -194 l 33 -203 q 43 -204 39 -204 q 65 -199 53 -204 q 85 -186 78 -194 q 121 -122 108 -162 q 133 -36 133 -81 l 133 581 l 32 581 q 22 588 22 581 l 22 618 q 31 624 22 624 l 203 642 q 214 636 214 642 l 214 -14 q 22 -274 201 -265 q -40 -259 -18 -274 q -61 -228 -61 -244 q -11 -192 -61 -192 m 92 906 q 113 953 92 933 q 161 974 133 974 q 210 953 189 974 q 231 906 231 933 q 210 860 231 879 q 161 840 189 840 q 113 860 133 840 q 92 906 92 879 z "},"k":{"ha":796,"x_min":54,"x_max":810,"o":"m 54 6 l 54 35 q 63 40 54 40 l 174 64 l 174 961 l 72 961 q 64 967 64 961 l 64 997 q 71 1004 64 1004 l 243 1022 q 254 1015 254 1022 l 254 315 l 544 594 q 498 606 521 601 q 451 617 475 611 q 443 622 443 617 l 443 653 q 453 658 443 658 l 753 658 q 761 653 761 658 l 761 622 q 754 617 761 617 l 626 593 l 433 408 l 678 65 l 803 40 q 810 35 810 40 l 810 6 q 801 0 810 0 l 489 0 q 481 6 481 0 l 481 35 q 488 40 481 40 l 583 64 l 378 356 l 254 236 l 254 64 l 365 40 q 372 35 372 40 l 372 6 q 364 0 372 0 l 64 0 q 54 6 54 0 z "},"l":{"ha":440,"x_min":49,"x_max":394,"o":"m 49 35 q 56 40 49 40 l 182 64 l 182 961 l 81 961 q 72 967 72 961 l 72 997 q 79 1004 72 1004 l 251 1022 q 263 1015 263 1022 l 263 64 l 388 40 q 394 35 394 40 l 394 6 q 386 0 394 0 l 57 0 q 49 6 49 0 l 49 35 z "},"m":{"ha":1108,"x_min":18,"x_max":1078,"o":"m 18 6 l 18 35 q 26 40 18 40 l 122 64 l 122 610 l 36 610 q 28 617 28 610 l 28 647 q 35 654 28 654 l 192 672 q 203 667 203 672 l 203 569 q 244 606 221 588 q 293 638 267 624 q 349 663 319 653 q 408 672 378 672 q 509 644 467 672 q 572 571 551 617 q 610 607 589 589 q 658 640 632 625 q 715 663 685 654 q 779 672 744 672 q 868 657 831 672 q 929 616 906 642 q 964 555 953 590 q 975 478 975 519 l 975 64 l 1071 40 q 1078 35 1078 40 l 1078 6 q 1069 0 1078 0 l 800 0 q 790 6 790 0 l 790 35 q 797 40 790 40 l 894 64 l 894 457 q 867 573 894 532 q 779 614 839 614 q 676 582 725 614 q 589 510 628 550 q 591 494 590 503 q 592 479 592 486 l 592 64 l 688 40 q 694 35 694 40 l 694 6 q 686 0 694 0 l 417 0 q 407 6 407 0 l 407 35 q 415 40 407 40 l 511 64 l 511 458 q 504 514 511 486 q 484 564 497 542 q 451 600 471 586 q 408 614 432 614 q 353 603 381 614 q 299 574 325 592 q 248 535 272 557 q 203 492 224 514 l 203 64 l 314 40 q 321 35 321 40 l 321 6 q 314 0 321 0 l 28 0 q 18 6 18 0 z "},"n":{"ha":831,"x_min":11,"x_max":818,"o":"m 11 35 q 18 40 11 40 l 129 64 l 129 610 l 28 610 q 19 617 19 610 l 19 647 q 26 654 19 654 l 199 672 q 208 667 208 672 l 208 560 q 262 599 232 579 q 326 635 292 619 q 399 662 361 651 q 474 672 436 672 q 569 655 528 672 q 640 608 611 638 q 683 542 668 579 q 697 463 697 504 l 697 64 l 810 40 q 818 35 818 40 l 818 6 q 808 0 818 0 l 508 0 q 500 6 500 0 l 500 35 q 507 40 500 40 l 618 64 l 618 443 q 612 501 618 471 q 590 556 606 531 q 546 597 574 581 q 474 614 518 614 q 413 606 446 614 q 344 583 379 599 q 274 545 310 568 q 208 492 239 522 l 208 64 l 319 40 q 326 35 326 40 l 326 6 q 319 0 326 0 l 19 0 q 11 6 11 0 l 11 35 z "},"o":{"ha":711,"x_min":24,"x_max":682,"o":"m 49 464 q 118 573 74 526 q 223 646 163 619 q 353 672 283 672 q 483 646 422 672 q 588 573 543 619 q 657 463 632 526 q 682 326 682 400 q 657 190 682 253 q 588 81 632 128 q 483 8 543 35 q 353 -18 422 -18 q 223 8 283 -18 q 118 81 163 35 q 49 190 74 128 q 24 326 24 253 q 49 464 24 400 m 104 326 q 124 215 104 268 q 177 123 143 163 q 256 60 211 83 q 353 38 301 38 q 449 60 404 38 q 528 123 494 83 q 582 215 563 163 q 601 326 601 268 q 582 438 601 385 q 528 529 563 490 q 449 591 494 568 q 353 614 404 614 q 256 591 301 614 q 177 529 211 568 q 124 438 143 490 q 104 326 104 385 z "},"p":{"ha":821,"x_min":3,"x_max":754,"o":"m 3 -235 q 10 -229 3 -229 l 119 -206 l 119 614 l 11 614 q 3 621 3 614 l 3 647 q 10 654 3 654 l 189 672 q 200 667 200 672 l 200 610 q 244 629 218 618 q 301 650 271 640 q 362 666 331 660 q 424 672 393 672 q 530 653 472 672 q 638 592 588 635 q 721 483 688 550 q 754 319 754 415 q 718 148 754 214 q 630 45 682 82 q 520 -5 578 8 q 421 -18 463 -18 q 362 -12 393 -18 q 301 1 331 -7 q 246 19 272 10 q 200 38 219 29 l 200 -206 q 254 -217 226 -212 q 308 -229 282 -222 q 317 -235 317 -229 l 317 -265 q 307 -271 317 -271 l 11 -271 q 3 -265 3 -271 l 3 -235 m 239 88 q 292 64 263 75 q 354 45 321 53 q 424 38 388 38 q 507 56 463 38 q 588 109 551 74 q 649 197 625 144 q 674 319 674 250 q 649 455 674 399 q 586 547 624 511 q 505 598 549 582 q 424 614 461 614 q 356 607 389 614 q 293 590 322 600 q 240 569 264 581 q 200 550 217 558 l 200 110 q 239 88 215 100 z "},"q":{"ha":794,"x_min":36,"x_max":775,"o":"m 36 319 q 69 483 36 415 q 153 592 103 550 q 261 653 203 635 q 368 672 319 672 q 432 665 399 672 q 496 648 465 658 q 553 626 526 638 q 599 606 581 614 l 619 668 q 628 672 624 672 l 663 672 q 672 667 672 672 l 672 -204 l 769 -229 q 775 -235 775 -229 l 775 -265 q 767 -271 775 -271 l 497 -271 q 488 -265 488 -271 l 488 -235 q 493 -229 488 -229 l 592 -204 l 592 39 q 546 21 572 31 q 490 2 519 11 q 430 -12 461 -7 q 371 -18 399 -18 q 270 -5 328 -18 q 160 45 213 8 q 72 148 108 82 q 36 319 36 214 m 142 197 q 202 109 165 144 q 283 56 239 74 q 368 38 328 38 q 436 45 403 38 q 499 64 469 53 q 551 88 528 75 q 592 110 575 100 l 592 549 l 551 569 q 499 590 528 581 q 436 607 469 600 q 368 614 403 614 q 286 598 331 614 q 204 547 242 582 q 142 455 167 511 q 117 319 117 399 q 142 197 117 250 z "},"r":{"ha":565,"x_min":35,"x_max":554,"o":"m 40 654 l 214 672 q 224 667 224 672 l 224 551 q 274 595 246 574 q 335 634 303 617 q 401 662 367 651 q 471 672 436 672 q 534 659 514 672 q 554 629 554 646 q 511 596 554 596 q 485 600 497 596 q 466 604 476 603 q 444 606 456 606 q 416 603 435 606 q 375 592 397 601 q 304 551 347 581 q 224 481 261 522 l 224 64 l 326 40 q 333 35 333 40 l 333 6 q 325 0 333 0 l 43 0 q 35 6 35 0 l 35 35 q 40 40 35 40 l 144 64 l 144 610 l 43 610 q 35 617 35 610 l 35 647 q 40 654 35 654 z "},"s":{"ha":682,"x_min":74,"x_max":599,"o":"m 81 165 l 115 175 q 118 175 117 175 q 128 171 122 175 q 151 116 138 143 q 188 72 164 89 q 220 57 200 64 q 263 46 240 50 q 308 40 286 42 q 347 38 331 38 q 401 43 371 38 q 456 63 431 49 q 500 100 482 76 q 518 160 518 124 q 474 235 518 196 q 338 306 429 275 q 258 332 301 317 q 178 370 215 347 q 115 424 140 393 q 90 496 90 454 q 112 575 90 542 q 167 630 133 608 q 241 662 200 651 q 321 672 282 672 q 379 666 347 672 q 442 651 411 660 q 498 631 472 642 q 536 611 524 621 l 563 508 q 564 506 564 507 q 557 501 564 503 l 528 489 q 524 488 525 488 q 518 492 519 488 q 492 540 506 519 q 458 576 478 561 q 428 593 446 586 q 391 605 410 600 q 353 612 372 610 q 321 614 335 614 q 263 606 290 614 q 215 585 236 599 q 183 551 194 571 q 171 504 171 531 q 192 462 171 482 q 242 424 213 442 q 305 394 272 407 q 360 372 338 381 q 451 334 408 354 q 527 290 494 314 q 579 234 560 265 q 599 163 599 203 q 580 89 599 122 q 528 32 561 56 q 449 -5 494 8 q 349 -18 403 -18 q 257 -12 300 -18 q 182 1 214 -6 q 113 21 144 10 q 108 22 111 21 q 106 25 106 24 l 74 158 q 74 160 74 158 q 81 165 74 163 z "},"t":{"ha":440,"x_min":11,"x_max":396,"o":"m 11 604 l 11 633 q 18 639 11 639 q 78 657 53 643 q 122 697 104 671 q 149 767 139 724 q 163 872 158 810 q 171 878 163 878 l 199 878 q 207 872 207 878 l 207 654 l 347 654 q 356 647 356 654 l 356 604 q 347 597 356 597 l 207 597 l 207 128 q 221 66 207 92 q 263 40 235 40 q 304 48 288 40 q 356 81 321 56 q 361 82 358 82 q 368 79 365 82 l 393 47 q 396 43 396 44 q 395 42 396 43 q 392 39 394 40 q 335 0 368 18 q 254 -18 303 -18 q 161 18 194 -18 q 128 143 128 54 l 128 597 l 19 597 q 11 604 11 597 z "},"u":{"ha":817,"x_min":15,"x_max":813,"o":"m 24 658 l 204 658 q 214 653 214 658 l 214 229 q 220 171 214 201 q 242 115 226 140 q 285 72 257 89 q 357 56 313 56 q 482 85 413 56 q 622 181 551 115 l 622 594 l 511 617 q 504 622 504 617 l 504 653 q 514 658 504 658 l 693 658 q 703 653 703 658 l 703 65 l 804 65 q 813 58 813 65 l 813 29 q 806 22 813 22 l 633 0 q 622 6 622 0 l 622 108 q 570 69 599 89 q 508 35 542 50 q 436 10 474 19 q 357 0 399 0 q 268 17 308 0 q 197 63 228 35 q 150 129 167 92 q 133 207 133 167 l 133 594 l 22 617 q 15 622 15 617 l 15 653 q 24 658 15 658 z "},"v":{"ha":764,"x_min":-12,"x_max":754,"o":"m -12 653 q -3 658 -12 658 l 307 658 q 317 653 317 658 l 317 622 q 308 617 317 617 l 189 593 q 293 347 242 465 q 399 100 344 229 q 494 346 446 225 q 592 593 543 467 l 500 617 q 492 622 492 617 l 492 653 q 501 658 492 658 l 744 658 q 754 653 754 658 l 754 622 q 746 617 754 617 l 658 593 l 431 4 q 426 1 428 3 q 421 0 424 0 l 358 0 q 350 3 353 0 l 107 592 l -4 617 q -12 622 -12 617 l -12 653 z "},"w":{"ha":1081,"x_min":18,"x_max":1056,"o":"m 18 622 l 18 653 q 28 658 18 658 l 296 658 q 304 653 304 658 l 304 622 q 297 617 304 617 l 204 593 l 381 103 l 521 492 l 489 593 l 390 617 q 383 622 383 617 l 383 653 q 392 658 383 658 l 660 658 q 669 653 669 658 l 669 622 q 661 617 669 617 l 569 593 q 647 349 608 465 q 725 104 685 232 l 893 593 l 801 617 q 793 622 793 617 l 793 653 q 803 658 793 658 l 1046 658 q 1056 653 1056 658 l 1056 622 q 1047 617 1056 617 l 960 593 l 756 4 q 747 0 751 0 l 685 0 q 679 1 682 0 q 676 4 676 3 l 553 393 l 414 4 q 409 1 411 3 q 404 0 407 0 l 342 0 q 333 4 338 0 l 124 593 l 26 617 q 18 622 18 617 z "},"x":{"ha":824,"x_min":13,"x_max":796,"o":"m 13 6 l 13 35 q 19 40 13 40 l 139 67 l 357 339 l 151 592 l 36 617 q 29 622 29 617 l 29 653 q 38 658 29 658 l 340 658 q 350 653 350 658 l 350 622 q 342 617 350 617 l 240 593 l 407 389 q 489 490 447 440 q 571 593 531 540 q 520 606 546 600 q 469 617 494 611 q 461 622 461 617 l 461 653 q 471 658 461 658 l 747 658 q 757 653 757 658 l 757 622 q 750 617 757 617 l 643 592 l 451 347 l 675 67 l 789 40 q 796 35 796 40 l 796 6 q 788 0 796 0 l 486 0 q 476 6 476 0 l 476 35 q 485 40 476 40 l 589 65 l 403 301 q 306 183 354 239 q 208 65 258 128 q 260 52 233 58 q 314 40 288 46 q 319 35 319 40 l 319 6 q 313 0 319 0 l 19 0 q 13 6 13 0 z "},"y":{"ha":789,"x_min":-3,"x_max":783,"o":"m -3 621 l -3 653 q 6 658 -3 658 l 306 658 q 311 657 308 658 q 314 653 314 656 l 314 621 q 307 614 314 614 l 200 596 l 399 111 q 487 326 439 206 q 594 596 535 446 q 549 606 571 603 q 503 614 526 608 q 494 621 494 614 l 494 653 q 504 658 494 658 l 774 658 q 783 653 783 658 l 783 621 q 775 614 783 614 l 671 594 q 639 518 663 576 q 584 382 615 460 q 517 217 553 304 q 451 55 482 131 q 397 -76 419 -21 q 368 -144 374 -131 q 317 -219 346 -190 q 260 -263 289 -247 q 206 -285 232 -279 q 167 -290 181 -290 q 108 -287 138 -290 q 56 -275 79 -285 q 11 -246 24 -260 q -1 -214 -1 -232 l -1 -206 q 22 -174 3 -178 q 49 -171 40 -171 q 79 -178 65 -171 l 78 -178 q 114 -199 100 -187 l 119 -203 l 118 -203 q 146 -215 132 -211 q 171 -218 160 -218 q 301 -124 256 -217 l 300 -124 q 326 -60 311 -96 q 358 15 340 -25 l 115 592 l 4 614 q -3 621 -3 614 z "},"z":{"ha":697,"x_min":54,"x_max":638,"o":"m 510 603 l 183 603 l 140 421 q 132 417 138 417 l 89 424 q 82 429 82 424 l 101 653 q 111 658 101 658 l 617 658 q 625 653 625 658 l 625 619 l 171 56 l 535 56 q 557 147 546 101 q 578 236 568 192 q 588 240 579 240 l 629 235 q 638 229 638 235 l 618 6 q 608 0 618 0 l 64 0 q 54 6 54 0 l 54 36 l 510 603 z "},"{":{"ha":469,"x_min":24,"x_max":400,"o":"m 24 350 l 24 390 q 31 396 24 396 q 126 460 94 414 q 158 558 158 506 l 158 760 q 177 876 158 826 q 231 954 196 925 q 392 1011 304 1011 q 397 1010 394 1011 q 400 1006 400 1008 l 400 967 q 393 961 400 961 q 275 903 311 951 q 239 758 239 856 l 239 586 q 239 582 239 585 q 192 443 239 510 q 115 369 156 389 q 192 299 156 350 q 239 158 239 232 q 239 154 239 157 l 239 -17 q 282 -160 239 -112 q 393 -221 325 -207 q 400 -228 400 -221 l 400 -264 q 397 -268 400 -267 q 392 -269 394 -269 q 238 -212 315 -269 q 158 -18 158 -153 l 158 183 q 126 281 158 235 q 31 343 94 328 q 24 350 24 343 z "},"|":{"ha":757,"x_min":336,"x_max":417,"o":"m 346 1011 l 407 1011 q 417 1006 417 1011 l 417 -293 q 407 -299 417 -299 l 346 -299 q 336 -293 336 -299 l 336 1006 q 346 1011 336 1011 z "},"}":{"ha":469,"x_min":65,"x_max":440,"o":"m 65 -264 l 65 -228 q 71 -221 65 -221 q 183 -160 140 -207 q 225 -17 225 -112 l 225 154 q 225 158 225 156 q 272 299 225 229 q 350 371 311 353 q 311 399 331 381 q 272 443 292 417 q 225 578 225 506 q 225 586 225 582 l 225 758 q 190 903 225 856 q 71 961 154 951 q 65 967 65 961 l 65 1006 q 72 1011 65 1011 q 233 954 160 1011 q 287 876 268 925 q 306 760 306 826 l 306 558 q 338 460 306 506 q 435 396 371 414 q 440 390 440 396 l 440 350 q 435 343 440 343 q 338 282 371 328 q 306 183 306 236 l 306 -18 q 226 -212 306 -154 q 72 -269 149 -269 q 65 -264 65 -269 z "},"~":{"ha":869,"x_min":53,"x_max":753,"o":"m 54 879 q 92 925 68 901 q 146 968 117 949 q 206 999 175 988 q 260 1011 236 1011 q 344 994 308 1011 q 400 967 381 978 l 399 968 q 403 965 401 967 q 408 963 406 964 l 438 946 q 499 913 463 931 q 571 894 536 894 q 620 912 597 894 q 660 951 643 929 q 696 1008 679 976 q 703 1011 699 1011 q 708 1010 706 1011 l 747 982 q 753 978 753 981 q 751 975 753 976 q 699 897 728 932 q 640 844 674 868 q 565 819 606 819 q 508 829 538 819 q 452 851 479 839 q 405 876 425 864 q 376 893 385 888 l 381 893 q 333 919 367 904 q 256 935 299 935 q 174 909 211 935 q 104 842 136 883 q 97 839 101 839 q 90 840 94 839 l 56 872 q 53 876 53 874 q 54 879 53 878 z "},"¡":{"ha":449,"x_min":140,"x_max":304,"o":"m 165 -342 l 189 301 q 199 307 189 307 l 246 307 q 254 301 254 307 l 279 -342 q 269 -349 279 -349 l 172 -349 q 165 -342 165 -349 m 164 640 q 222 663 186 663 q 281 640 257 663 q 304 582 304 617 q 281 527 304 550 q 222 504 257 504 q 163 527 186 504 q 140 582 140 550 q 164 640 140 617 z "},"¢":{"ha":701,"x_min":21,"x_max":665,"o":"m 21 350 q 50 502 21 438 q 127 610 79 567 q 235 674 175 653 q 356 694 294 694 q 364 694 360 694 q 381 694 372 694 q 397 693 389 693 l 444 863 q 454 867 449 867 l 494 867 q 504 863 504 867 q 504 860 504 861 l 456 683 q 551 644 510 671 q 612 596 589 621 q 638 551 635 571 q 638 543 638 547 q 619 513 638 521 q 613 511 615 511 q 565 546 592 511 q 440 625 507 600 l 288 69 q 365 60 321 60 q 374 60 369 60 q 497 95 432 60 q 610 197 561 131 q 617 200 613 200 q 624 199 619 200 l 661 171 q 665 168 665 169 q 663 164 665 165 q 522 40 597 81 q 367 0 446 0 q 272 11 319 0 l 233 -129 q 225 -133 231 -133 l 183 -133 q 176 -131 179 -133 q 174 -128 174 -129 q 174 -126 174 -128 l 217 31 q 73 158 125 72 q 21 350 21 243 m 94 351 q 131 199 94 268 q 233 93 167 129 l 382 638 q 374 639 378 639 l 364 639 q 244 614 294 639 q 160 548 193 589 q 110 456 126 507 q 94 351 94 404 z "},"£":{"ha":932,"x_min":49,"x_max":856,"o":"m 56 429 l 268 429 l 324 678 l 386 946 l 263 968 q 254 975 254 968 l 254 1006 q 264 1011 254 1011 l 593 1011 q 603 1006 603 1011 l 603 975 q 594 968 603 968 l 467 944 l 404 675 l 351 429 l 740 429 q 747 424 747 429 l 747 371 q 740 365 747 365 l 338 365 l 271 57 l 739 57 l 803 232 q 810 238 804 238 q 814 236 811 238 l 849 224 q 856 217 856 221 l 828 4 q 819 0 828 0 l 64 0 q 54 6 54 0 l 54 36 q 63 42 54 42 l 189 67 l 254 365 l 56 365 q 49 371 49 365 l 49 424 q 56 429 49 429 z "},"¤":{"ha":1038,"x_min":85,"x_max":947,"o":"m 86 144 q 88 149 86 147 l 219 279 q 147 408 167 342 q 128 533 128 475 q 151 665 128 600 q 221 786 174 729 l 88 917 q 85 919 86 918 q 85 922 85 921 q 88 926 85 924 l 117 958 q 122 961 119 960 q 131 958 126 960 l 263 826 q 378 893 311 868 q 518 918 446 918 q 648 897 582 918 q 772 826 714 875 l 901 958 q 907 961 904 961 q 913 958 910 961 l 944 926 q 947 922 946 924 q 944 917 946 919 l 811 788 q 878 673 850 740 q 906 533 906 606 q 902 483 906 513 q 888 421 899 454 q 860 351 878 388 q 811 279 842 315 l 944 149 q 947 143 946 146 q 944 139 946 142 l 913 108 q 907 106 910 106 q 901 108 904 106 l 771 239 q 650 169 715 192 q 518 147 585 147 q 389 169 456 147 q 264 239 322 190 l 131 108 q 122 107 126 107 q 117 108 119 107 l 88 139 q 86 143 86 140 q 86 144 86 143 m 208 533 q 233 411 208 468 q 299 313 257 354 q 398 247 342 271 q 518 222 454 222 q 638 247 582 222 q 735 313 693 271 q 801 411 776 354 q 825 533 825 468 q 801 654 825 597 q 735 753 776 711 q 638 819 693 794 q 518 843 582 843 q 398 819 454 843 q 299 753 342 794 q 233 655 257 711 q 208 533 208 599 z "},"¥":{"ha":1025,"x_min":24,"x_max":1006,"o":"m 24 975 l 24 1006 q 33 1011 24 1011 l 386 1011 q 394 1006 394 1011 l 394 975 q 388 968 394 968 l 251 944 l 539 504 q 680 725 610 615 q 821 944 750 835 q 769 957 796 950 q 718 968 743 964 q 710 975 710 968 l 710 1006 q 719 1011 710 1011 l 997 1011 q 1006 1006 1006 1011 l 1006 975 q 999 968 1006 968 l 892 943 l 594 492 l 849 492 q 858 486 858 492 l 858 439 q 849 433 858 433 l 567 433 l 567 299 l 849 299 q 858 292 858 299 l 858 243 q 849 238 858 238 l 567 238 l 567 65 l 693 42 q 701 36 701 42 l 701 6 q 692 0 701 0 l 360 0 q 351 6 351 0 l 351 36 q 358 42 351 42 l 486 65 l 486 238 l 196 238 q 186 243 186 238 l 186 292 q 196 299 186 299 l 486 299 l 486 433 l 196 433 q 186 439 186 433 l 186 486 q 196 492 186 492 l 463 492 l 163 943 l 32 968 q 24 975 24 968 z "},"¦":{"ha":343,"x_min":133,"x_max":213,"o":"m 133 1008 q 142 1014 133 1014 l 203 1014 q 213 1008 213 1014 l 213 513 q 203 507 213 507 l 142 507 q 133 513 133 507 l 133 1008 m 142 286 l 203 286 q 213 279 213 286 l 213 -215 q 203 -221 213 -221 l 142 -221 q 133 -215 133 -221 l 133 279 q 142 286 133 286 z "},"§":{"ha":757,"x_min":60,"x_max":693,"o":"m 67 -17 l 114 -7 l 124 -11 q 158 -92 139 -57 q 203 -152 176 -128 q 265 -189 229 -176 q 353 -201 301 -201 q 431 -191 390 -201 q 506 -160 472 -181 q 561 -106 539 -139 q 583 -29 583 -74 q 545 67 583 26 q 451 142 507 108 q 328 206 394 175 q 205 276 261 238 q 110 364 149 314 q 72 485 72 414 q 102 585 72 543 q 176 658 132 626 q 119 731 140 690 q 99 829 99 772 q 124 933 99 890 q 191 1001 150 975 q 284 1040 232 1028 q 389 1051 336 1051 q 436 1049 403 1051 q 506 1041 469 1046 q 572 1029 542 1036 q 611 1014 603 1022 q 644 829 625 924 l 638 822 l 590 813 l 582 817 q 557 892 571 858 q 522 947 543 925 q 467 981 500 969 q 386 993 435 993 q 317 987 353 993 q 251 965 281 981 q 201 922 221 949 q 181 854 181 894 q 216 752 181 794 q 302 678 251 710 q 410 620 353 646 q 511 569 467 594 l 514 569 q 578 531 546 551 q 635 484 610 510 q 677 426 661 458 q 693 351 693 393 q 664 244 693 292 q 590 158 635 196 q 644 85 624 125 q 665 -4 665 46 q 637 -126 665 -76 q 561 -205 608 -175 q 455 -248 514 -235 q 333 -261 396 -261 q 283 -258 318 -261 q 209 -249 247 -254 q 138 -235 171 -243 q 97 -217 106 -226 q 81 -121 90 -168 q 60 -25 71 -74 l 67 -17 m 190 421 q 290 347 231 382 q 417 276 349 311 q 543 199 486 242 q 592 253 571 222 q 613 319 613 283 q 574 421 613 381 q 476 493 535 461 q 351 553 418 525 q 226 619 283 582 q 174 574 197 600 q 150 513 150 549 q 190 421 150 460 z "},"¨":{"ha":606,"x_min":64,"x_max":539,"o":"m 407 922 q 461 943 429 943 q 517 921 494 943 q 539 869 539 899 q 515 815 539 839 q 490 800 504 804 q 461 796 476 796 q 408 817 432 796 q 383 871 383 838 q 407 922 383 900 m 64 869 q 85 921 64 899 q 140 943 106 943 q 197 922 176 943 q 217 871 217 900 q 194 817 217 838 q 139 796 171 796 q 110 800 124 796 q 86 815 97 804 q 64 869 64 838 z "},"©":{"ha":1193,"x_min":103,"x_max":1075,"o":"m 243 871 q 401 974 315 939 q 589 1010 488 1010 q 932 869 792 1010 q 1075 531 1075 731 q 931 192 1075 331 q 775 88 860 124 q 589 53 690 53 q 401 88 488 53 q 243 192 315 124 q 103 531 103 331 q 243 871 103 732 m 183 531 q 301 238 183 357 q 590 118 424 118 q 878 238 761 118 q 997 531 997 358 q 878 824 997 704 q 590 944 763 944 q 301 822 422 944 q 183 531 183 704 m 301 536 q 326 666 301 611 q 391 758 350 721 q 482 811 432 794 q 583 828 532 828 q 592 828 588 828 q 751 786 682 828 q 825 704 821 740 q 825 700 825 703 q 813 675 825 682 q 800 674 806 674 q 751 701 775 674 q 677 751 717 733 q 592 769 638 769 q 498 750 538 769 q 433 698 458 731 q 394 624 407 665 q 381 538 381 582 q 397 444 381 488 q 441 368 413 400 q 508 317 469 336 q 593 299 547 299 q 606 299 599 299 q 704 328 653 299 q 800 410 756 357 q 807 413 803 413 q 813 411 810 413 l 844 385 q 849 381 849 383 q 846 376 849 379 q 729 272 793 307 q 594 238 665 238 q 474 261 528 238 q 381 325 419 285 q 322 419 343 365 q 301 536 301 474 z "},"ª":{"ha":526,"x_min":-7,"x_max":510,"o":"m -7 415 q 10 482 -7 446 q 82 550 28 518 l 82 547 q 165 585 119 568 q 256 611 211 601 l 254 611 q 310 624 278 618 q 371 632 343 629 l 371 654 q 331 748 371 722 q 235 774 290 774 q 151 751 190 774 q 83 689 111 729 q 63 669 75 678 q 42 661 51 661 q 39 661 40 661 q 20 672 26 663 q 14 694 14 681 q 31 744 14 721 q 81 788 49 768 q 153 817 113 806 q 235 828 194 828 q 393 781 342 828 q 444 660 444 735 l 444 356 q 451 338 444 346 q 467 325 458 331 l 490 333 q 496 335 493 333 q 503 328 501 333 l 510 300 q 509 296 510 299 q 506 292 508 293 q 451 276 479 276 q 443 276 447 276 q 398 287 415 276 q 374 329 381 297 q 274 287 325 301 q 179 272 222 272 q 43 313 93 272 q -7 415 -7 353 m 69 422 q 81 375 69 393 q 108 348 92 357 q 147 335 125 339 q 189 332 168 332 q 288 350 239 332 q 371 392 338 368 l 371 581 q 148 522 226 558 q 69 422 69 485 z "},"«":{"ha":646,"x_min":53,"x_max":617,"o":"m 571 679 q 575 682 572 682 q 582 679 578 682 l 611 653 q 617 649 617 651 q 613 644 617 647 l 417 379 l 417 376 l 613 113 q 615 108 615 111 q 611 106 615 107 l 582 81 q 575 79 578 79 q 571 81 572 79 l 290 371 l 290 388 l 571 679 m 332 679 q 336 682 335 682 q 339 681 338 682 q 342 679 340 681 l 374 653 q 378 649 378 651 q 375 644 378 647 l 178 379 l 178 376 l 375 113 q 376 110 376 111 q 372 106 376 107 l 340 81 q 338 79 339 79 q 332 81 335 79 l 53 371 l 53 388 l 332 679 z "},"¬":{"ha":801,"x_min":47,"x_max":740,"o":"m 47 488 l 47 564 q 56 569 47 569 l 731 569 q 740 564 740 569 l 740 239 q 731 233 740 233 l 657 233 q 649 239 649 233 l 649 481 l 56 481 q 47 488 47 481 z "},"­":{"ha":801,"x_min":47,"x_max":747,"o":"m 47 363 l 47 439 q 56 444 47 444 l 739 444 q 747 439 747 444 l 747 363 q 739 357 747 357 l 56 357 q 47 363 47 357 z "},"®":{"ha":1193,"x_min":69,"x_max":1042,"o":"m 69 531 q 213 871 69 733 q 369 974 283 939 q 557 1010 454 1010 q 901 869 757 1010 q 1042 531 1042 729 q 899 192 1042 331 q 742 88 828 124 q 557 53 657 53 q 369 88 454 53 q 213 192 283 124 q 69 531 69 329 m 150 531 q 268 238 150 357 q 558 118 390 118 q 844 238 728 118 q 964 531 964 358 q 844 824 964 704 q 558 944 729 944 q 268 822 389 944 q 150 531 150 704 m 292 790 l 292 821 q 301 826 292 826 l 582 826 q 727 788 678 825 q 778 679 776 750 q 631 524 778 543 l 764 301 l 839 289 q 846 283 846 289 l 846 251 q 838 244 846 244 l 718 244 q 710 249 714 244 l 560 521 l 438 521 l 438 301 l 515 289 q 522 283 522 289 l 522 251 q 514 244 522 244 l 301 244 q 292 251 292 244 l 292 283 q 300 289 292 289 l 368 301 l 368 772 l 300 783 q 292 790 292 783 m 438 578 l 556 578 q 629 585 600 578 q 675 604 658 592 q 699 635 692 617 q 706 676 706 653 q 672 745 706 721 q 576 769 639 769 l 438 769 l 438 578 z "},"¯":{"ha":586,"x_min":99,"x_max":483,"o":"m 107 708 l 474 708 q 483 703 483 708 l 483 629 q 474 624 483 624 l 107 624 q 99 629 99 624 l 99 703 q 107 708 99 708 z "},"°":{"ha":606,"x_min":106,"x_max":494,"o":"m 164 1046 q 301 1103 221 1103 q 438 1046 385 1103 q 494 913 494 992 q 438 776 494 833 q 301 721 382 721 q 164 778 217 721 q 106 913 106 835 q 164 1046 106 992 m 190 868 q 215 826 199 844 q 251 799 231 808 q 294 790 272 790 q 301 790 299 790 q 387 826 353 790 q 421 913 421 861 q 421 918 421 915 q 411 963 421 942 q 384 1000 401 985 q 344 1024 367 1015 q 297 1033 321 1033 q 253 1026 275 1033 q 214 999 231 1018 q 189 960 197 982 q 181 915 181 939 q 190 868 181 890 z "},"±":{"ha":1211,"x_min":182,"x_max":1022,"o":"m 182 544 l 182 606 q 190 611 182 611 l 563 611 l 563 944 q 572 950 563 950 l 632 950 q 640 944 640 950 l 640 611 l 1013 611 q 1022 606 1022 611 l 1022 544 q 1013 539 1022 539 l 640 539 l 640 206 q 632 200 640 200 l 572 200 q 563 206 563 200 l 563 539 l 190 539 q 182 544 182 539 m 190 92 l 1013 92 q 1022 86 1022 92 l 1022 24 q 1013 18 1022 18 l 190 18 q 182 24 182 18 l 182 86 q 190 92 182 92 z "},"²":{"ha":606,"x_min":63,"x_max":540,"o":"m 63 450 q 87 527 65 486 q 141 608 108 568 q 212 685 174 649 q 285 749 250 721 q 328 786 303 764 q 378 835 354 808 q 418 888 401 861 q 435 942 435 915 q 394 1026 435 999 q 299 1053 354 1053 q 205 1024 249 1053 q 146 939 161 996 q 130 914 142 924 q 103 904 118 904 q 84 915 92 904 q 76 940 76 926 q 92 997 76 967 q 136 1053 107 1028 q 206 1094 165 1078 q 299 1111 247 1111 q 455 1065 399 1111 q 511 939 511 1018 q 488 864 511 901 q 434 794 465 826 q 372 735 403 761 q 322 694 340 708 q 279 657 303 679 q 233 610 256 635 q 192 558 210 585 q 167 511 174 532 l 447 511 l 485 597 q 494 603 486 603 l 533 593 q 540 586 540 593 l 522 447 q 514 443 522 443 l 71 443 q 63 450 63 443 z "},"³":{"ha":615,"x_min":89,"x_max":565,"o":"m 94 596 q 113 610 101 608 q 119 610 115 610 q 142 599 132 610 q 158 572 151 589 l 161 567 q 233 497 193 517 q 319 476 274 476 q 442 514 394 476 q 490 614 490 551 q 481 662 490 635 q 451 710 471 689 l 424 726 q 367 746 403 739 q 322 753 347 751 q 258 756 296 756 q 250 761 250 756 l 250 807 q 258 813 250 813 q 330 821 293 813 q 397 846 367 829 q 447 885 428 863 q 465 938 465 908 q 453 994 465 972 q 419 1027 440 1015 q 372 1043 399 1039 q 318 1047 346 1047 q 238 1028 276 1047 q 181 954 200 1008 q 179 950 181 953 q 177 945 178 947 q 175 942 176 943 q 165 922 171 931 q 136 914 158 914 q 116 926 124 914 q 108 953 108 939 q 108 958 108 956 q 125 1006 110 981 q 167 1052 140 1031 q 233 1088 194 1074 q 319 1103 271 1103 q 488 1054 438 1103 q 538 933 538 1006 q 503 851 538 889 q 418 792 469 813 q 471 769 444 783 q 518 735 497 756 q 552 685 539 714 q 565 619 565 657 q 544 529 565 567 q 489 467 524 492 q 409 430 454 442 q 317 418 364 418 q 215 435 257 418 q 147 476 174 453 q 106 523 119 499 q 90 560 93 547 q 89 572 89 567 q 94 596 89 586 z "},"´":{"ha":511,"x_min":140,"x_max":372,"o":"m 142 994 l 247 1161 q 256 1164 250 1164 l 363 1164 q 372 1158 372 1164 l 372 1135 q 368 1131 372 1131 l 199 985 l 149 985 q 142 988 143 985 q 140 992 140 990 q 142 994 140 993 z "},"¶":{"ha":882,"x_min":50,"x_max":718,"o":"m 50 807 q 142 1047 50 960 q 372 1118 218 1118 l 710 1118 q 715 1117 713 1118 q 718 1113 718 1115 l 718 1067 q 715 1063 718 1064 q 710 1061 713 1061 q 619 1047 632 1061 q 607 968 607 1036 l 607 -97 l 710 -119 q 718 -126 718 -119 l 718 -161 q 715 -165 718 -164 q 710 -167 713 -167 l 538 -167 q 528 -161 528 -167 l 528 1061 l 433 1061 l 433 -161 q 424 -167 433 -167 l 239 -167 q 231 -161 231 -167 l 231 -126 q 238 -119 231 -119 l 354 -97 l 354 500 q 126 583 203 503 q 50 807 50 663 z "},"¸":{"ha":586,"x_min":133,"x_max":431,"o":"m 135 -249 l 158 -206 q 165 -203 161 -203 q 171 -204 168 -203 q 269 -232 214 -232 q 333 -217 313 -232 q 354 -178 354 -203 q 325 -129 354 -140 q 268 -118 296 -118 q 249 -119 258 -118 q 244 -119 247 -119 q 240 -118 242 -118 l 224 -104 q 221 -100 221 -103 q 222 -97 221 -99 l 275 8 q 283 13 279 13 l 336 13 q 343 10 342 13 q 344 6 344 7 q 343 3 344 4 l 310 -71 q 400 -107 369 -78 q 431 -181 431 -136 q 392 -261 431 -228 q 275 -294 353 -294 q 138 -256 201 -294 q 133 -251 133 -254 q 135 -249 133 -250 z "},"¹":{"ha":615,"x_min":165,"x_max":457,"o":"m 165 479 q 172 486 165 486 l 275 503 l 275 1051 l 185 1051 q 178 1054 181 1051 q 176 1055 176 1054 q 175 1056 176 1056 l 175 1089 q 179 1093 175 1090 q 182 1094 179 1094 l 183 1094 l 310 1115 l 340 1115 q 347 1113 344 1115 q 348 1111 347 1111 q 349 1110 349 1111 l 349 503 l 394 494 l 449 488 q 456 485 453 488 q 457 482 456 483 l 457 449 q 456 446 457 447 q 450 443 453 443 l 174 443 q 167 446 168 443 q 165 450 165 447 l 165 479 z "},"º":{"ha":696,"x_min":107,"x_max":594,"o":"m 107 782 q 124 913 107 851 q 172 1022 140 975 q 248 1095 203 1068 q 350 1122 293 1122 q 453 1095 408 1122 q 530 1022 499 1068 q 578 913 561 975 q 594 782 594 851 q 578 647 594 710 q 530 539 561 585 q 453 467 499 493 q 350 442 407 442 q 243 469 289 442 q 167 544 197 497 q 122 652 138 590 q 107 782 107 714 m 193 675 q 223 586 203 625 q 274 525 243 547 q 350 503 306 503 q 428 529 396 503 q 480 596 460 556 q 509 686 500 636 q 518 782 518 736 q 509 877 518 828 q 481 968 500 926 q 429 1036 461 1010 q 350 1063 397 1063 q 274 1038 306 1063 q 223 974 243 1014 q 193 884 203 935 q 183 782 183 833 q 193 675 183 725 z "},"»":{"ha":646,"x_min":51,"x_max":615,"o":"m 293 653 l 325 679 q 333 681 329 681 q 338 679 336 681 l 615 388 l 615 371 l 338 81 q 333 79 335 79 q 326 81 329 79 l 296 106 q 290 110 290 107 q 292 113 290 111 l 490 376 l 490 379 l 292 644 q 289 649 289 647 q 293 653 289 651 m 56 653 l 86 679 q 92 682 89 682 q 99 679 96 682 l 376 388 l 376 371 l 99 81 q 92 79 96 79 q 86 81 89 79 l 56 106 q 53 110 53 107 q 54 113 53 111 l 251 376 l 251 379 l 54 644 q 51 649 51 647 q 56 653 51 651 z "},"¼":{"ha":1414,"x_min":168,"x_max":1235,"o":"m 728 232 l 1046 663 q 1054 665 1049 665 l 1124 665 q 1132 660 1132 665 l 1132 250 l 1226 250 q 1235 243 1235 250 l 1235 201 q 1226 194 1235 194 l 1132 194 l 1132 60 l 1213 46 q 1218 39 1218 46 l 1218 7 q 1211 1 1218 1 l 976 1 q 968 7 968 1 l 968 39 q 975 46 968 46 l 1054 60 l 1054 194 l 738 194 q 728 201 728 194 l 728 232 m 288 -8 l 931 1110 q 939 1113 933 1113 l 1008 1113 q 1018 1108 1018 1113 q 1015 1103 1018 1106 l 372 -14 q 365 -17 369 -17 l 296 -17 q 286 -12 286 -17 q 288 -8 286 -11 m 175 486 l 279 503 l 279 1024 l 186 1024 q 179 1029 179 1024 l 179 1058 q 185 1064 179 1064 l 313 1085 l 342 1085 q 351 1079 351 1085 l 351 503 l 399 494 l 451 488 q 460 481 460 488 l 460 450 q 451 443 460 443 l 178 443 q 168 450 168 443 l 168 479 q 175 486 168 486 m 818 250 l 1054 250 l 1053 571 l 1000 501 l 818 250 z "},"½":{"ha":1414,"x_min":168,"x_max":1251,"o":"m 799 85 q 853 165 821 125 q 923 242 885 206 q 996 307 961 279 q 1040 343 1014 321 q 1090 392 1067 365 q 1129 446 1113 418 q 1146 500 1146 474 q 1107 584 1146 557 q 1010 611 1068 611 q 961 603 985 611 q 917 581 938 596 q 881 545 896 567 q 858 496 865 524 q 844 470 856 481 q 817 460 832 460 q 797 472 806 460 q 788 497 788 483 q 803 554 788 524 q 847 610 818 585 q 917 653 876 636 q 1010 669 958 669 q 1167 622 1110 669 q 1224 496 1224 575 q 1201 422 1224 460 q 1147 352 1178 385 q 1083 293 1115 319 q 1033 253 1051 267 q 992 215 1015 238 q 945 167 968 193 q 903 116 922 142 q 878 69 885 90 l 1160 69 l 1197 156 q 1208 160 1199 160 l 1244 151 q 1251 143 1251 151 l 1233 4 q 1225 0 1233 0 l 783 0 q 774 6 774 0 q 799 85 776 43 m 288 -8 l 931 1110 q 939 1113 933 1113 l 1008 1113 q 1018 1108 1018 1113 q 1015 1103 1018 1106 l 372 -14 q 365 -17 369 -17 l 296 -17 q 286 -12 286 -17 q 288 -8 286 -11 m 175 486 l 279 503 l 279 1024 l 186 1024 q 179 1029 179 1024 l 179 1058 q 185 1064 179 1064 l 313 1085 l 342 1085 q 351 1079 351 1085 l 351 503 l 399 494 l 451 488 q 460 481 460 488 l 460 450 q 451 443 460 443 l 178 443 q 168 450 168 443 l 168 479 q 175 486 168 486 z "},"¾":{"ha":1414,"x_min":90,"x_max":1292,"o":"m 783 232 l 1100 663 q 1108 665 1106 665 l 1179 665 q 1189 660 1189 665 l 1189 250 l 1282 250 q 1292 243 1292 250 l 1292 201 q 1282 194 1292 194 l 1189 194 l 1189 60 l 1267 46 q 1275 39 1275 46 l 1275 7 q 1265 1 1275 1 l 1031 1 q 1022 7 1022 1 l 1022 39 q 1029 46 1022 46 l 1108 60 l 1108 194 l 792 194 q 783 201 783 194 l 783 232 m 96 596 q 115 610 103 608 q 122 610 118 610 q 144 599 135 610 q 163 572 154 589 l 164 567 q 235 497 194 517 q 321 476 276 476 q 444 514 396 476 q 493 614 493 551 q 484 662 493 635 q 453 710 475 689 q 426 726 446 714 q 369 746 406 739 q 263 756 332 756 q 253 761 253 756 l 253 807 q 263 813 253 813 q 334 821 297 813 q 401 846 371 829 q 449 885 431 863 q 468 938 468 908 q 456 994 468 972 q 423 1027 443 1015 q 376 1043 403 1039 q 319 1047 349 1047 q 240 1028 279 1047 q 182 954 201 1008 l 178 942 q 167 922 174 931 q 139 914 161 914 q 119 926 126 914 q 113 953 113 939 q 113 958 113 956 q 128 1006 114 981 q 169 1052 143 1031 q 234 1088 196 1074 q 321 1103 272 1103 q 422 1090 381 1103 q 490 1053 464 1076 q 528 1000 517 1031 q 539 933 539 969 q 506 851 539 889 q 419 792 472 813 q 472 769 446 783 q 519 735 499 756 q 553 685 540 714 q 567 619 567 657 q 546 529 567 567 q 491 467 525 492 q 412 430 457 442 q 318 418 367 418 q 217 435 260 418 q 148 476 175 453 q 108 523 121 499 q 92 560 94 547 q 90 572 90 567 q 96 596 90 586 m 346 -8 l 989 1110 q 996 1113 992 1113 l 1067 1113 q 1076 1107 1076 1113 q 1075 1103 1076 1106 l 431 -14 q 422 -17 425 -17 l 353 -17 q 346 -15 347 -17 q 344 -11 344 -12 q 346 -8 344 -10 m 872 250 l 1108 250 l 1107 571 l 872 250 z "},"¿":{"ha":758,"x_min":56,"x_max":665,"o":"m 64 -90 q 81 -44 71 -64 q 103 -8 92 -24 q 124 15 115 7 l 172 63 q 228 116 201 89 q 274 171 254 143 q 305 231 293 199 q 317 300 317 263 q 325 306 317 306 l 369 306 q 378 300 378 306 q 368 224 376 256 q 346 165 360 192 q 313 116 332 139 q 269 68 293 93 l 213 3 q 171 -49 192 -17 q 150 -143 150 -81 q 171 -219 150 -189 q 224 -268 192 -250 q 294 -294 256 -286 q 369 -301 333 -301 q 450 -290 414 -301 q 512 -260 486 -279 q 552 -218 538 -242 q 571 -171 567 -194 q 572 -157 572 -164 q 571 -143 572 -151 q 567 -128 569 -135 l 560 -121 l 560 -122 q 546 -103 553 -115 q 539 -69 539 -92 q 555 -35 539 -50 q 590 -21 571 -21 q 610 -24 597 -21 q 635 -35 622 -26 q 656 -60 647 -43 q 665 -104 665 -76 q 649 -190 665 -146 q 595 -272 632 -235 q 502 -333 558 -308 q 367 -357 446 -357 q 139 -303 222 -357 q 56 -146 56 -250 q 64 -90 56 -115 m 268 581 q 292 638 268 615 q 351 661 317 661 q 410 638 386 661 q 433 581 433 615 q 410 526 433 549 q 351 503 386 503 q 292 526 317 503 q 268 581 268 549 z "},"À":{"ha":939,"x_min":-26,"x_max":947,"o":"m -26 36 q -18 42 -26 42 l 94 67 l 417 1022 q 425 1026 421 1026 l 461 1026 q 471 1022 467 1026 l 826 67 l 940 42 q 947 36 947 42 l 947 6 q 939 0 947 0 l 643 0 q 635 6 635 0 l 635 36 q 642 42 635 42 l 739 65 l 622 382 l 267 382 l 163 65 l 257 42 q 265 36 265 42 l 265 6 q 256 0 265 0 l -17 0 q -26 6 -26 0 l -26 36 m 286 439 l 601 439 l 436 889 l 286 439 m 288 1351 l 394 1351 q 403 1349 400 1351 l 508 1181 q 511 1178 511 1179 q 509 1174 511 1176 q 501 1172 507 1172 l 450 1172 l 282 1317 q 279 1321 279 1317 l 279 1346 q 288 1351 279 1351 z "},"Á":{"ha":939,"x_min":-26,"x_max":947,"o":"m -26 6 l -26 36 q -18 42 -26 42 l 94 67 l 417 1022 q 425 1026 421 1026 l 461 1026 q 471 1022 467 1026 l 826 67 l 940 42 q 947 36 947 42 l 947 6 q 939 0 947 0 l 643 0 q 635 6 635 0 l 635 36 q 642 42 635 42 l 739 65 l 622 382 l 267 382 l 163 65 l 257 42 q 265 36 265 42 l 265 6 q 256 0 265 0 l -17 0 q -26 6 -26 0 m 286 439 l 601 439 l 436 889 l 286 439 m 406 1181 l 514 1349 q 519 1351 517 1351 l 628 1351 q 636 1346 636 1351 l 636 1321 q 635 1319 636 1319 q 635 1318 635 1319 l 635 1317 l 465 1172 l 414 1172 q 404 1176 404 1172 q 406 1181 404 1178 z "},"Â":{"ha":939,"x_min":-26,"x_max":947,"o":"m -26 36 q -18 42 -26 42 l 94 67 l 417 1022 q 425 1026 421 1026 l 461 1026 q 471 1022 467 1026 l 826 67 l 940 42 q 947 36 947 42 l 947 6 q 939 0 947 0 l 643 0 q 635 6 635 0 l 635 36 q 642 42 635 42 l 739 65 l 622 382 l 267 382 l 163 65 l 257 42 q 265 36 265 42 l 265 6 q 256 0 265 0 l -17 0 q -26 6 -26 0 l -26 36 m 601 439 l 436 889 l 286 439 l 601 439 m 260 1204 l 390 1350 q 397 1351 392 1351 l 475 1351 q 482 1350 481 1351 l 611 1204 q 615 1200 615 1201 q 611 1196 615 1197 l 585 1167 q 578 1165 582 1165 q 572 1167 575 1165 l 435 1274 l 290 1167 q 285 1165 288 1165 q 279 1168 282 1165 l 258 1197 q 257 1200 257 1199 q 260 1204 257 1203 z "},"Ã":{"ha":939,"x_min":-26,"x_max":947,"o":"m -18 42 l 94 67 l 417 1022 q 425 1026 421 1026 l 461 1026 q 471 1022 467 1026 l 826 67 l 940 42 q 947 36 947 42 l 947 6 q 939 0 947 0 l 643 0 q 635 6 635 0 l 635 36 q 642 42 635 42 l 739 65 l 622 382 l 267 382 l 163 65 l 257 42 q 265 36 265 42 l 265 6 q 256 0 265 0 l -17 0 q -26 6 -26 0 l -26 36 q -18 42 -26 42 m 601 439 l 436 889 l 286 439 l 601 439 m 231 1236 q 262 1273 242 1253 q 309 1308 282 1293 q 368 1324 336 1324 q 403 1318 382 1324 q 474 1290 425 1313 q 521 1269 496 1279 q 563 1258 546 1258 q 608 1270 586 1258 q 646 1300 629 1282 l 653 1304 q 675 1317 665 1317 q 689 1311 686 1317 q 692 1303 692 1306 q 682 1281 692 1300 q 653 1241 672 1263 q 607 1202 635 1219 q 543 1185 579 1185 q 419 1225 496 1185 q 376 1244 400 1235 q 338 1254 353 1254 q 313 1249 332 1254 q 267 1218 293 1244 l 260 1213 q 238 1197 247 1197 q 218 1214 218 1197 q 231 1236 218 1218 z "},"Ä":{"ha":939,"x_min":-26,"x_max":947,"o":"m -26 6 l -26 36 q -18 42 -26 42 l 94 67 l 417 1022 q 425 1026 421 1026 l 461 1026 q 471 1022 467 1026 l 826 67 l 940 42 q 947 36 947 42 l 947 6 q 939 0 947 0 l 643 0 q 635 6 635 0 l 635 36 q 642 42 635 42 l 739 65 l 622 382 l 267 382 l 163 65 l 257 42 q 265 36 265 42 l 265 6 q 256 0 265 0 l -17 0 q -26 6 -26 0 m 601 439 l 436 889 l 286 439 l 601 439 m 247 1257 q 268 1303 247 1283 q 317 1324 289 1324 q 367 1303 346 1324 q 388 1257 388 1283 q 366 1206 388 1225 q 317 1186 344 1186 q 268 1206 289 1186 q 247 1257 247 1226 m 507 1257 q 528 1304 507 1285 q 576 1324 549 1324 q 625 1303 606 1324 q 644 1257 644 1283 q 624 1206 644 1226 q 576 1186 604 1186 q 528 1206 549 1186 q 507 1257 507 1225 z "},"Å":{"ha":939,"x_min":-26,"x_max":947,"o":"m -26 36 q -18 42 -26 42 l 94 67 l 417 1022 q 425 1026 421 1026 l 461 1026 q 471 1022 467 1026 l 826 67 l 940 42 q 947 36 947 42 l 947 6 q 939 0 947 0 l 643 0 q 635 6 635 0 l 635 36 q 642 42 635 42 l 739 65 l 622 382 l 267 382 l 163 65 l 257 42 q 265 36 265 42 l 265 6 q 256 0 265 0 l -17 0 q -26 6 -26 0 l -26 36 m 601 439 l 436 889 l 286 439 l 601 439 m 319 1260 q 350 1306 331 1286 q 397 1336 369 1325 q 453 1347 424 1347 q 508 1336 482 1347 q 553 1306 533 1325 q 584 1260 572 1286 q 596 1204 596 1233 q 585 1150 596 1175 q 554 1106 574 1125 q 508 1075 535 1086 q 453 1064 482 1064 q 396 1075 422 1064 q 349 1106 369 1086 q 318 1151 329 1125 q 307 1204 307 1176 q 319 1260 307 1233 m 394 1146 q 453 1122 417 1122 q 510 1146 488 1122 q 533 1204 533 1169 q 510 1264 533 1240 q 453 1288 486 1288 q 395 1264 418 1288 q 372 1204 372 1240 q 394 1146 372 1169 z "},"Æ":{"ha":1363,"x_min":6,"x_max":1342,"o":"m 14 42 l 128 67 l 685 1006 q 686 1008 685 1007 q 696 1011 689 1011 l 1285 1011 q 1294 1007 1294 1011 l 1319 796 q 1315 789 1319 793 l 1281 775 q 1276 774 1279 774 q 1268 779 1272 774 l 1204 954 l 764 954 l 764 558 l 1078 558 l 1100 694 q 1110 699 1100 699 l 1147 699 q 1157 693 1157 699 l 1157 365 q 1147 358 1157 358 l 1110 358 q 1100 363 1100 358 l 1078 501 l 764 501 l 764 57 l 1239 57 q 1260 149 1249 103 q 1282 239 1271 194 q 1293 243 1283 243 l 1333 236 q 1342 231 1342 236 l 1322 6 q 1319 1 1322 3 q 1314 0 1317 0 l 558 0 q 550 6 550 0 l 550 36 q 557 42 550 42 l 685 65 l 685 382 l 383 382 l 194 65 l 288 42 q 296 36 296 42 l 296 6 q 286 0 296 0 l 15 0 q 6 6 6 0 l 6 36 q 14 42 6 42 m 685 439 l 685 882 l 418 439 l 685 439 z "},"Ç":{"ha":1042,"x_min":89,"x_max":993,"o":"m 89 497 q 129 728 89 629 q 235 894 169 828 q 385 995 300 961 q 560 1029 469 1029 q 726 1013 644 1029 q 868 974 808 997 q 874 968 874 974 l 921 811 q 921 810 921 810 q 914 804 921 807 l 882 792 q 878 790 879 790 q 872 794 874 790 q 856 825 865 808 q 837 858 847 842 q 815 890 826 875 q 789 915 803 906 q 685 960 749 947 q 561 974 621 974 q 508 969 543 974 q 428 948 472 964 q 339 901 385 932 q 256 817 293 869 q 195 685 219 764 q 171 497 171 607 q 203 304 171 389 q 289 161 235 219 q 413 72 343 103 q 561 42 483 42 q 647 53 607 42 q 723 83 688 64 q 788 124 758 101 q 840 172 817 147 q 935 304 896 229 q 940 307 938 307 q 946 306 943 307 l 989 278 q 993 274 993 276 q 992 271 993 272 q 590 -17 833 -3 l 565 -71 q 656 -107 625 -78 q 686 -181 686 -136 q 648 -261 686 -228 q 532 -294 610 -294 q 393 -256 457 -294 q 389 -251 389 -254 q 390 -249 389 -250 l 415 -206 q 421 -203 418 -203 q 426 -204 424 -203 q 525 -232 467 -232 q 590 -217 569 -232 q 610 -178 610 -203 q 581 -129 610 -140 q 524 -118 551 -118 q 504 -119 514 -118 q 501 -119 503 -119 q 497 -118 499 -118 l 481 -104 q 476 -100 476 -103 q 478 -97 476 -99 l 519 -15 q 377 18 453 -10 q 238 105 301 46 q 131 260 174 164 q 89 497 89 356 z "},"È":{"ha":957,"x_min":54,"x_max":890,"o":"m 54 36 q 63 42 54 42 l 188 65 l 188 946 l 63 968 q 54 975 54 968 l 54 1006 q 64 1011 54 1011 l 835 1011 q 843 1007 843 1011 l 869 796 q 864 789 869 790 l 829 775 q 825 774 826 774 q 818 779 819 774 l 754 954 l 269 954 l 269 558 l 626 558 l 650 694 q 658 699 650 699 l 696 699 q 706 693 706 699 l 706 365 q 696 358 706 358 l 658 358 q 650 363 650 358 l 626 501 l 269 501 l 269 57 l 788 57 l 810 149 q 831 239 821 194 q 842 243 832 243 l 882 236 q 890 231 890 236 l 871 6 q 863 0 871 0 l 64 0 q 54 6 54 0 l 54 36 m 279 1346 q 288 1351 279 1351 l 394 1351 q 403 1349 400 1351 l 508 1181 q 511 1178 511 1179 q 509 1174 511 1176 q 501 1172 507 1172 l 450 1172 l 282 1317 q 279 1321 279 1317 l 279 1346 z "},"É":{"ha":957,"x_min":54,"x_max":890,"o":"m 63 42 l 188 65 l 188 946 l 63 968 q 54 975 54 968 l 54 1006 q 64 1011 54 1011 l 835 1011 q 843 1007 843 1011 l 869 796 q 864 789 869 790 l 829 775 q 825 774 826 774 q 818 779 819 774 l 754 954 l 269 954 l 269 558 l 626 558 l 650 694 q 658 699 650 699 l 696 699 q 706 693 706 699 l 706 365 q 696 358 706 358 l 658 358 q 650 363 650 358 l 626 501 l 269 501 l 269 57 l 788 57 l 810 149 q 831 239 821 194 q 842 243 832 243 l 882 236 q 890 231 890 236 l 871 6 q 863 0 871 0 l 64 0 q 54 6 54 0 l 54 36 q 63 42 54 42 m 407 1181 l 514 1349 q 521 1351 517 1351 l 628 1351 q 638 1346 638 1351 l 638 1321 q 635 1317 638 1317 l 465 1172 l 414 1172 q 407 1174 408 1172 q 406 1178 406 1176 q 407 1181 406 1179 z "},"Ê":{"ha":957,"x_min":54,"x_max":890,"o":"m 54 36 q 63 42 54 42 l 188 65 l 188 946 l 63 968 q 54 975 54 968 l 54 1006 q 64 1011 54 1011 l 835 1011 q 843 1007 843 1011 l 869 796 q 864 789 869 790 l 829 775 q 825 774 826 774 q 818 779 819 774 l 754 954 l 269 954 l 269 558 l 626 558 l 650 694 q 658 699 650 699 l 696 699 q 706 693 706 699 l 706 365 q 696 358 706 358 l 658 358 q 650 363 650 358 l 626 501 l 269 501 l 269 57 l 788 57 l 810 149 q 831 239 821 194 q 842 243 832 243 l 882 236 q 890 231 890 236 l 871 6 q 863 0 871 0 l 64 0 q 54 6 54 0 l 54 36 m 300 1204 l 431 1350 q 436 1351 432 1351 l 517 1351 q 522 1350 521 1351 l 651 1204 q 654 1200 654 1201 q 651 1196 654 1197 l 625 1167 q 619 1165 622 1165 q 613 1167 615 1165 l 475 1274 l 332 1167 q 325 1165 328 1165 q 318 1168 321 1165 l 299 1197 q 297 1200 297 1199 q 300 1204 297 1203 z "},"Ë":{"ha":957,"x_min":54,"x_max":890,"o":"m 63 42 l 188 65 l 188 946 l 63 968 q 54 975 54 968 l 54 1006 q 64 1011 54 1011 l 835 1011 q 843 1007 843 1011 l 869 796 q 864 789 869 790 l 829 775 q 825 774 826 774 q 818 779 819 774 l 754 954 l 269 954 l 269 558 l 626 558 l 650 694 q 658 699 650 699 l 696 699 q 706 693 706 699 l 706 365 q 696 358 706 358 l 658 358 q 650 363 650 358 l 626 501 l 269 501 l 269 57 l 788 57 l 810 149 q 831 239 821 194 q 842 243 832 243 l 882 236 q 890 231 890 236 l 871 6 q 863 0 871 0 l 64 0 q 54 6 54 0 l 54 36 q 63 42 54 42 m 297 1304 q 347 1324 317 1324 q 397 1303 376 1324 q 417 1257 417 1283 q 396 1206 417 1225 q 347 1186 375 1186 q 297 1206 318 1186 q 276 1257 276 1226 q 297 1304 276 1283 m 536 1257 q 558 1304 536 1285 q 607 1324 579 1324 q 655 1303 635 1324 q 675 1257 675 1283 q 654 1206 675 1226 q 607 1186 633 1186 q 558 1206 579 1186 q 536 1257 536 1225 z "},"Ì":{"ha":418,"x_min":33,"x_max":383,"o":"m 33 36 q 40 42 33 42 l 167 65 l 167 946 l 40 968 q 33 975 33 968 l 33 1006 q 43 1011 33 1011 l 374 1011 q 383 1006 383 1011 l 383 975 q 375 968 383 968 l 249 944 l 249 65 l 375 42 q 383 36 383 42 l 383 6 q 374 0 383 0 l 43 0 q 33 6 33 0 l 33 36 m 64 1321 l 64 1346 q 72 1351 64 1351 l 181 1351 q 188 1349 185 1351 l 293 1181 q 296 1178 296 1179 q 294 1174 296 1176 q 286 1172 292 1172 l 236 1172 l 67 1317 q 64 1321 64 1317 z "},"Í":{"ha":418,"x_min":33,"x_max":383,"o":"m 33 36 q 40 42 33 42 l 167 65 l 167 946 l 40 968 q 33 975 33 968 l 33 1006 q 43 1011 33 1011 l 374 1011 q 383 1006 383 1011 l 383 975 q 375 968 383 968 l 249 944 l 249 65 l 375 42 q 383 36 383 42 l 383 6 q 374 0 383 0 l 43 0 q 33 6 33 0 l 33 36 m 97 1181 l 203 1349 q 211 1351 206 1351 l 318 1351 q 326 1346 326 1351 l 326 1321 q 324 1317 326 1317 l 156 1172 l 104 1172 q 97 1174 99 1172 q 94 1178 94 1176 q 97 1181 94 1179 z "},"Î":{"ha":418,"x_min":33,"x_max":392,"o":"m 33 36 q 40 42 33 42 l 167 65 l 167 946 l 40 968 q 33 975 33 968 l 33 1006 q 43 1011 33 1011 l 374 1011 q 383 1006 383 1011 l 383 975 q 375 968 383 968 l 249 944 l 249 65 l 375 42 q 383 36 383 42 l 383 6 q 374 0 383 0 l 43 0 q 33 6 33 0 l 33 36 m 38 1204 l 167 1350 q 172 1351 168 1351 l 253 1351 q 258 1350 257 1351 l 389 1204 q 392 1200 392 1201 q 389 1196 392 1197 l 363 1167 q 356 1165 360 1165 q 350 1167 353 1165 l 213 1274 l 68 1167 q 61 1165 64 1165 q 54 1168 57 1165 l 36 1197 q 35 1200 35 1199 q 38 1204 35 1203 z "},"Ï":{"ha":418,"x_min":6,"x_max":404,"o":"m 33 6 l 33 36 q 40 42 33 42 l 167 65 l 167 946 l 40 968 q 33 975 33 968 l 33 1006 q 43 1011 33 1011 l 374 1011 q 383 1006 383 1011 l 383 975 q 375 968 383 968 l 249 944 l 249 65 l 375 42 q 383 36 383 42 l 383 6 q 374 0 383 0 l 43 0 q 33 6 33 0 m 26 1304 q 76 1324 47 1324 q 126 1303 106 1324 q 147 1257 147 1283 q 126 1206 147 1225 q 76 1186 104 1186 q 27 1206 49 1186 q 6 1257 6 1226 q 26 1304 6 1283 m 267 1257 q 288 1304 267 1285 q 336 1324 308 1324 q 384 1303 364 1324 q 404 1257 404 1283 q 384 1206 404 1226 q 336 1186 364 1186 q 288 1206 308 1186 q 267 1257 267 1225 z "},"Ð":{"ha":1100,"x_min":-53,"x_max":1026,"o":"m -53 476 l -53 525 q -44 531 -53 531 l 188 531 l 188 946 l 63 968 q 54 975 54 968 l 54 1006 q 64 1011 54 1011 l 422 1011 q 1026 507 1001 1011 q 439 1 1025 33 q 435 0 438 0 l 64 0 q 54 6 54 0 l 54 36 q 63 42 54 42 l 188 65 l 188 471 l -44 471 q -53 476 -53 471 m 269 531 l 610 531 q 619 526 619 531 q 619 524 619 525 l 606 475 q 596 471 603 471 l 269 471 l 269 57 l 417 57 q 674 101 583 69 q 817 182 760 133 q 908 313 874 231 q 943 507 943 396 q 910 701 943 619 q 818 832 876 783 q 753 878 786 858 q 682 914 721 899 q 422 954 601 946 l 269 954 l 269 531 z "},"Ñ":{"ha":1151,"x_min":67,"x_max":1079,"o":"m 67 1006 q 76 1011 67 1011 l 283 1011 q 290 1008 288 1011 l 893 89 l 893 944 l 767 968 q 758 975 758 968 l 758 1006 q 768 1011 758 1011 l 1071 1011 q 1079 1006 1079 1011 l 1079 975 q 1072 968 1079 968 l 956 944 l 956 6 q 946 0 956 0 l 872 0 q 864 3 867 0 l 251 921 l 251 65 l 372 42 q 381 36 381 42 l 381 6 q 371 0 381 0 l 76 0 q 67 6 67 0 l 67 36 q 74 42 67 42 l 189 65 l 189 944 l 74 968 q 67 975 67 968 l 67 1006 m 299 1214 q 310 1235 299 1218 q 341 1273 321 1253 q 389 1308 361 1293 q 449 1324 417 1324 q 483 1318 461 1324 q 554 1290 506 1313 q 601 1269 575 1279 q 643 1258 626 1258 q 688 1270 667 1258 q 726 1300 708 1282 l 733 1304 q 744 1313 739 1310 q 756 1317 749 1317 q 769 1311 767 1317 q 772 1303 772 1306 q 763 1281 772 1300 q 734 1241 753 1263 q 688 1202 715 1219 q 624 1185 660 1185 q 569 1194 597 1185 q 500 1225 540 1204 q 457 1244 481 1235 q 418 1254 433 1254 q 392 1249 411 1254 q 346 1218 374 1244 l 340 1213 q 318 1197 328 1197 q 299 1214 299 1197 z "},"Ò":{"ha":1029,"x_min":35,"x_max":988,"o":"m 35 508 q 70 717 35 621 q 168 882 106 813 q 318 990 231 951 q 510 1029 406 1029 q 701 990 614 1029 q 852 882 789 951 q 951 717 915 813 q 988 508 988 621 q 953 299 988 396 q 855 132 918 203 q 703 22 792 61 q 510 -18 615 -18 q 320 21 407 -18 q 170 129 233 60 q 71 296 107 199 q 35 508 35 393 m 143 328 q 222 179 171 243 q 347 78 274 115 q 510 42 419 42 q 675 78 601 42 q 799 179 749 115 q 878 328 850 243 q 906 508 906 413 q 877 688 906 603 q 797 835 849 772 q 672 936 744 899 q 510 974 599 974 q 349 936 422 974 q 224 835 276 899 q 144 688 172 772 q 115 508 115 603 q 143 328 115 413 m 356 1346 q 365 1351 356 1351 l 472 1351 q 481 1349 475 1351 l 586 1181 q 588 1178 588 1179 q 586 1174 588 1176 q 578 1172 585 1172 l 528 1172 l 358 1317 q 356 1321 356 1317 l 356 1346 z "},"Ó":{"ha":1029,"x_min":35,"x_max":988,"o":"m 35 508 q 70 717 35 621 q 168 882 106 813 q 318 990 231 951 q 510 1029 406 1029 q 701 990 614 1029 q 852 882 789 951 q 951 717 915 813 q 988 508 988 621 q 953 299 988 396 q 855 132 918 203 q 703 22 792 61 q 510 -18 615 -18 q 320 21 407 -18 q 170 129 233 60 q 71 296 107 199 q 35 508 35 393 m 115 508 q 143 328 115 413 q 222 179 171 243 q 347 78 274 115 q 510 42 419 42 q 675 78 601 42 q 799 179 749 115 q 878 328 850 243 q 906 508 906 413 q 877 688 906 603 q 797 835 849 772 q 672 936 744 899 q 510 974 599 974 q 349 936 422 974 q 224 835 276 899 q 144 688 172 772 q 115 508 115 603 m 476 1181 l 583 1349 q 590 1351 586 1351 l 697 1351 q 707 1346 707 1351 l 707 1321 q 704 1317 707 1317 l 536 1172 l 485 1172 q 476 1174 478 1172 q 475 1178 475 1176 q 476 1181 475 1179 z "},"Ô":{"ha":1029,"x_min":35,"x_max":988,"o":"m 35 508 q 70 717 35 621 q 168 882 106 813 q 318 990 231 951 q 510 1029 406 1029 q 701 990 614 1029 q 852 882 789 951 q 951 717 915 813 q 988 508 988 621 q 953 299 988 396 q 855 132 918 203 q 703 22 792 61 q 510 -18 615 -18 q 320 21 407 -18 q 170 129 233 60 q 71 296 107 199 q 35 508 35 393 m 143 328 q 222 179 171 243 q 347 78 274 115 q 510 42 419 42 q 675 78 601 42 q 799 179 749 115 q 878 328 850 243 q 906 508 906 413 q 877 688 906 603 q 797 835 849 772 q 672 936 744 899 q 510 974 599 974 q 349 936 422 974 q 224 835 276 899 q 144 688 172 772 q 115 508 115 603 q 143 328 115 413 m 336 1204 l 467 1350 q 472 1351 468 1351 l 551 1351 q 557 1350 556 1351 l 688 1204 q 690 1200 690 1201 q 688 1196 690 1197 l 660 1167 q 656 1165 658 1165 q 650 1167 653 1165 l 511 1274 l 368 1167 q 361 1165 364 1165 q 354 1168 357 1165 l 335 1197 q 333 1200 333 1199 q 336 1204 333 1203 z "},"Õ":{"ha":1029,"x_min":35,"x_max":988,"o":"m 71 717 q 168 882 106 813 q 318 990 231 951 q 510 1029 406 1029 q 701 990 614 1029 q 852 882 789 951 q 951 717 915 813 q 988 508 988 621 q 953 299 988 396 q 855 132 918 203 q 703 22 792 61 q 510 -18 615 -18 q 320 21 407 -18 q 170 129 233 60 q 71 296 107 199 q 35 508 35 393 q 71 717 35 621 m 143 328 q 222 179 171 243 q 347 78 274 115 q 510 42 419 42 q 675 78 601 42 q 799 179 749 115 q 878 328 850 243 q 906 508 906 413 q 877 688 906 603 q 797 835 849 772 q 672 936 744 899 q 510 974 599 974 q 349 936 422 974 q 224 835 276 899 q 144 688 172 772 q 115 508 115 603 q 143 328 115 413 m 300 1236 q 331 1273 311 1253 q 378 1308 351 1293 q 438 1324 406 1324 q 474 1319 451 1324 q 543 1290 497 1314 q 591 1269 565 1279 q 635 1258 617 1258 q 677 1270 656 1258 q 718 1300 699 1282 l 724 1304 q 746 1317 736 1317 q 760 1311 757 1317 q 763 1303 763 1306 q 753 1281 763 1300 q 724 1241 743 1263 q 678 1202 706 1219 q 615 1185 650 1185 q 559 1194 588 1185 q 490 1225 531 1204 q 447 1244 471 1235 q 408 1254 424 1254 q 383 1249 403 1254 q 336 1218 364 1244 l 331 1213 q 308 1197 315 1197 q 295 1202 301 1197 q 289 1214 289 1207 q 300 1236 289 1218 z "},"Ö":{"ha":1029,"x_min":35,"x_max":988,"o":"m 71 717 q 168 882 106 813 q 318 990 231 951 q 510 1029 406 1029 q 701 990 614 1029 q 852 882 789 951 q 951 717 915 813 q 988 508 988 621 q 953 299 988 396 q 855 132 918 203 q 703 22 792 61 q 510 -18 615 -18 q 320 21 407 -18 q 170 129 233 60 q 71 296 107 199 q 35 508 35 393 q 71 717 35 621 m 143 328 q 222 179 171 243 q 347 78 274 115 q 510 42 419 42 q 675 78 601 42 q 799 179 749 115 q 878 328 850 243 q 906 508 906 413 q 877 688 906 603 q 797 835 849 772 q 672 936 744 899 q 510 974 599 974 q 349 936 422 974 q 224 835 276 899 q 144 688 172 772 q 115 508 115 603 q 143 328 115 413 m 296 1257 q 315 1303 296 1283 q 365 1324 335 1324 q 415 1303 394 1324 q 435 1257 435 1283 q 414 1206 435 1225 q 365 1186 393 1186 q 316 1206 336 1186 q 296 1257 296 1226 m 576 1304 q 625 1324 597 1324 q 673 1303 653 1324 q 693 1257 693 1283 q 672 1206 693 1226 q 625 1186 651 1186 q 576 1206 597 1186 q 554 1257 554 1225 q 576 1304 554 1285 z "},"×":{"ha":1211,"x_min":182,"x_max":1019,"o":"m 185 138 l 553 504 l 185 872 q 182 878 182 875 q 185 881 182 879 l 225 918 q 232 921 228 921 q 238 918 235 921 l 601 554 l 965 918 q 972 922 968 921 q 978 918 975 921 l 1017 881 q 1019 876 1019 878 q 1017 872 1019 875 l 651 504 l 1017 138 q 1019 133 1019 136 q 1017 129 1019 132 l 978 90 q 972 88 975 88 q 965 90 968 88 l 601 456 l 238 90 q 232 89 235 89 q 225 90 228 89 l 185 129 q 182 133 182 132 q 185 138 182 135 z "},"Ø":{"ha":1029,"x_min":28,"x_max":997,"o":"m 63 717 q 160 882 97 813 q 311 990 224 951 q 503 1029 399 1029 q 662 1003 588 1029 q 796 928 736 976 l 910 1083 q 918 1086 913 1086 l 989 1086 q 996 1084 994 1086 q 997 1081 997 1082 q 996 1078 997 1079 l 849 876 q 945 713 911 807 q 979 508 979 619 q 944 299 979 396 q 847 132 910 203 q 696 22 783 61 q 503 -18 608 -18 q 366 2 431 -18 q 246 58 301 22 l 136 -92 q 129 -94 133 -94 l 60 -94 q 51 -92 53 -94 q 50 -87 50 -89 q 51 -85 50 -86 l 189 103 q 71 277 114 174 q 28 508 28 381 q 63 717 28 621 m 139 315 q 231 160 171 225 l 754 872 q 642 947 706 919 q 503 974 578 974 q 342 936 415 974 q 217 835 269 899 q 136 688 165 772 q 107 508 107 603 q 139 315 107 404 m 285 110 q 384 60 329 78 q 503 42 439 42 q 667 78 594 42 q 791 179 740 115 q 869 328 842 243 q 897 508 897 413 q 872 674 897 596 q 803 815 847 753 l 285 110 z "},"Ù":{"ha":1004,"x_min":-1,"x_max":997,"o":"m 7 1011 l 339 1011 q 349 1006 349 1011 l 349 975 q 340 968 349 968 l 214 944 l 214 340 q 230 213 214 268 q 282 121 246 157 q 374 65 318 85 q 511 46 429 46 q 647 63 583 46 q 757 122 711 79 q 811 210 792 157 q 831 343 831 264 l 831 946 l 735 968 q 726 975 726 968 l 726 1006 q 736 1011 726 1011 l 990 1011 q 997 1006 997 1011 l 997 975 q 992 968 997 968 l 893 946 l 893 340 q 870 195 893 261 q 806 85 847 129 q 685 9 758 36 q 510 -18 611 -18 q 215 85 307 -18 q 133 340 133 175 l 133 946 l 6 968 q -1 975 -1 968 l -1 1006 q 7 1011 -1 1011 m 332 1351 l 439 1351 q 447 1349 442 1351 l 553 1181 q 554 1178 554 1179 q 553 1174 554 1176 q 544 1172 551 1172 l 494 1172 l 325 1317 q 322 1321 322 1317 l 322 1346 q 332 1351 322 1351 z "},"Ú":{"ha":1004,"x_min":-1,"x_max":997,"o":"m 7 1011 l 339 1011 q 349 1006 349 1011 l 349 975 q 340 968 349 968 l 214 944 l 214 340 q 230 213 214 268 q 282 121 246 157 q 374 65 318 85 q 511 46 429 46 q 647 63 583 46 q 757 122 711 79 q 811 210 792 157 q 831 343 831 264 l 831 946 l 735 968 q 726 975 726 968 l 726 1006 q 736 1011 726 1011 l 990 1011 q 997 1006 997 1011 l 997 975 q 992 968 997 968 l 893 946 l 893 340 q 870 195 893 261 q 806 85 847 129 q 685 9 758 36 q 510 -18 611 -18 q 215 85 307 -18 q 133 340 133 175 l 133 946 l 6 968 q -1 975 -1 968 l -1 1006 q 7 1011 -1 1011 m 428 1181 l 536 1349 q 542 1351 539 1351 l 651 1351 q 658 1346 658 1351 l 658 1321 q 656 1317 658 1317 l 488 1172 l 436 1172 q 428 1174 429 1172 q 426 1178 426 1176 q 428 1181 426 1179 z "},"Û":{"ha":1004,"x_min":-1,"x_max":997,"o":"m 7 1011 l 339 1011 q 349 1006 349 1011 l 349 975 q 340 968 349 968 l 214 944 l 214 340 q 230 213 214 268 q 282 121 246 157 q 374 65 318 85 q 511 46 429 46 q 647 63 583 46 q 757 122 711 79 q 811 210 792 157 q 831 343 831 264 l 831 946 l 735 968 q 726 975 726 968 l 726 1006 q 736 1011 726 1011 l 990 1011 q 997 1006 997 1011 l 997 975 q 992 968 997 968 l 893 946 l 893 340 q 870 195 893 261 q 806 85 847 129 q 685 9 758 36 q 510 -18 611 -18 q 215 85 307 -18 q 133 340 133 175 l 133 946 l 6 968 q -1 975 -1 968 l -1 1006 q 7 1011 -1 1011 m 325 1204 l 456 1350 q 461 1351 457 1351 l 540 1351 q 546 1350 544 1351 l 676 1204 q 679 1200 679 1201 q 676 1196 679 1197 l 651 1167 q 644 1165 649 1165 q 639 1167 642 1165 l 501 1274 l 357 1167 q 351 1165 354 1165 q 343 1168 346 1165 l 324 1197 q 322 1200 322 1199 q 325 1204 322 1203 z "},"Ü":{"ha":1004,"x_min":-1,"x_max":997,"o":"m 7 1011 l 339 1011 q 349 1006 349 1011 l 349 975 q 340 968 349 968 l 214 944 l 214 340 q 230 213 214 268 q 282 121 246 157 q 374 65 318 85 q 511 46 429 46 q 647 63 583 46 q 757 122 711 79 q 811 210 792 157 q 831 343 831 264 l 831 946 l 735 968 q 726 975 726 968 l 726 1006 q 736 1011 726 1011 l 990 1011 q 997 1006 997 1011 l 997 975 q 992 968 997 968 l 893 946 l 893 340 q 870 195 893 261 q 806 85 847 129 q 685 9 758 36 q 510 -18 611 -18 q 215 85 307 -18 q 133 340 133 175 l 133 946 l 6 968 q -1 975 -1 968 l -1 1006 q 7 1011 -1 1011 m 326 1304 q 375 1324 346 1324 q 425 1303 406 1324 q 444 1257 444 1283 q 424 1206 444 1225 q 375 1186 403 1186 q 326 1206 347 1186 q 306 1257 306 1226 q 326 1304 306 1283 m 588 1304 q 636 1324 608 1324 q 684 1303 664 1324 q 704 1257 704 1283 q 683 1206 704 1226 q 636 1186 663 1186 q 587 1206 608 1186 q 565 1257 565 1225 q 588 1304 565 1285 z "},"Ý":{"ha":1025,"x_min":24,"x_max":1006,"o":"m 24 1006 q 33 1011 24 1011 l 386 1011 q 394 1006 394 1011 l 394 975 q 388 968 394 968 l 251 944 l 539 504 q 680 725 610 615 q 821 944 750 835 q 769 957 796 950 q 718 968 743 964 q 710 975 710 968 l 710 1006 q 719 1011 710 1011 l 997 1011 q 1006 1006 1006 1011 l 1006 975 q 999 968 1006 968 l 892 943 l 567 449 l 567 65 l 693 42 q 701 36 701 42 l 701 6 q 692 0 701 0 l 360 0 q 351 6 351 0 l 351 36 q 358 42 351 42 l 486 65 l 486 457 l 163 943 l 32 968 q 24 975 24 968 l 24 1006 m 407 1181 l 514 1349 q 521 1351 517 1351 l 628 1351 q 638 1346 638 1351 l 638 1321 q 635 1317 638 1317 l 465 1172 l 415 1172 q 407 1174 408 1172 q 406 1178 406 1176 q 407 1181 406 1179 z "},"Þ":{"ha":954,"x_min":85,"x_max":865,"o":"m 92 42 l 214 64 l 214 944 l 92 967 q 85 974 85 967 l 85 1007 q 94 1013 85 1013 l 408 1013 q 414 1011 411 1013 q 417 1007 417 1010 l 417 974 q 410 967 417 967 l 297 944 l 297 836 l 469 836 q 588 826 519 836 q 717 789 656 817 q 822 710 779 761 q 865 574 865 658 q 843 461 865 514 q 776 369 821 408 q 666 306 732 329 q 514 282 600 282 l 297 282 l 297 64 l 410 42 q 417 36 417 42 l 417 6 q 414 1 417 3 q 408 0 411 0 l 94 0 q 85 6 85 0 l 85 36 q 92 42 85 42 m 297 340 l 514 340 q 611 356 563 340 q 698 400 660 371 q 760 472 736 429 q 783 569 783 515 q 756 668 783 628 q 688 732 729 708 q 599 766 647 756 q 508 776 551 776 l 297 776 l 297 340 z "},"ß":{"ha":1038,"x_min":121,"x_max":835,"o":"m 121 7 l 121 38 q 129 43 121 43 l 215 64 l 215 788 q 236 901 215 851 q 294 984 257 950 q 382 1035 331 1018 q 494 1053 433 1053 q 640 1031 583 1053 q 728 975 696 1008 q 772 903 760 942 q 785 833 785 865 q 731 702 785 751 q 592 629 676 653 q 835 324 835 588 q 769 72 835 160 q 586 -15 704 -15 q 486 -4 528 -15 q 416 26 444 7 q 373 70 388 46 q 357 122 358 94 q 357 125 357 124 q 366 147 357 136 q 390 158 375 158 q 451 106 414 156 l 451 107 q 510 63 478 78 q 585 47 542 47 q 608 49 594 47 q 638 56 622 50 q 671 74 654 63 q 704 107 688 86 q 738 191 724 135 q 753 324 753 247 q 682 522 753 451 q 592 581 649 560 q 474 603 535 603 q 465 607 465 603 l 465 651 q 474 657 465 657 q 566 670 524 660 q 639 702 608 681 q 687 756 669 724 q 704 838 704 789 q 693 903 704 872 q 636 965 682 935 q 577 987 613 979 q 494 994 542 994 q 399 981 438 994 q 338 940 361 967 q 306 874 315 913 q 296 789 296 836 l 296 7 q 286 1 296 1 l 131 1 q 121 7 121 1 z "},"à":{"ha":701,"x_min":24,"x_max":678,"o":"m 24 157 q 47 235 24 192 q 133 318 71 279 q 238 366 176 344 q 351 399 299 388 q 390 406 368 403 q 436 413 413 410 q 482 419 460 417 q 521 425 504 422 l 521 460 q 503 535 521 506 q 458 583 486 565 q 395 608 431 600 q 322 615 360 615 q 124 510 196 615 q 100 485 113 494 q 76 476 88 476 q 74 476 75 476 q 51 513 51 479 q 73 569 51 540 q 135 621 94 597 q 222 660 174 647 q 322 674 269 674 q 528 616 454 674 q 601 467 601 558 l 601 83 q 628 38 601 46 q 644 39 635 38 q 660 43 653 40 q 664 44 663 44 q 672 39 669 44 l 678 14 q 674 6 678 7 q 614 -11 644 -11 q 606 -11 610 -11 q 551 3 574 -11 q 522 61 529 18 q 456 28 492 43 q 385 4 421 14 q 314 -11 349 -6 q 251 -17 279 -17 q 85 32 146 -17 q 24 157 24 81 m 119 104 q 157 67 133 81 q 210 49 181 54 q 267 43 239 43 q 335 50 300 43 q 406 69 371 57 q 470 94 440 81 q 521 122 500 108 l 521 376 q 351 343 428 363 q 219 298 274 324 q 134 240 164 272 q 104 165 104 207 q 119 104 104 128 m 181 1011 q 189 1017 181 1017 l 296 1017 q 303 1014 300 1017 l 408 847 q 411 844 411 846 q 409 841 411 843 q 401 839 407 839 l 351 839 l 183 982 q 181 988 181 982 l 181 1011 z "},"á":{"ha":701,"x_min":24,"x_max":678,"o":"m 47 236 q 133 318 71 279 q 238 366 176 344 q 351 399 299 388 q 390 406 368 403 q 436 413 413 410 q 482 419 460 417 q 521 425 504 422 l 521 460 q 503 535 521 506 q 458 583 486 565 q 395 608 431 600 q 322 615 360 615 q 124 510 196 615 q 100 485 113 494 q 76 476 88 476 q 74 476 75 476 q 51 513 51 479 q 73 569 51 540 q 135 621 94 597 q 222 660 174 647 q 322 674 269 674 q 528 616 454 674 q 601 467 601 558 l 601 83 q 628 38 601 46 q 644 39 635 38 q 660 43 653 40 q 664 44 663 44 q 672 39 669 44 l 678 14 q 674 6 678 7 q 614 -11 644 -11 q 606 -11 610 -11 q 551 3 574 -11 q 522 61 529 18 q 456 28 492 43 q 385 4 421 14 q 314 -11 349 -6 q 251 -17 279 -17 q 85 32 146 -17 q 24 157 24 81 q 47 236 24 192 m 104 165 q 119 104 104 128 q 157 67 133 81 q 210 49 181 54 q 267 43 239 43 q 335 50 300 43 q 406 69 371 57 q 470 94 440 81 q 521 122 500 108 l 521 376 q 351 343 428 363 q 219 298 274 324 q 134 240 164 272 q 104 165 104 207 m 304 847 l 410 1014 q 418 1017 413 1017 l 524 1017 q 533 1011 533 1017 l 533 988 q 529 982 533 982 l 363 839 l 313 839 q 304 841 306 839 q 303 844 303 843 q 304 847 303 846 z "},"â":{"ha":701,"x_min":24,"x_max":678,"o":"m 24 157 q 47 235 24 192 q 133 318 71 279 q 238 366 176 344 q 351 399 299 388 q 390 406 368 403 q 436 413 413 410 q 482 419 460 417 q 521 425 504 422 l 521 460 q 503 535 521 506 q 458 583 486 565 q 395 608 431 600 q 322 615 360 615 q 124 510 196 615 q 100 485 113 494 q 76 476 88 476 q 74 476 75 476 q 51 513 51 479 q 73 569 51 540 q 135 621 94 597 q 222 660 174 647 q 322 674 269 674 q 528 616 454 674 q 601 467 601 558 l 601 83 q 628 38 601 46 q 644 39 635 38 q 660 43 653 40 q 664 44 663 44 q 672 39 669 44 l 678 14 q 674 6 678 7 q 614 -11 644 -11 q 606 -11 610 -11 q 551 3 574 -11 q 522 61 529 18 q 456 28 492 43 q 385 4 421 14 q 314 -11 349 -6 q 251 -17 279 -17 q 85 32 146 -17 q 24 157 24 81 m 104 165 q 119 104 104 128 q 157 67 133 81 q 210 49 181 54 q 267 43 239 43 q 335 50 300 43 q 406 69 371 57 q 470 94 440 81 q 521 122 500 108 l 521 376 q 351 343 428 363 q 219 298 274 324 q 134 240 164 272 q 104 165 104 207 m 146 868 q 149 872 146 871 l 279 1015 q 285 1017 281 1017 l 363 1017 q 368 1015 367 1017 l 499 872 q 501 867 501 869 q 499 863 501 864 l 471 833 q 464 832 468 832 q 458 833 461 832 l 322 940 l 181 833 q 175 832 178 832 q 167 836 169 832 l 147 864 q 146 868 146 865 z "},"ã":{"ha":701,"x_min":24,"x_max":678,"o":"m 24 157 q 47 235 24 192 q 133 318 71 279 q 238 366 176 344 q 351 399 299 388 q 390 406 368 403 q 436 413 413 410 q 482 419 460 417 q 521 425 504 422 l 521 460 q 503 535 521 506 q 458 583 486 565 q 395 608 431 600 q 322 615 360 615 q 124 510 196 615 q 100 485 113 494 q 76 476 88 476 q 74 476 75 476 q 51 513 51 479 q 73 569 51 540 q 135 621 94 597 q 222 660 174 647 q 322 674 269 674 q 528 616 454 674 q 601 467 601 558 l 601 83 q 628 38 601 46 q 644 39 635 38 q 660 43 653 40 q 664 44 663 44 q 672 39 669 44 l 678 14 q 674 6 678 7 q 614 -11 644 -11 q 606 -11 610 -11 q 551 3 574 -11 q 522 61 529 18 q 456 28 492 43 q 385 4 421 14 q 314 -11 349 -6 q 251 -17 279 -17 q 85 32 146 -17 q 24 157 24 81 m 104 165 q 119 104 104 128 q 157 67 133 81 q 210 49 181 54 q 267 43 239 43 q 335 50 300 43 q 406 69 371 57 q 470 94 440 81 q 521 122 500 108 l 521 376 q 351 343 428 363 q 219 298 274 324 q 134 240 164 272 q 104 165 104 207 m 129 906 q 160 942 140 922 q 208 976 181 961 q 267 992 235 992 q 302 988 281 992 q 371 960 324 983 q 418 938 393 949 q 460 926 443 926 q 504 939 483 926 q 543 971 525 951 l 550 975 q 560 981 556 978 q 572 985 565 985 q 585 980 582 985 q 588 974 588 975 q 578 952 588 971 q 549 912 568 933 q 503 873 531 890 q 440 856 476 856 q 386 865 415 856 q 318 894 357 874 q 275 914 299 904 q 236 924 251 924 q 212 919 231 924 q 165 889 193 914 l 147 871 q 138 867 143 867 q 124 872 131 867 q 118 883 118 876 q 129 906 118 888 z "},"ä":{"ha":701,"x_min":24,"x_max":678,"o":"m 24 157 q 47 235 24 192 q 133 318 71 279 q 238 366 176 344 q 351 399 299 388 q 390 406 368 403 q 436 413 413 410 q 482 419 460 417 q 521 425 504 422 l 521 460 q 503 535 521 506 q 458 583 486 565 q 395 608 431 600 q 322 615 360 615 q 124 510 196 615 q 100 485 113 494 q 76 476 88 476 q 74 476 75 476 q 51 513 51 479 q 73 569 51 540 q 135 621 94 597 q 222 660 174 647 q 322 674 269 674 q 528 616 454 674 q 601 467 601 558 l 601 83 q 628 38 601 46 q 644 39 635 38 q 660 43 653 40 q 664 44 663 44 q 672 39 669 44 l 678 14 q 674 6 678 7 q 614 -11 644 -11 q 606 -11 610 -11 q 551 3 574 -11 q 522 61 529 18 q 456 28 492 43 q 385 4 421 14 q 314 -11 349 -6 q 251 -17 279 -17 q 85 32 146 -17 q 24 157 24 81 m 119 104 q 157 67 133 81 q 210 49 181 54 q 267 43 239 43 q 335 50 300 43 q 406 69 371 57 q 470 94 440 81 q 521 122 500 108 l 521 376 q 351 343 428 363 q 219 298 274 324 q 134 240 164 272 q 104 165 104 207 q 119 104 104 128 m 396 956 q 444 975 417 975 q 494 955 474 975 q 514 907 514 935 q 493 859 514 879 q 444 839 472 839 q 397 857 418 839 q 375 907 375 875 q 396 956 375 935 m 139 956 q 188 975 158 975 q 236 955 215 975 q 257 907 257 935 q 235 858 257 876 q 188 839 214 839 q 139 859 160 839 q 118 907 118 879 q 139 956 118 935 z "},"å":{"ha":701,"x_min":24,"x_max":678,"o":"m 24 157 q 47 235 24 192 q 133 318 71 279 q 238 366 176 344 q 351 399 299 388 q 390 406 368 403 q 436 413 413 410 q 482 419 460 417 q 521 425 504 422 l 521 460 q 503 535 521 506 q 458 583 486 565 q 395 608 431 600 q 322 615 360 615 q 124 510 196 615 q 100 485 113 494 q 76 476 88 476 q 74 476 75 476 q 51 513 51 479 q 73 569 51 540 q 135 621 94 597 q 222 660 174 647 q 322 674 269 674 q 528 616 454 674 q 601 467 601 558 l 601 83 q 628 38 601 46 q 644 39 635 38 q 660 43 653 40 q 664 44 663 44 q 672 39 669 44 l 678 14 q 674 6 678 7 q 614 -11 644 -11 q 606 -11 610 -11 q 551 3 574 -11 q 522 61 529 18 q 456 28 492 43 q 385 4 421 14 q 314 -11 349 -6 q 251 -17 279 -17 q 85 32 146 -17 q 24 157 24 81 m 119 104 q 157 67 133 81 q 210 49 181 54 q 267 43 239 43 q 335 50 300 43 q 406 69 371 57 q 470 94 440 81 q 521 122 500 108 l 521 376 q 351 343 428 363 q 219 298 274 324 q 134 240 164 272 q 104 165 104 207 q 119 104 104 128 m 182 932 q 193 988 182 961 q 224 1033 204 1014 q 270 1063 244 1051 q 325 1074 296 1074 q 380 1063 354 1074 q 426 1033 406 1051 q 457 988 446 1014 q 468 932 468 961 q 457 878 468 903 q 426 834 446 853 q 381 804 407 815 q 325 793 354 793 q 269 804 296 793 q 224 834 243 815 q 193 878 204 853 q 182 932 182 904 m 246 932 q 269 874 246 899 q 325 849 292 849 q 382 874 358 849 q 406 932 406 899 q 381 992 406 968 q 325 1015 357 1015 q 269 992 293 1015 q 246 932 246 968 z "},"æ":{"ha":1313,"x_min":81,"x_max":1238,"o":"m 86 194 q 102 235 90 214 q 135 277 114 256 q 189 318 156 299 q 294 364 235 344 q 407 394 353 383 q 448 403 425 399 q 496 411 471 407 q 546 418 521 415 q 592 424 571 421 l 592 460 q 574 535 592 506 q 526 583 556 565 q 460 608 497 600 q 386 615 424 615 q 181 510 265 615 q 158 485 169 494 q 135 476 146 476 q 132 476 133 476 q 107 513 107 479 q 131 569 107 540 q 196 621 154 597 q 386 674 281 674 q 556 636 490 674 q 646 535 622 599 q 688 590 663 564 q 747 635 713 615 q 825 667 781 656 q 925 678 869 678 q 1060 651 1003 678 q 1156 581 1118 625 q 1213 482 1194 538 q 1232 367 1232 426 l 1232 333 q 1224 326 1232 326 l 668 326 q 733 118 671 189 q 925 47 794 47 q 1009 60 969 47 q 1082 92 1049 72 q 1141 135 1115 111 q 1182 182 1167 158 q 1189 185 1185 185 q 1196 183 1192 185 l 1233 157 q 1238 154 1238 156 q 1235 150 1238 151 q 1105 33 1186 79 q 924 -12 1024 -12 q 749 22 815 -12 q 647 114 683 56 q 506 17 585 50 q 343 -17 426 -17 q 152 26 224 -17 q 81 157 81 69 q 86 194 81 175 m 161 165 q 177 104 161 128 q 219 67 193 81 q 278 49 246 54 q 343 43 310 43 q 480 71 415 43 q 592 135 544 99 l 592 376 q 418 344 497 364 q 282 299 339 325 q 193 240 225 274 q 161 165 161 207 m 669 383 l 1151 383 q 1137 472 1150 429 q 1097 549 1124 515 q 1027 601 1069 582 q 925 621 985 621 q 810 601 857 621 q 733 549 763 582 q 688 474 703 517 q 669 383 674 431 z "},"ç":{"ha":701,"x_min":22,"x_max":660,"o":"m 22 329 q 51 481 22 417 q 127 589 79 546 q 234 653 175 632 q 354 674 293 674 q 363 674 358 674 q 549 622 469 674 q 608 574 586 599 q 635 529 631 550 q 636 521 636 525 q 631 503 636 513 q 617 492 625 494 q 611 490 614 490 q 589 497 601 490 q 561 525 576 504 q 467 590 518 565 q 363 615 415 615 q 242 590 293 615 q 159 526 192 565 q 110 435 126 486 q 94 332 94 383 q 113 221 94 274 q 167 128 132 168 q 253 65 203 89 q 364 42 303 42 q 372 42 368 42 q 429 49 399 42 q 492 75 460 57 q 553 119 524 93 q 607 176 582 144 q 614 181 610 181 q 621 178 617 181 l 657 153 q 660 150 660 151 q 658 144 660 147 q 533 31 600 69 q 393 -15 465 -8 l 368 -69 q 458 -106 428 -76 q 489 -179 489 -135 q 450 -258 489 -225 q 335 -290 411 -290 q 199 -254 257 -290 q 193 -250 193 -253 q 196 -247 193 -249 l 218 -204 q 225 -201 221 -201 q 231 -203 228 -201 q 329 -229 272 -229 q 393 -215 372 -229 q 414 -176 414 -200 q 404 -146 414 -158 q 379 -126 394 -133 q 349 -119 364 -119 q 325 -118 335 -118 q 307 -118 317 -118 q 303 -117 306 -118 q 300 -117 301 -117 l 283 -103 q 282 -100 282 -101 q 283 -96 282 -97 l 322 -14 q 198 23 253 -7 q 103 99 143 53 q 43 203 64 144 q 22 329 22 263 z "},"è":{"ha":724,"x_min":28,"x_max":675,"o":"m 42 442 q 92 551 54 499 q 194 638 129 603 q 364 674 260 674 q 498 649 440 674 q 594 581 556 625 q 651 478 632 538 q 671 350 671 419 l 671 328 q 661 322 671 322 l 107 322 q 125 213 108 264 q 173 124 142 163 q 251 64 204 86 q 364 42 299 42 q 449 54 408 42 q 522 86 489 67 q 581 129 556 106 q 622 176 606 153 q 629 181 625 181 q 636 178 632 181 l 672 153 q 675 150 675 151 q 674 144 675 147 q 544 28 625 74 q 363 -17 463 -17 q 222 11 285 -17 q 117 87 160 39 q 51 199 74 135 q 28 338 28 264 q 42 442 28 383 m 590 378 q 530 549 588 483 q 364 615 472 615 q 256 596 301 615 q 178 544 210 576 q 131 469 147 513 q 108 378 114 425 l 590 378 m 249 1017 l 356 1017 q 363 1014 363 1017 l 468 847 q 469 844 469 846 q 468 841 469 843 q 460 839 467 839 l 410 839 l 242 982 q 239 988 239 982 l 239 1011 q 249 1017 239 1017 z "},"é":{"ha":724,"x_min":28,"x_max":675,"o":"m 28 338 q 41 441 28 383 q 92 551 54 499 q 194 638 129 603 q 364 674 260 674 q 498 649 440 674 q 594 581 556 625 q 651 478 632 538 q 671 350 671 419 l 671 328 q 661 322 671 322 l 107 322 q 125 213 108 264 q 173 124 142 163 q 251 64 204 86 q 364 42 299 42 q 449 54 408 42 q 522 86 489 67 q 581 129 556 106 q 622 176 606 153 q 629 181 625 181 q 636 178 632 181 l 672 153 q 675 150 675 151 q 674 144 675 147 q 544 28 625 74 q 363 -17 463 -17 q 222 11 285 -17 q 117 87 160 39 q 51 199 74 135 q 28 338 28 264 m 590 378 q 530 549 588 483 q 364 615 472 615 q 256 596 301 615 q 178 544 210 576 q 131 469 147 513 q 108 378 114 425 l 590 378 m 300 847 l 406 1014 q 414 1017 408 1017 l 519 1017 q 528 1011 528 1017 l 528 988 q 525 982 528 982 l 358 839 l 307 839 q 300 841 301 839 q 299 844 299 843 q 300 847 299 846 z "},"ê":{"ha":724,"x_min":28,"x_max":675,"o":"m 42 442 q 92 551 54 499 q 194 638 129 603 q 364 674 260 674 q 498 649 440 674 q 594 581 556 625 q 651 478 632 538 q 671 350 671 419 l 671 328 q 661 322 671 322 l 107 322 q 125 213 108 264 q 173 124 142 163 q 251 64 204 86 q 364 42 299 42 q 449 54 408 42 q 522 86 489 67 q 581 129 556 106 q 622 176 606 153 q 629 181 625 181 q 636 178 632 181 l 672 153 q 675 150 675 151 q 674 144 675 147 q 544 28 625 74 q 363 -17 463 -17 q 222 11 285 -17 q 117 87 160 39 q 51 199 74 135 q 28 338 28 264 q 42 442 28 383 m 590 378 q 530 549 588 483 q 364 615 472 615 q 256 596 301 615 q 178 544 210 576 q 131 469 147 513 q 108 378 114 425 l 590 378 m 190 872 l 319 1015 q 325 1017 321 1017 l 404 1017 q 410 1015 408 1017 l 539 872 q 542 867 542 869 q 539 863 542 864 l 511 833 q 507 832 510 832 q 501 833 504 832 l 364 940 l 221 833 q 217 832 218 832 q 208 836 213 832 l 189 864 q 188 868 188 865 q 190 872 188 871 z "},"ë":{"ha":724,"x_min":28,"x_max":675,"o":"m 42 442 q 92 551 54 499 q 194 638 129 603 q 364 674 260 674 q 498 649 440 674 q 594 581 556 625 q 651 478 632 538 q 671 350 671 419 l 671 328 q 661 322 671 322 l 107 322 q 125 213 108 264 q 173 124 142 163 q 251 64 204 86 q 364 42 299 42 q 449 54 408 42 q 522 86 489 67 q 581 129 556 106 q 622 176 606 153 q 629 181 625 181 q 636 178 632 181 l 672 153 q 675 150 675 151 q 674 144 675 147 q 544 28 625 74 q 363 -17 463 -17 q 222 11 285 -17 q 117 87 160 39 q 51 199 74 135 q 28 338 28 264 q 42 442 28 383 m 108 378 l 590 378 q 530 549 588 483 q 364 615 472 615 q 256 596 301 615 q 178 544 210 576 q 131 469 147 513 q 108 378 114 425 m 161 907 q 181 955 161 935 q 231 975 201 975 q 280 955 260 975 q 300 907 300 935 q 279 858 300 876 q 231 839 258 839 q 182 859 203 839 q 161 907 161 879 m 419 907 q 440 955 419 935 q 489 975 461 975 q 537 955 517 975 q 557 907 557 935 q 536 859 557 879 q 489 839 515 839 q 440 857 461 839 q 419 907 419 875 z "},"ì":{"ha":440,"x_min":31,"x_max":392,"o":"m 46 36 q 53 42 46 42 l 179 65 l 179 582 l 78 582 q 69 589 69 582 l 69 619 q 76 625 69 625 l 249 643 q 258 638 258 643 l 258 65 l 385 42 q 392 36 392 42 l 392 7 q 383 1 392 1 l 54 1 q 46 7 46 1 l 46 36 m 31 988 l 31 1011 q 39 1017 31 1017 l 146 1017 q 153 1014 150 1017 l 258 847 q 261 844 261 846 q 259 841 261 843 q 251 839 257 839 l 201 839 l 33 982 q 31 988 31 982 z "},"í":{"ha":440,"x_min":46,"x_max":393,"o":"m 46 7 l 46 36 q 53 42 46 42 l 179 65 l 179 582 l 78 582 q 69 589 69 582 l 69 619 q 76 625 69 625 l 249 643 q 258 638 258 643 l 258 65 l 385 42 q 392 36 392 42 l 392 7 q 383 1 392 1 l 54 1 q 46 7 46 1 m 165 847 l 271 1014 q 279 1017 274 1017 l 385 1017 q 393 1011 393 1017 l 393 988 q 390 982 393 982 l 222 839 l 172 839 q 165 841 167 839 q 164 844 164 843 q 165 847 164 846 z "},"î":{"ha":440,"x_min":42,"x_max":394,"o":"m 53 42 l 179 65 l 179 582 l 78 582 q 69 589 69 582 l 69 619 q 76 625 69 625 l 249 643 q 258 638 258 643 l 258 65 l 385 42 q 392 36 392 42 l 392 7 q 383 1 392 1 l 54 1 q 46 7 46 1 l 46 36 q 53 42 46 42 m 42 868 q 44 872 42 871 l 172 1015 q 179 1017 174 1017 l 257 1017 q 264 1015 263 1017 l 392 872 q 394 867 394 869 q 392 863 394 864 l 367 833 q 360 832 364 832 q 354 833 357 832 l 218 940 l 74 833 q 69 832 71 832 q 63 836 65 832 l 43 864 q 42 867 42 865 q 42 868 42 867 z "},"ï":{"ha":440,"x_min":13,"x_max":408,"o":"m 46 36 q 53 42 46 42 l 179 65 l 179 582 l 78 582 q 69 589 69 582 l 69 619 q 76 625 69 625 l 249 643 q 258 638 258 643 l 258 65 l 385 42 q 392 36 392 42 l 392 7 q 383 1 392 1 l 54 1 q 46 7 46 1 l 46 36 m 33 956 q 82 975 54 975 q 131 955 111 975 q 151 907 151 935 q 131 858 151 876 q 82 839 110 839 q 33 859 54 839 q 13 907 13 879 q 33 956 13 935 m 271 907 q 292 955 271 935 q 340 975 313 975 q 388 955 368 975 q 408 907 408 935 q 388 859 408 879 q 340 839 367 839 q 292 857 313 839 q 271 907 271 875 z "},"ð":{"ha":750,"x_min":50,"x_max":690,"o":"m 76 499 q 145 608 101 564 q 246 676 189 653 q 365 699 303 699 q 435 687 400 699 q 501 658 471 675 q 556 624 532 642 q 593 597 581 607 q 540 718 582 649 q 433 853 497 788 l 408 874 l 218 771 q 214 769 215 769 q 206 774 210 769 l 185 811 q 183 815 183 814 q 188 821 183 819 l 357 913 q 270 965 317 940 q 172 1006 224 990 q 167 1011 167 1008 q 167 1013 167 1011 l 182 1050 q 186 1054 183 1053 q 192 1056 189 1056 q 194 1056 193 1056 q 312 1012 256 1040 q 419 946 368 983 l 592 1039 q 594 1040 593 1040 q 603 1035 599 1040 l 624 999 q 625 994 625 996 q 621 990 625 992 l 468 907 l 517 861 q 646 658 601 772 q 690 413 690 543 q 664 214 690 296 q 593 81 638 132 q 491 8 549 31 q 371 -15 433 -15 q 236 10 296 -15 q 135 82 176 35 q 72 195 93 129 q 50 344 50 261 q 76 499 50 432 m 149 222 q 197 126 165 167 q 272 64 228 86 q 369 42 315 42 l 371 42 q 489 88 436 51 q 533 125 511 103 q 571 179 554 147 q 598 253 588 211 q 608 349 608 294 q 587 471 608 417 q 531 563 565 525 q 453 620 496 600 q 367 640 410 640 q 266 617 310 640 q 192 554 222 594 q 146 460 161 514 q 131 343 131 406 q 149 222 131 278 z "},"ñ":{"ha":831,"x_min":11,"x_max":818,"o":"m 11 7 l 11 36 q 18 42 11 42 l 129 65 l 129 611 l 28 611 q 19 618 19 611 l 19 649 q 26 656 19 656 l 199 674 q 208 668 208 674 l 208 561 q 262 601 232 581 q 326 637 292 621 q 399 663 361 653 q 474 674 436 674 q 569 656 528 674 q 640 610 611 639 q 683 543 668 581 q 697 464 697 506 l 697 65 l 810 42 q 818 36 818 42 l 818 7 q 808 1 818 1 l 508 1 q 500 7 500 1 l 500 36 q 507 42 500 42 l 618 65 l 618 444 q 612 502 618 472 q 590 557 606 532 q 546 599 574 582 q 474 615 518 615 q 413 608 446 615 q 344 585 379 600 q 274 547 310 569 q 208 493 239 524 l 208 65 l 319 42 q 326 36 326 42 l 326 7 q 319 1 326 1 l 19 1 q 11 7 11 1 m 185 906 q 215 942 196 922 q 262 976 235 961 q 321 992 289 992 q 358 988 335 992 q 426 960 381 983 q 474 938 449 949 q 517 926 499 926 q 559 939 538 926 q 600 971 581 951 l 606 975 q 615 981 611 978 q 626 985 619 985 q 640 980 638 985 q 643 974 643 975 q 633 952 643 971 q 606 912 624 933 q 560 873 588 890 q 497 856 532 856 q 442 865 472 856 q 374 894 413 874 q 331 914 354 904 q 292 924 308 924 q 267 919 286 924 q 221 889 247 914 l 215 882 q 203 871 208 875 q 192 867 199 867 q 178 872 185 867 q 172 883 172 876 q 185 906 172 888 z "},"ò":{"ha":711,"x_min":24,"x_max":682,"o":"m 24 328 q 49 465 24 401 q 118 574 74 528 q 223 647 163 621 q 353 674 283 674 q 483 647 422 674 q 588 574 543 621 q 657 465 632 528 q 682 328 682 401 q 657 192 682 254 q 588 83 632 129 q 483 10 543 36 q 353 -17 422 -17 q 223 10 283 -17 q 118 83 163 36 q 49 192 74 129 q 24 328 24 254 m 124 217 q 177 124 143 164 q 256 62 211 85 q 353 39 301 39 q 449 62 404 39 q 528 124 494 85 q 582 217 563 164 q 601 328 601 269 q 582 439 601 386 q 528 531 563 492 q 449 592 494 569 q 353 615 404 615 q 256 592 301 615 q 177 531 211 569 q 124 439 143 492 q 104 328 104 386 q 124 217 104 269 m 211 1011 q 218 1017 211 1017 l 325 1017 q 333 1014 331 1017 l 438 847 q 439 844 439 846 q 438 841 439 843 q 432 839 436 839 l 381 839 l 214 982 q 211 988 211 982 l 211 1011 z "},"ó":{"ha":711,"x_min":24,"x_max":682,"o":"m 24 328 q 49 465 24 401 q 118 574 74 528 q 223 647 163 621 q 353 674 283 674 q 483 647 422 674 q 588 574 543 621 q 657 465 632 528 q 682 328 682 401 q 657 192 682 254 q 588 83 632 129 q 483 10 543 36 q 353 -17 422 -17 q 223 10 283 -17 q 118 83 163 36 q 49 192 74 129 q 24 328 24 254 m 104 328 q 124 217 104 269 q 177 124 143 164 q 256 62 211 85 q 353 39 301 39 q 449 62 404 39 q 528 124 494 85 q 582 217 563 164 q 601 328 601 269 q 582 439 601 386 q 528 531 563 492 q 449 592 494 569 q 353 615 404 615 q 256 592 301 615 q 177 531 211 569 q 124 439 143 492 q 104 328 104 386 m 293 847 l 400 1014 q 407 1017 403 1017 l 514 1017 q 522 1011 522 1017 l 522 988 q 519 982 522 982 l 353 839 l 301 839 q 293 841 294 839 q 292 844 292 843 q 293 847 292 846 z "},"ô":{"ha":711,"x_min":24,"x_max":682,"o":"m 24 328 q 49 465 24 401 q 118 574 74 528 q 223 647 163 621 q 353 674 283 674 q 483 647 422 674 q 588 574 543 621 q 657 465 632 528 q 682 328 682 401 q 657 192 682 254 q 588 83 632 129 q 483 10 543 36 q 353 -17 422 -17 q 223 10 283 -17 q 118 83 163 36 q 49 192 74 129 q 24 328 24 254 m 104 328 q 124 217 104 269 q 177 124 143 164 q 256 62 211 85 q 353 39 301 39 q 449 62 404 39 q 528 124 494 85 q 582 217 563 164 q 601 328 601 269 q 582 439 601 386 q 528 531 563 492 q 449 592 494 569 q 353 615 404 615 q 256 592 301 615 q 177 531 211 569 q 124 439 143 492 q 104 328 104 386 m 171 868 q 174 872 171 871 l 303 1015 q 308 1017 304 1017 l 388 1017 q 393 1015 392 1017 l 522 872 q 525 867 525 869 q 522 863 525 864 l 497 833 q 490 832 494 832 q 485 833 488 832 l 349 940 l 206 833 q 200 832 203 832 q 192 836 196 832 l 172 864 q 171 868 171 865 z "},"õ":{"ha":711,"x_min":24,"x_max":682,"o":"m 49 465 q 118 574 74 528 q 223 647 163 621 q 353 674 283 674 q 483 647 422 674 q 588 574 543 621 q 657 465 632 528 q 682 328 682 401 q 657 192 682 254 q 588 83 632 129 q 483 10 543 36 q 353 -17 422 -17 q 223 10 283 -17 q 118 83 163 36 q 49 192 74 129 q 24 328 24 254 q 49 465 24 401 m 124 217 q 177 124 143 164 q 256 62 211 85 q 353 39 301 39 q 449 62 404 39 q 528 124 494 85 q 582 217 563 164 q 601 328 601 269 q 582 439 601 386 q 528 531 563 492 q 449 592 494 569 q 353 615 404 615 q 256 592 301 615 q 177 531 211 569 q 124 439 143 492 q 104 328 104 386 q 124 217 104 269 m 146 883 q 158 905 146 888 q 189 942 169 922 q 235 976 208 961 q 293 992 263 992 q 331 988 308 992 q 400 960 353 983 q 447 938 421 949 q 489 926 472 926 q 533 939 511 926 q 572 971 554 951 l 578 975 q 588 981 583 978 q 600 985 593 985 q 613 980 610 985 q 617 974 617 975 q 607 952 617 971 q 578 912 597 933 q 533 873 560 890 q 469 856 506 856 q 415 865 444 856 q 347 894 386 874 q 304 914 328 904 q 265 924 281 924 q 240 919 258 924 q 194 889 221 914 l 188 882 q 176 871 181 875 q 165 867 171 867 q 151 872 157 867 q 146 883 146 876 z "},"ö":{"ha":711,"x_min":24,"x_max":682,"o":"m 49 465 q 118 574 74 528 q 223 647 163 621 q 353 674 283 674 q 483 647 422 674 q 588 574 543 621 q 657 465 632 528 q 682 328 682 401 q 657 192 682 254 q 588 83 632 129 q 483 10 543 36 q 353 -17 422 -17 q 223 10 283 -17 q 118 83 163 36 q 49 192 74 129 q 24 328 24 254 q 49 465 24 401 m 124 217 q 177 124 143 164 q 256 62 211 85 q 353 39 301 39 q 449 62 404 39 q 528 124 494 85 q 582 217 563 164 q 601 328 601 269 q 582 439 601 386 q 528 531 563 492 q 449 592 494 569 q 353 615 404 615 q 256 592 301 615 q 177 531 211 569 q 124 439 143 492 q 104 328 104 386 q 124 217 104 269 m 410 907 q 431 955 410 935 q 481 975 451 975 q 528 955 508 975 q 549 907 549 935 q 528 859 549 879 q 481 839 507 839 q 431 857 453 839 q 410 907 410 875 m 151 907 q 172 955 151 935 q 221 975 193 975 q 270 955 250 975 q 290 907 290 935 q 269 858 290 876 q 221 839 249 839 q 172 859 193 839 q 151 907 151 879 z "},"÷":{"ha":1211,"x_min":82,"x_max":1122,"o":"m 82 474 l 82 528 q 90 535 82 535 l 1113 535 q 1122 528 1122 535 l 1122 474 q 1113 468 1122 468 l 90 468 q 82 474 82 468 m 535 204 q 603 231 565 231 q 671 203 643 231 q 701 138 701 175 q 694 99 701 118 q 672 66 686 81 q 642 44 658 51 q 611 38 626 38 q 600 38 606 38 q 529 67 556 39 q 503 133 503 96 q 535 204 503 178 m 535 938 q 603 964 565 964 q 671 935 643 964 q 701 871 701 904 q 673 803 701 833 q 601 774 644 774 q 530 801 557 774 q 503 869 503 829 q 535 938 503 910 z "},"ø":{"ha":711,"x_min":24,"x_max":701,"o":"m 49 465 q 118 574 74 528 q 223 647 163 621 q 353 674 283 674 q 453 658 406 674 q 542 613 501 642 l 625 724 q 633 726 628 726 l 692 726 q 700 724 699 726 q 701 721 701 722 q 700 718 701 719 l 590 571 q 658 463 633 525 q 682 328 682 401 q 657 192 682 254 q 588 83 632 129 q 483 10 543 36 q 353 -17 422 -17 q 263 -5 306 -17 q 183 29 219 7 l 101 -81 q 94 -83 99 -83 l 35 -83 q 27 -81 29 -83 q 25 -78 25 -79 q 28 -75 25 -76 l 133 67 q 53 181 82 114 q 24 328 24 249 q 49 465 24 401 m 104 328 q 124 217 104 269 q 176 125 143 165 l 501 558 q 432 600 469 585 q 353 615 394 615 q 256 592 301 615 q 177 531 211 569 q 124 439 143 492 q 104 328 104 386 m 222 82 q 353 39 281 39 q 449 62 404 39 q 528 124 494 85 q 582 217 563 164 q 601 328 601 269 q 586 426 601 379 q 544 510 571 472 l 222 82 z "},"ù":{"ha":817,"x_min":15,"x_max":813,"o":"m 15 624 l 15 654 q 24 660 15 660 l 204 660 q 214 654 214 660 l 214 231 q 220 172 214 203 q 242 116 226 142 q 285 74 257 90 q 357 57 313 57 q 482 87 413 57 q 622 182 551 117 l 622 596 l 511 618 q 504 624 504 618 l 504 654 q 514 660 504 660 l 693 660 q 703 654 703 660 l 703 67 l 804 67 q 813 60 813 67 l 813 31 q 806 24 813 24 l 633 1 q 622 7 622 1 l 622 110 q 570 71 599 90 q 508 36 542 51 q 436 11 474 21 q 357 1 399 1 q 268 19 308 1 q 197 65 228 36 q 150 131 167 93 q 133 208 133 168 l 133 596 l 22 618 q 15 624 15 618 m 219 988 l 219 1011 q 229 1017 219 1017 l 335 1017 q 342 1014 339 1017 l 449 847 q 450 844 450 846 q 449 841 450 843 q 440 839 447 839 l 390 839 l 222 982 q 219 988 219 982 z "},"ú":{"ha":817,"x_min":15,"x_max":813,"o":"m 15 654 q 24 660 15 660 l 204 660 q 214 654 214 660 l 214 231 q 220 172 214 203 q 242 116 226 142 q 285 74 257 90 q 357 57 313 57 q 482 87 413 57 q 622 182 551 117 l 622 596 l 511 618 q 504 624 504 618 l 504 654 q 514 660 504 660 l 693 660 q 703 654 703 660 l 703 67 l 804 67 q 813 60 813 67 l 813 31 q 806 24 813 24 l 633 1 q 622 7 622 1 l 622 110 q 570 71 599 90 q 508 36 542 51 q 436 11 474 21 q 357 1 399 1 q 268 19 308 1 q 197 65 228 36 q 150 131 167 93 q 133 208 133 168 l 133 596 l 22 618 q 15 624 15 618 l 15 654 m 303 847 l 407 1014 q 415 1017 410 1017 l 522 1017 q 532 1011 532 1017 l 532 988 q 528 982 532 982 l 360 839 l 310 839 q 303 841 304 839 q 301 844 301 843 q 303 847 301 846 z "},"û":{"ha":817,"x_min":15,"x_max":813,"o":"m 15 624 l 15 654 q 24 660 15 660 l 204 660 q 214 654 214 660 l 214 231 q 220 172 214 203 q 242 116 226 142 q 285 74 257 90 q 357 57 313 57 q 482 87 413 57 q 622 182 551 117 l 622 596 l 511 618 q 504 624 504 618 l 504 654 q 514 660 504 660 l 693 660 q 703 654 703 660 l 703 67 l 804 67 q 813 60 813 67 l 813 31 q 806 24 813 24 l 633 1 q 622 7 622 1 l 622 110 q 570 71 599 90 q 508 36 542 51 q 436 11 474 21 q 357 1 399 1 q 268 19 308 1 q 197 65 228 36 q 150 131 167 93 q 133 208 133 168 l 133 596 l 22 618 q 15 624 15 618 m 174 842 l 319 1015 q 325 1017 319 1017 l 404 1017 q 411 1015 410 1017 l 556 842 q 558 838 558 840 q 558 835 558 838 q 554 832 557 833 l 528 806 q 522 804 525 804 q 517 806 519 804 l 367 940 l 221 806 q 215 804 218 804 q 208 806 211 804 l 175 832 q 172 836 172 833 q 174 842 172 839 z "},"ü":{"ha":817,"x_min":15,"x_max":813,"o":"m 15 654 q 24 660 15 660 l 204 660 q 214 654 214 660 l 214 231 q 220 172 214 203 q 242 116 226 142 q 285 74 257 90 q 357 57 313 57 q 482 87 413 57 q 622 182 551 117 l 622 596 l 511 618 q 504 624 504 618 l 504 654 q 514 660 504 660 l 693 660 q 703 654 703 660 l 703 67 l 804 67 q 813 60 813 67 l 813 31 q 806 24 813 24 l 633 1 q 622 7 622 1 l 622 110 q 570 71 599 90 q 508 36 542 51 q 436 11 474 21 q 357 1 399 1 q 268 19 308 1 q 197 65 228 36 q 150 131 167 93 q 133 208 133 168 l 133 596 l 22 618 q 15 624 15 618 l 15 654 m 144 906 q 176 942 156 922 q 223 976 196 961 q 282 992 250 992 q 317 987 296 992 q 388 960 339 982 q 434 938 408 949 q 475 926 460 926 q 520 939 499 926 q 558 971 542 951 l 565 975 q 576 981 571 978 q 588 985 581 985 q 601 980 599 985 q 604 974 604 975 q 594 952 604 971 q 566 912 585 933 q 519 873 547 890 q 457 856 492 856 q 402 865 431 856 q 333 894 374 874 q 290 914 314 904 q 251 924 267 924 q 228 919 247 924 q 181 889 208 914 l 174 882 q 164 871 168 875 q 153 867 160 867 q 139 872 144 867 q 133 883 133 876 q 144 906 133 888 z "},"ý":{"ha":789,"x_min":-3,"x_max":783,"o":"m -3 654 q 6 660 -3 660 l 306 660 q 311 658 308 660 q 314 654 314 657 l 314 622 q 307 615 314 615 l 200 597 l 399 113 q 487 327 439 207 q 594 597 535 447 q 549 607 571 604 q 503 615 526 610 q 494 622 494 615 l 494 654 q 504 660 494 660 l 774 660 q 783 654 783 660 l 783 622 q 775 615 783 615 l 671 596 q 639 519 663 578 q 584 383 615 461 q 517 219 553 306 q 451 56 482 132 q 397 -74 419 -19 q 368 -143 374 -129 q 317 -217 346 -189 q 260 -262 289 -246 q 206 -283 232 -278 q 167 -289 181 -289 q 108 -286 138 -289 q 56 -274 79 -283 q 11 -244 24 -258 q -1 -212 -1 -231 q -1 -204 -1 -208 q 22 -173 3 -176 q 49 -169 40 -169 q 79 -176 65 -169 l 78 -176 q 114 -197 100 -186 l 119 -201 l 118 -201 q 146 -213 132 -210 q 171 -217 160 -217 q 301 -122 256 -215 l 300 -122 q 326 -59 311 -94 q 358 17 340 -24 l 115 593 l 4 615 q -3 622 -3 615 l -3 654 m 332 847 l 438 1014 q 444 1017 440 1017 l 551 1017 q 560 1011 560 1017 l 560 988 q 557 982 560 982 l 389 839 l 339 839 q 331 841 333 839 q 329 844 329 843 q 332 847 329 846 z "},"þ":{"ha":821,"x_min":3,"x_max":754,"o":"m 3 -233 q 10 -228 3 -228 l 119 -204 l 119 961 l 11 961 q 3 967 3 961 l 3 993 q 10 999 3 999 l 189 1017 q 200 1011 200 1017 l 200 611 q 244 631 218 619 q 301 651 271 642 q 362 667 331 661 q 424 674 393 674 q 530 655 472 674 q 638 594 588 636 q 721 484 688 551 q 754 321 754 417 q 718 149 754 215 q 630 47 682 83 q 520 -3 578 10 q 421 -17 463 -17 q 362 -11 393 -17 q 301 3 331 -6 q 246 21 272 11 q 200 39 219 31 l 200 -204 q 254 -216 226 -211 q 308 -228 282 -221 q 317 -233 317 -228 l 317 -264 q 307 -269 317 -269 l 11 -269 q 3 -264 3 -269 l 3 -233 m 200 111 q 239 89 215 101 q 292 65 263 76 q 354 47 321 54 q 424 39 388 39 q 507 57 463 39 q 588 110 551 75 q 649 199 625 146 q 674 321 674 251 q 649 456 674 400 q 586 548 624 513 q 505 599 549 583 q 424 615 461 615 q 356 608 389 615 q 293 592 322 601 q 240 571 264 582 q 200 551 217 560 l 200 111 z "},"ÿ":{"ha":789,"x_min":-3,"x_max":783,"o":"m -3 622 l -3 654 q 6 660 -3 660 l 306 660 q 311 658 308 660 q 314 654 314 657 l 314 622 q 307 615 314 615 l 200 597 l 399 113 q 487 327 439 207 q 594 597 535 447 q 549 607 571 604 q 503 615 526 610 q 494 622 494 615 l 494 654 q 504 660 494 660 l 774 660 q 783 654 783 660 l 783 622 q 775 615 783 615 l 671 596 q 639 519 663 578 q 584 383 615 461 q 517 219 553 306 q 451 56 482 132 q 397 -74 419 -19 q 368 -143 374 -129 q 317 -217 346 -189 q 260 -262 289 -246 q 206 -283 232 -278 q 167 -289 181 -289 q 108 -286 138 -289 q 56 -274 79 -283 q 11 -244 24 -258 q -1 -212 -1 -231 q -1 -204 -1 -208 q 22 -173 3 -176 q 49 -169 40 -169 q 79 -176 65 -169 l 78 -176 q 114 -197 100 -186 l 119 -201 l 118 -201 q 146 -213 132 -210 q 171 -217 160 -217 q 301 -122 256 -215 l 300 -122 q 326 -59 311 -94 q 358 17 340 -24 l 115 593 l 4 615 q -3 622 -3 615 m 188 907 q 208 955 188 935 q 257 975 229 975 q 307 955 288 975 q 326 907 326 935 q 306 858 326 876 q 257 839 285 839 q 208 859 229 839 q 188 907 188 879 m 468 956 q 517 975 488 975 q 565 955 544 975 q 585 907 585 935 q 564 859 585 879 q 517 839 543 839 q 468 857 489 839 q 447 907 447 875 q 468 956 447 935 z "},"ˇ":{"ha":496,"x_min":69,"x_max":426,"o":"m 71 992 l 90 1021 q 97 1024 93 1024 q 104 1022 100 1024 l 249 914 l 386 1022 q 390 1024 389 1024 q 396 1022 393 1024 l 424 993 q 426 989 425 992 q 424 983 425 986 l 293 839 q 288 838 292 838 l 208 838 q 203 839 204 838 l 72 983 q 69 988 69 985 q 71 992 69 990 z "},"ˉ":{"ha":594,"x_min":69,"x_max":525,"o":"m 79 865 l 517 865 q 525 860 525 865 l 525 803 q 517 797 525 797 l 79 797 q 69 803 69 797 l 69 860 q 79 865 69 865 z "},"˙":{"ha":278,"x_min":69,"x_max":208,"o":"m 69 926 q 90 974 69 954 q 140 994 111 994 q 188 974 168 994 q 208 926 208 954 q 188 878 208 899 q 140 858 167 858 q 91 876 113 858 q 69 926 69 894 z "},"Δ":{"ha":1389,"x_min":296,"x_max":1093,"o":"m 296 0 l 643 1017 l 738 1039 l 1093 0 l 296 0 m 374 88 l 967 88 l 671 961 l 374 88 z "},"Ω":{"ha":1389,"x_min":267,"x_max":1124,"o":"m 300 775 q 392 913 333 854 q 528 1006 450 972 q 696 1039 606 1039 q 860 1006 782 1039 q 996 915 938 974 q 1089 777 1054 857 q 1124 601 1124 697 q 1089 424 1124 497 q 1007 301 1054 350 q 910 224 960 253 q 829 182 860 196 l 822 93 l 968 93 q 1040 123 1008 93 q 1082 196 1072 153 l 1110 194 l 1083 0 l 767 0 l 786 211 q 849 248 810 224 q 925 317 888 272 q 990 431 963 361 q 1017 604 1017 501 q 996 758 1017 686 q 934 882 975 829 q 833 965 893 935 q 694 994 774 994 q 557 964 617 994 q 456 881 497 933 q 394 757 415 828 q 374 604 374 686 q 401 432 374 501 q 465 318 428 363 q 541 249 501 274 q 606 211 581 224 l 624 0 l 308 0 l 281 194 l 308 196 q 355 119 319 146 q 426 93 390 93 l 568 93 l 561 182 q 482 224 532 196 q 384 301 432 253 q 301 424 336 350 q 267 603 267 497 q 300 775 267 694 z "},"μ":{"ha":1389,"x_min":324,"x_max":1067,"o":"m 324 -110 q 325 -65 324 -94 q 329 8 326 -36 q 337 69 335 44 q 339 114 339 94 q 340 153 339 129 q 344 213 342 176 q 353 344 350 288 q 356 444 356 401 l 356 588 l 471 588 l 471 238 q 614 99 481 106 q 629 97 622 97 q 728 286 728 97 q 728 310 728 297 l 728 588 l 850 588 l 850 213 q 935 99 850 99 q 1029 207 1022 99 q 1050 243 1036 243 q 1054 244 1053 244 q 1067 207 1067 244 q 1065 181 1067 196 q 935 33 1065 33 q 929 33 932 33 q 786 156 818 33 q 617 33 750 33 q 614 33 615 33 q 611 33 613 33 q 446 144 499 33 l 440 144 q 442 99 440 125 q 446 39 443 74 q 450 -110 450 -49 q 450 -124 450 -117 q 397 -225 450 -225 q 388 -224 392 -225 q 376 -225 382 -225 q 324 -128 324 -225 q 324 -110 324 -119 z "},"π":{"ha":1389,"x_min":292,"x_max":1097,"o":"m 493 604 l 1097 604 l 1097 490 l 897 490 q 903 402 897 454 q 924 279 910 350 q 950 114 950 165 q 950 106 950 110 q 882 33 950 33 q 876 33 879 33 q 808 118 808 33 q 812 163 808 133 q 824 232 815 192 q 854 490 854 381 l 629 490 q 633 339 629 411 q 644 196 636 267 q 649 144 647 165 q 650 110 650 122 q 571 33 644 33 q 501 104 501 33 q 540 294 501 160 q 582 490 582 433 l 476 490 q 465 490 471 490 q 329 356 356 490 l 292 356 q 493 604 308 594 z "},"‐":{"ha":588,"x_min":69,"x_max":518,"o":"m 69 567 l 518 567 l 518 508 l 69 508 l 69 567 z "},"–":{"ha":1143,"x_min":69,"x_max":1074,"o":"m 69 567 l 1074 567 l 1074 508 l 69 508 l 69 567 z "},"—":{"ha":1389,"x_min":0,"x_max":1389,"o":"m 0 565 l 1389 565 l 1389 507 l 0 507 l 0 565 z "},"‘":{"ha":694,"x_min":256,"x_max":439,"o":"m 256 806 q 269 881 256 847 q 304 944 282 915 q 355 999 326 974 q 414 1050 383 1025 l 439 1019 q 380 965 403 986 q 346 914 357 943 q 343 899 343 906 q 349 883 343 890 q 365 874 356 876 q 406 857 392 868 q 428 833 421 846 q 437 806 435 819 q 439 782 439 793 q 410 720 439 740 q 351 700 382 700 q 283 727 311 700 q 256 806 256 754 z "},"’":{"ha":694,"x_min":256,"x_max":439,"o":"m 256 706 q 313 760 292 739 q 349 811 335 781 q 353 828 353 821 q 346 842 353 835 q 329 851 339 849 q 288 868 303 857 q 266 892 274 879 q 257 919 258 906 q 256 943 256 932 q 284 1005 256 985 q 343 1025 313 1025 q 411 998 383 1025 q 439 919 439 971 q 426 844 439 878 q 390 781 413 810 q 340 726 368 751 q 281 675 311 700 l 256 706 z "},"•":{"ha":1389,"x_min":561,"x_max":826,"o":"m 561 482 q 599 576 561 538 q 693 614 638 614 q 788 576 750 614 q 826 482 826 539 q 789 386 826 424 q 693 349 751 349 q 599 387 636 349 q 561 482 561 425 z "},"ı":{"ha":440,"x_min":46,"x_max":392,"o":"m 46 36 q 53 42 46 42 l 179 65 l 179 582 l 78 582 q 69 589 69 582 l 69 619 q 76 625 69 625 l 249 643 q 258 638 258 643 l 258 65 l 385 42 q 392 36 392 42 l 392 7 q 383 1 392 1 l 54 1 q 46 7 46 1 l 46 36 z "},"Ł":{"ha":874,"x_min":-33,"x_max":854,"o":"m -33 318 l -33 376 l -31 382 l 188 569 l 188 946 l 63 968 q 54 975 54 968 l 54 1006 q 64 1011 54 1011 l 393 1011 q 403 1006 403 1011 l 403 975 q 394 968 403 968 l 268 944 l 268 639 l 422 772 q 428 774 425 774 q 434 773 431 774 q 438 767 438 772 l 438 708 q 435 704 438 707 l 268 560 l 268 57 l 738 57 l 803 232 q 810 238 804 238 q 814 236 811 238 l 847 224 q 854 217 854 221 l 828 4 q 819 0 828 0 l 64 0 q 54 6 54 0 l 54 36 q 63 42 54 42 l 188 65 l 188 490 l -18 313 q -24 311 -21 311 q -30 312 -26 311 q -33 318 -33 313 z "},"ł":{"ha":440,"x_min":24,"x_max":399,"o":"m 24 338 l 24 396 q 28 401 24 397 l 182 531 l 182 963 l 81 963 q 71 968 71 963 l 71 999 q 79 1006 71 1006 l 251 1024 q 263 1017 263 1024 l 263 597 l 383 699 q 390 701 386 701 q 395 701 392 701 q 399 694 399 700 l 399 638 q 394 632 399 636 l 263 521 l 263 65 l 388 42 q 394 36 394 42 l 394 7 q 386 1 394 1 l 57 1 q 49 7 49 1 l 49 36 q 56 42 49 42 l 182 65 l 182 453 l 39 333 q 33 332 36 332 q 27 333 31 332 q 24 338 24 333 z "},"Œ":{"ha":1363,"x_min":78,"x_max":1275,"o":"m 118 726 q 223 887 157 824 q 374 981 289 950 q 550 1013 460 1013 l 572 1013 q 574 1012 574 1013 q 578 1011 575 1011 l 1217 1011 q 1226 1007 1226 1011 l 1254 796 q 1247 789 1254 792 l 1213 775 q 1210 775 1211 775 q 1204 776 1207 775 q 1201 779 1201 776 l 1138 954 l 757 954 l 757 558 l 1010 558 l 1033 694 q 1043 699 1033 699 l 1081 699 q 1089 693 1089 699 l 1089 365 q 1081 358 1089 358 l 1043 358 q 1033 363 1033 358 l 1010 501 l 757 501 l 757 57 l 1172 57 q 1193 149 1182 103 q 1214 239 1204 194 q 1225 243 1215 243 l 1267 236 q 1275 231 1275 236 l 1256 6 q 1246 0 1256 0 l 549 0 q 452 9 504 0 q 348 39 400 18 q 247 96 296 60 q 160 187 197 132 q 100 318 122 242 q 78 497 78 394 q 118 726 78 629 m 193 308 q 279 171 225 226 q 403 88 333 115 q 551 60 474 60 l 558 60 l 676 79 l 676 935 l 564 956 l 551 956 q 498 952 533 956 q 419 935 463 949 q 329 892 375 921 q 247 813 283 864 q 185 684 210 761 q 161 497 161 607 q 193 308 161 389 z "},"œ":{"ha":1343,"x_min":47,"x_max":1275,"o":"m 47 328 q 72 465 47 401 q 141 574 97 528 q 244 647 185 621 q 374 674 304 674 q 543 628 468 674 q 660 504 618 582 q 700 568 675 538 q 762 622 725 599 q 848 660 799 646 q 963 674 897 674 q 1103 649 1044 674 q 1199 582 1161 625 q 1253 482 1236 539 q 1271 361 1271 425 l 1271 328 q 1261 322 1271 322 l 707 322 q 724 213 708 264 q 772 124 740 163 q 850 64 803 86 q 963 42 897 42 q 1047 54 1007 42 q 1121 86 1088 67 q 1180 129 1154 106 q 1222 176 1206 153 q 1228 181 1225 181 q 1235 178 1231 181 l 1272 153 q 1275 150 1275 151 q 1274 144 1275 147 q 1143 28 1225 74 q 961 -17 1061 -17 q 781 32 856 -17 q 665 161 706 81 q 547 32 624 81 q 374 -17 471 -17 q 244 10 304 -17 q 141 83 185 36 q 72 192 97 129 q 47 328 47 254 m 147 217 q 199 124 165 164 q 277 62 232 85 q 374 39 322 39 q 472 62 426 39 q 551 124 518 85 q 604 217 585 164 q 624 328 624 269 q 604 439 624 386 q 551 531 585 492 q 472 592 518 569 q 374 615 426 615 q 277 592 322 615 q 199 531 232 569 q 147 439 165 492 q 128 328 128 386 q 147 217 128 269 m 708 378 l 1190 378 q 1133 549 1188 483 q 963 615 1078 615 q 844 596 892 615 q 768 544 797 576 q 726 469 739 513 q 708 378 713 425 z "},"Š":{"ha":843,"x_min":31,"x_max":775,"o":"m 38 232 l 76 242 q 85 239 83 242 q 128 153 107 190 q 178 97 150 117 q 223 75 194 85 q 285 58 251 65 q 353 47 318 51 q 415 43 388 43 q 533 60 481 43 q 621 103 585 76 q 676 166 657 131 q 696 240 696 201 q 672 342 696 304 q 606 413 647 381 q 553 444 586 428 q 483 476 519 461 q 409 505 446 492 q 346 528 372 518 l 319 538 q 265 558 294 546 q 207 587 236 571 q 151 621 178 603 q 107 658 125 639 q 66 723 79 688 q 53 796 53 758 q 76 894 53 850 q 144 968 100 938 q 252 1015 189 999 q 393 1032 315 1032 q 491 1024 440 1032 q 583 1004 542 1015 q 679 976 632 992 q 686 972 686 976 l 733 814 q 733 813 733 814 q 726 807 733 810 l 694 796 q 685 799 686 796 l 672 819 q 631 885 656 850 q 567 940 606 921 q 522 955 547 949 q 471 965 496 961 q 424 972 446 969 q 393 975 403 975 q 303 967 349 975 q 219 939 257 960 q 158 883 182 918 q 135 792 135 847 q 153 725 135 754 q 201 674 172 696 q 265 635 231 651 q 331 604 299 618 l 392 579 q 462 553 424 568 q 538 524 500 539 q 607 492 575 508 q 660 461 639 475 q 747 364 718 421 q 775 239 775 307 q 748 135 775 182 q 672 55 721 89 q 558 2 624 21 q 415 -17 492 -17 q 309 -10 361 -17 q 213 4 257 -4 q 135 22 168 13 q 85 40 101 32 q 81 46 81 40 l 31 225 q 38 232 31 229 m 257 1319 l 275 1349 q 283 1351 278 1351 q 289 1350 286 1351 l 433 1244 l 571 1350 q 576 1351 574 1351 q 583 1350 581 1351 l 608 1321 q 611 1318 611 1319 q 608 1313 611 1315 l 481 1167 q 474 1165 478 1165 l 393 1165 q 388 1167 389 1165 l 258 1313 q 256 1317 256 1314 q 257 1319 256 1318 z "},"š":{"ha":757,"x_min":118,"x_max":611,"o":"m 124 167 l 157 176 q 163 178 160 178 q 169 172 168 178 q 194 114 181 144 q 232 68 208 83 q 263 53 244 58 q 300 47 281 49 q 339 44 319 44 q 374 43 358 43 q 426 48 399 43 q 478 66 454 53 q 517 102 501 79 q 532 161 532 125 q 495 237 532 197 q 367 307 458 276 q 290 333 331 318 q 215 372 250 349 q 158 425 181 394 q 135 497 135 456 q 153 576 135 543 q 203 631 172 610 q 272 663 233 653 q 350 674 311 674 q 406 667 376 674 q 464 652 436 661 q 515 633 492 643 q 550 613 538 622 l 576 510 q 578 508 576 508 q 571 503 576 506 l 542 490 q 538 489 539 489 q 532 493 533 489 q 506 543 519 521 q 474 581 493 565 q 413 608 449 600 q 350 615 378 615 q 253 587 290 615 q 215 506 215 558 q 234 463 215 483 q 280 426 253 443 q 337 395 307 408 q 389 374 367 382 q 477 336 436 356 q 548 292 518 317 q 594 236 578 267 q 611 164 611 206 q 549 33 611 83 q 375 -17 486 -17 q 296 -10 335 -17 q 225 3 257 -4 q 154 22 189 11 q 149 26 149 22 l 118 160 q 118 161 118 160 q 124 167 118 164 m 188 985 l 207 1014 q 215 1017 210 1017 q 221 1015 218 1017 l 364 910 l 500 1015 q 506 1017 503 1017 q 511 1015 508 1017 l 538 988 q 540 982 539 985 q 538 978 539 981 l 408 833 q 403 832 407 832 l 324 832 q 318 833 319 832 l 189 978 q 186 982 186 979 q 188 985 186 983 z "},"Ÿ":{"ha":1025,"x_min":24,"x_max":1006,"o":"m 33 1011 l 386 1011 q 394 1006 394 1011 l 394 975 q 388 968 394 968 l 251 944 l 539 504 q 680 725 610 615 q 821 944 750 835 q 769 957 796 950 q 718 968 743 964 q 710 975 710 968 l 710 1006 q 719 1011 710 1011 l 997 1011 q 1006 1006 1006 1011 l 1006 975 q 999 968 1006 968 l 892 943 l 567 449 l 567 65 l 693 42 q 701 36 701 42 l 701 6 q 692 0 701 0 l 360 0 q 351 6 351 0 l 351 36 q 358 42 351 42 l 486 65 l 486 457 l 163 943 l 32 968 q 24 975 24 968 l 24 1006 q 33 1011 24 1011 m 353 1304 q 403 1324 374 1324 q 451 1303 431 1324 q 472 1257 472 1283 q 451 1206 472 1225 q 403 1186 429 1186 q 353 1206 375 1186 q 332 1257 332 1226 q 353 1304 332 1283 m 592 1257 q 613 1304 592 1285 q 661 1324 633 1324 q 710 1303 690 1324 q 731 1257 731 1283 q 710 1206 731 1226 q 661 1186 689 1186 q 613 1206 635 1186 q 592 1257 592 1225 z "},"Ž":{"ha":882,"x_min":43,"x_max":869,"o":"m 726 951 q 550 953 639 951 q 374 954 461 954 l 197 954 l 133 779 q 125 774 131 774 q 121 775 124 774 l 86 789 q 81 796 81 792 l 107 1007 q 117 1011 107 1011 l 826 1011 q 836 1006 836 1011 l 836 968 l 151 57 l 753 57 l 818 232 q 825 238 819 238 q 829 236 826 238 l 863 224 q 869 217 869 219 l 843 4 q 835 0 843 0 l 51 0 q 43 6 43 0 l 43 40 l 726 951 m 258 1319 l 279 1349 q 285 1351 282 1351 q 290 1350 288 1351 l 435 1244 l 572 1350 q 578 1351 575 1351 q 585 1350 582 1351 l 611 1321 q 615 1318 615 1319 q 611 1313 615 1315 l 482 1167 q 475 1165 481 1165 l 397 1165 q 390 1167 392 1165 l 260 1313 q 257 1317 257 1314 q 258 1319 257 1318 z "},"ž":{"ha":697,"x_min":54,"x_max":638,"o":"m 54 38 l 510 604 l 183 604 l 140 422 q 132 418 138 418 l 89 425 q 82 431 82 425 l 101 654 q 111 660 101 660 l 617 660 q 625 654 625 660 l 625 621 l 171 57 l 535 57 q 557 148 546 103 q 578 238 568 193 q 588 242 579 242 l 629 236 q 638 231 638 236 l 618 7 q 608 1 618 1 l 64 1 q 54 7 54 1 l 54 38 m 165 985 l 185 1014 q 192 1017 188 1017 q 199 1015 194 1017 l 340 910 l 476 1015 q 483 1017 479 1017 q 489 1015 486 1017 l 515 988 q 518 982 517 985 q 515 978 517 981 l 386 833 q 381 832 385 832 l 301 832 q 296 833 297 832 l 167 978 q 164 982 164 979 q 165 985 164 983 z "},"ƒ":{"ha":349,"x_min":-47,"x_max":419,"o":"m -36 22 q -6 29 -25 29 q 10 28 1 29 q 26 24 18 26 l 24 24 l 50 19 q 75 27 60 19 q 99 42 90 35 q 134 99 122 65 q 146 192 146 133 l 146 608 l 36 608 q 28 614 28 608 l 28 654 q 36 660 28 660 l 146 660 l 146 725 q 336 983 158 975 q 399 970 379 982 q 419 942 419 958 q 376 910 419 910 q 347 914 360 910 l 349 914 l 322 918 q 296 911 311 918 q 274 897 281 904 q 238 840 250 874 q 225 747 225 806 l 225 660 l 351 660 q 358 654 358 660 l 358 614 q 351 608 358 608 l 225 608 l 225 215 q 36 -46 213 -35 q -27 -32 -7 -44 q -47 -1 -47 -19 q -36 22 -47 14 z "},"ˆ":{"ha":496,"x_min":69,"x_max":426,"o":"m 72 876 l 203 1022 q 208 1024 204 1024 l 288 1024 q 293 1022 292 1024 l 424 876 q 426 871 425 874 q 424 867 425 869 l 396 839 q 390 838 393 838 q 386 839 389 838 l 249 944 l 104 839 q 97 838 100 838 q 90 840 93 838 l 71 869 q 69 872 69 871 q 72 876 69 875 z "},"˘":{"ha":496,"x_min":69,"x_max":426,"o":"m 71 992 l 90 1021 q 97 1024 93 1024 q 104 1022 100 1024 l 249 914 l 386 1022 q 390 1024 389 1024 q 396 1022 393 1024 l 424 993 q 426 989 425 992 q 424 983 425 986 l 293 839 q 288 838 292 838 l 208 838 q 203 839 204 838 l 72 983 q 69 988 69 985 q 71 992 69 990 z "},"˚":{"ha":426,"x_min":69,"x_max":357,"o":"m 81 994 q 112 1040 92 1021 q 158 1069 132 1058 q 215 1081 185 1081 q 270 1069 244 1081 q 315 1040 296 1058 q 346 994 335 1021 q 357 939 357 968 q 346 884 357 910 q 315 840 335 858 q 270 810 296 821 q 215 799 244 799 q 158 810 185 799 q 112 840 132 821 q 81 885 92 860 q 69 939 69 910 q 81 994 69 968 m 157 881 q 215 856 179 856 q 271 880 247 856 q 294 939 294 904 q 271 999 294 975 q 215 1024 247 1024 q 157 999 181 1024 q 133 939 133 975 q 157 881 133 904 z "},"˛":{"ha":406,"x_min":71,"x_max":336,"o":"m 71 1 q 157 151 75 89 l 211 151 q 219 149 218 151 q 221 144 221 146 q 218 140 221 142 q 139 19 142 76 q 140 -10 139 3 q 149 -31 142 -22 q 171 -43 157 -39 q 208 -47 185 -47 q 288 -11 260 -47 q 294 -8 290 -8 q 301 -10 297 -8 l 332 -37 q 336 -40 336 -39 q 335 -43 336 -42 q 332 -47 335 -44 q 194 -104 279 -104 q 96 -69 129 -104 q 71 -7 71 -44 q 71 1 71 -3 z "},"˜":{"ha":613,"x_min":69,"x_max":543,"o":"m 69 890 q 81 912 69 894 q 112 949 92 929 q 159 983 132 968 q 219 999 186 999 q 254 994 232 999 q 325 965 276 989 q 371 943 344 954 q 414 932 397 932 q 458 944 438 932 q 497 976 479 957 l 503 981 q 515 990 510 986 q 526 993 519 993 q 540 988 538 993 q 543 979 543 982 q 533 958 543 976 q 505 917 524 939 q 458 878 486 896 q 394 861 431 861 q 340 871 368 861 q 271 900 311 881 q 228 920 251 911 q 189 929 204 929 q 163 924 182 929 q 115 894 143 919 l 110 889 q 89 874 99 874 q 69 890 69 874 z "},"˝":{"ha":625,"x_min":71,"x_max":556,"o":"m 72 846 l 179 1014 q 186 1017 182 1017 l 294 1017 q 303 1011 303 1017 l 303 988 q 300 982 303 982 l 131 838 l 81 838 q 72 840 74 838 q 71 843 71 842 q 72 846 71 844 m 325 846 l 432 1014 q 439 1017 435 1017 l 547 1017 q 556 1011 556 1017 l 556 988 q 553 982 556 982 l 383 838 l 333 838 q 325 840 326 838 q 324 843 324 842 q 325 846 324 844 z "},"‚":{"ha":544,"x_min":142,"x_max":325,"o":"m 142 -64 q 200 -6 178 -31 q 235 56 222 19 q 238 71 238 64 q 231 86 238 79 q 215 96 225 93 q 174 113 189 101 q 152 137 160 124 q 143 163 144 150 q 142 188 142 176 q 170 249 142 229 q 229 269 199 269 q 297 242 269 269 q 325 164 325 215 q 312 86 325 122 q 276 18 299 50 q 226 -42 254 -14 q 167 -94 197 -69 l 142 -64 z "},"„":{"ha":808,"x_min":142,"x_max":589,"o":"m 142 189 q 170 251 142 231 q 229 271 199 271 q 297 244 269 271 q 325 165 325 217 q 312 88 325 124 q 276 19 299 51 q 226 -40 254 -12 q 167 -93 197 -68 l 142 -62 q 200 -4 178 -29 q 235 57 222 21 q 238 72 238 65 q 231 88 238 81 q 215 97 225 94 q 174 114 189 103 q 152 138 160 125 q 143 165 144 151 q 142 189 142 178 m 435 251 q 493 271 463 271 q 561 244 533 271 q 589 165 589 217 q 576 88 589 124 q 540 19 563 51 q 490 -40 518 -12 q 431 -93 461 -68 l 406 -62 q 464 -4 442 -29 q 499 57 486 21 q 501 72 501 65 q 495 88 501 81 q 479 97 489 94 q 438 114 453 103 q 416 138 424 125 q 407 165 408 151 q 406 189 406 178 q 435 251 406 231 z "},"…":{"ha":1389,"x_min":164,"x_max":1224,"o":"m 189 597 q 249 624 213 624 q 310 597 288 624 q 333 538 333 571 q 309 476 333 501 q 249 451 285 451 q 188 476 213 451 q 164 538 164 501 q 189 597 164 571 m 635 597 q 694 624 658 624 q 756 597 733 624 q 779 538 779 571 q 754 476 779 501 q 694 451 729 451 q 634 476 658 451 q 610 538 610 501 q 635 597 610 571 m 1056 538 q 1079 597 1056 571 q 1139 624 1103 624 q 1201 597 1178 624 q 1224 538 1224 571 q 1199 476 1224 501 q 1139 451 1175 451 q 1079 476 1103 451 q 1056 538 1056 501 z "},"†":{"ha":706,"x_min":86,"x_max":613,"o":"m 86 721 l 86 806 q 94 822 86 817 q 110 826 103 826 l 297 806 q 303 809 300 806 q 307 815 307 813 q 306 819 307 817 l 268 1082 q 274 1096 268 1089 q 286 1103 279 1103 l 399 1103 q 412 1096 406 1103 q 418 1082 418 1089 l 382 819 q 384 811 382 817 q 389 806 386 806 l 590 826 q 606 822 599 826 q 613 806 613 817 l 613 721 q 606 708 613 713 q 592 704 599 704 l 394 721 q 388 719 392 721 q 385 710 385 717 l 419 22 q 415 6 419 13 q 401 0 411 0 l 292 0 q 278 3 283 0 q 274 17 274 7 q 274 22 274 19 l 308 710 q 306 717 308 713 q 297 721 304 721 l 110 704 q 94 708 103 704 q 86 721 86 713 z "},"‡":{"ha":714,"x_min":86,"x_max":626,"o":"m 86 271 l 86 357 q 94 369 86 364 q 108 374 101 374 l 310 357 q 316 358 313 357 q 319 363 319 360 q 318 367 319 364 l 285 563 l 318 746 q 315 753 318 749 q 310 757 313 757 l 108 738 q 94 743 101 738 q 86 757 86 749 l 86 842 q 94 856 86 851 q 108 861 101 861 l 310 842 q 316 844 313 842 q 319 850 319 847 q 318 854 319 851 l 282 1089 q 287 1103 282 1096 q 299 1110 292 1110 l 410 1110 q 425 1103 419 1110 q 431 1089 431 1096 l 393 854 q 395 847 393 851 q 400 842 397 842 l 603 861 q 617 856 610 861 q 624 842 624 851 l 624 757 q 617 743 624 749 q 603 738 610 738 l 400 757 q 394 756 397 757 q 392 751 392 754 q 393 746 392 749 l 425 563 l 397 364 q 399 356 397 361 q 403 351 400 351 l 607 371 q 620 366 614 371 q 626 351 626 361 l 626 265 q 620 253 626 258 q 607 249 614 249 l 403 265 q 398 263 400 265 q 396 260 396 261 q 397 256 396 257 l 433 21 q 428 6 433 13 q 414 0 422 0 l 301 0 q 290 6 294 0 q 285 21 285 13 l 322 256 q 319 262 322 258 q 313 265 317 265 l 108 251 q 94 256 101 251 q 86 271 86 261 z "},"‰":{"ha":1396,"x_min":69,"x_max":1326,"o":"m 69 789 q 81 873 69 831 q 115 949 92 915 q 173 1005 138 983 q 258 1026 208 1026 q 397 960 347 1026 q 447 789 447 894 q 438 706 447 749 q 406 627 428 663 q 349 569 385 592 q 258 547 313 547 q 173 570 208 547 q 115 628 138 593 q 81 707 92 664 q 69 789 69 750 m 540 325 q 575 401 551 367 q 634 456 599 435 q 719 478 669 478 q 858 413 808 478 q 908 240 908 349 q 899 158 908 200 q 867 80 889 115 q 808 22 844 44 q 719 0 772 0 q 634 23 669 0 q 575 81 599 46 q 540 159 551 117 q 529 240 529 201 q 540 325 529 282 m 949 240 q 960 324 949 282 q 994 401 971 367 q 1052 456 1017 435 q 1136 478 1088 478 q 1276 413 1225 478 q 1326 240 1326 349 q 1317 158 1326 200 q 1285 80 1307 115 q 1227 22 1264 44 q 1136 0 1190 0 q 1052 23 1088 0 q 994 81 1017 46 q 960 159 971 117 q 949 240 949 201 m 176 8 l 732 1008 q 740 1011 735 1011 l 794 1011 q 804 1006 804 1011 q 803 1001 804 1004 l 254 3 q 246 0 251 0 l 185 0 q 175 4 175 0 q 176 8 175 6 m 1019 240 q 1024 178 1019 210 q 1042 119 1029 146 q 1078 76 1056 93 q 1136 60 1100 60 q 1197 78 1174 60 q 1232 123 1219 96 q 1249 181 1244 150 q 1254 240 1254 213 q 1249 303 1254 271 q 1231 361 1244 335 q 1194 403 1217 388 q 1136 419 1171 419 q 1076 401 1099 419 q 1040 356 1053 383 q 1024 298 1028 329 q 1019 240 1019 267 m 608 178 q 625 119 613 146 q 660 76 638 93 q 719 60 683 60 q 778 78 756 60 q 815 123 801 96 q 833 181 828 150 q 838 240 838 213 q 832 303 838 271 q 813 361 826 335 q 777 403 800 388 q 719 419 754 419 q 659 401 682 419 q 624 356 636 383 q 607 298 611 329 q 603 240 603 267 q 608 178 603 210 m 142 789 q 147 726 142 758 q 165 667 151 693 q 200 624 178 640 q 258 607 222 607 q 319 625 296 607 q 354 670 342 643 q 372 729 367 697 q 376 789 376 761 q 372 851 376 819 q 353 908 367 882 q 316 949 339 933 q 258 965 293 965 q 198 947 221 965 q 163 903 175 929 q 146 845 150 876 q 142 789 142 814 z "},"‹":{"ha":1389,"x_min":594,"x_max":793,"o":"m 793 367 l 744 299 l 594 507 l 744 718 l 793 650 l 692 508 l 793 367 z "},"“":{"ha":972,"x_min":263,"x_max":710,"o":"m 276 885 q 311 947 289 918 q 362 1002 333 976 q 421 1053 390 1028 l 446 1022 q 413 994 428 1006 q 388 971 399 982 q 367 947 376 960 q 353 917 358 935 q 350 901 350 908 q 356 886 350 893 q 372 876 363 879 q 413 860 399 871 q 435 835 428 849 q 444 809 442 822 q 446 785 446 796 q 417 723 446 743 q 358 703 389 703 q 290 730 318 703 q 263 808 263 757 q 276 885 263 850 m 526 808 q 540 884 526 850 q 575 947 553 918 q 626 1002 597 976 q 685 1053 654 1028 l 710 1022 q 677 994 692 1006 q 651 971 663 982 q 631 947 640 960 q 617 917 622 935 q 614 901 614 908 q 620 886 614 893 q 636 876 626 879 q 677 860 663 871 q 699 835 692 849 q 708 809 706 822 q 710 785 710 796 q 681 723 710 743 q 622 703 653 703 q 554 730 582 703 q 526 808 526 757 z "},"”":{"ha":972,"x_min":263,"x_max":710,"o":"m 263 706 q 294 734 281 722 q 317 758 307 746 q 337 782 328 769 q 356 811 346 794 q 361 828 360 819 q 353 841 360 833 q 336 851 346 849 q 295 868 310 857 q 273 892 281 879 q 264 919 265 906 q 263 943 263 932 q 291 1005 263 985 q 350 1025 319 1025 q 418 998 390 1025 q 446 919 446 971 q 433 844 446 878 q 397 781 419 810 q 347 726 375 751 q 288 675 318 700 l 263 706 m 556 1006 q 614 1025 583 1025 q 682 998 654 1025 q 710 919 710 971 q 697 844 710 878 q 661 781 683 810 q 610 726 639 751 q 551 675 582 700 l 526 706 q 558 733 544 722 q 581 756 571 744 q 601 779 592 767 q 619 811 610 792 q 625 828 624 821 q 617 842 624 835 q 600 851 610 849 q 559 868 574 857 q 537 892 544 879 q 528 919 529 906 q 526 943 526 932 q 556 1006 526 985 z "},"™":{"ha":1389,"x_min":272,"x_max":1115,"o":"m 642 979 l 642 1011 l 782 1011 l 883 742 q 931 877 907 810 q 981 1011 954 944 l 1115 1011 l 1115 979 l 1072 968 l 1072 674 l 1113 665 l 1113 632 l 958 632 l 958 664 l 1000 674 l 1000 972 l 876 632 l 849 632 l 719 976 l 719 674 l 758 664 l 758 632 l 642 632 l 642 664 l 686 674 l 686 968 l 642 979 m 272 929 l 282 1010 l 604 1010 l 614 929 l 581 919 l 556 967 l 492 967 l 492 674 l 538 664 l 538 631 l 349 631 l 349 664 l 394 674 l 394 967 l 331 967 l 306 919 l 272 929 z "},"›":{"ha":1389,"x_min":594,"x_max":793,"o":"m 793 507 l 643 299 l 594 367 l 696 508 l 594 650 l 643 718 l 793 507 z "},"µ":{"ha":854,"x_min":14,"x_max":818,"o":"m 14 628 l 14 658 q 22 664 14 664 l 204 664 q 214 658 214 664 l 214 231 q 220 172 214 203 q 242 116 226 142 q 286 74 258 90 q 358 57 314 57 q 483 88 414 57 q 625 183 553 118 l 625 599 l 514 622 q 506 628 506 622 l 506 658 q 515 664 506 664 l 697 664 q 707 658 707 664 l 707 67 l 808 67 q 818 60 818 67 l 818 31 q 810 24 818 24 l 636 0 q 625 6 625 0 l 625 110 q 573 71 601 90 q 510 35 544 51 q 438 10 476 19 q 358 0 400 0 q 278 13 315 0 q 214 50 242 26 l 214 -154 q 204 -161 214 -161 l 142 -161 q 133 -154 133 -161 l 133 599 l 21 622 q 14 628 14 622 z "},"·":{"ha":606,"x_min":189,"x_max":406,"o":"m 189 538 q 197 574 189 557 q 218 606 206 590 q 253 631 233 622 q 292 640 272 640 q 335 632 314 640 q 372 608 356 624 q 397 574 389 593 q 406 536 406 556 q 406 531 406 533 q 397 492 406 511 q 373 457 388 472 q 339 432 358 442 q 297 422 319 422 q 253 432 272 422 q 219 458 233 442 q 197 494 204 474 q 189 538 189 515 z "},"⁄":{"ha":1389,"x_min":500,"x_max":915,"o":"m 501 -194 l 828 1007 q 842 1010 831 1010 l 900 1010 q 911 1008 907 1010 q 915 1006 915 1007 q 914 1004 915 1006 l 585 -197 q 571 -200 582 -200 l 515 -200 q 504 -199 508 -200 q 500 -196 500 -197 q 501 -194 500 -196 z "},"∂":{"ha":1389,"x_min":393,"x_max":1024,"o":"m 415 389 q 478 526 436 464 q 581 628 519 588 q 722 668 642 668 q 847 643 789 668 q 936 556 904 618 l 936 608 q 929 719 936 663 q 900 822 922 775 q 837 898 878 868 q 728 928 796 928 q 642 917 682 928 q 563 883 601 907 l 563 956 q 651 986 606 975 q 743 997 696 997 q 879 966 825 997 q 965 884 933 935 q 1010 767 997 833 q 1024 631 1024 701 q 1014 500 1024 571 q 983 357 1004 429 q 931 217 963 285 q 853 97 899 150 q 749 13 808 44 q 615 -18 689 -18 q 515 3 557 -18 q 447 59 474 24 q 406 142 419 94 q 393 243 393 190 q 415 389 393 314 m 485 167 q 508 111 492 135 q 553 74 525 88 q 621 60 581 60 q 736 101 685 60 q 824 202 788 142 q 884 331 861 263 q 915 451 907 399 l 915 458 q 913 468 915 461 q 906 483 910 475 q 900 498 903 492 q 896 507 897 504 q 738 601 847 601 q 624 565 672 601 q 542 473 575 528 q 494 354 510 418 q 478 235 478 290 q 485 167 478 199 z "},"∏":{"ha":1389,"x_min":218,"x_max":1169,"o":"m 218 0 l 218 28 l 343 50 l 343 886 l 218 900 l 218 928 l 1169 928 l 1169 900 l 1044 886 l 1044 50 l 1169 28 l 1169 0 l 861 0 l 861 28 l 986 50 l 986 886 l 401 886 l 401 50 l 526 28 l 526 0 l 218 0 z "},"∑":{"ha":1389,"x_min":353,"x_max":1036,"o":"m 758 524 l 758 519 l 438 58 l 943 58 l 1004 208 l 1036 196 l 1011 0 l 353 0 l 353 19 l 697 507 l 367 908 l 367 928 l 997 928 l 1022 732 l 990 719 l 929 886 l 460 886 l 758 524 z "},"√":{"ha":1389,"x_min":139,"x_max":1251,"o":"m 139 382 l 336 478 l 532 117 l 1208 925 l 1251 918 l 492 1 l 272 392 l 164 339 l 139 382 z "},"∞":{"ha":1389,"x_min":269,"x_max":1114,"o":"m 269 450 q 326 592 269 536 q 465 654 383 647 q 478 654 471 654 q 572 632 528 654 q 653 565 615 610 l 688 522 q 735 584 713 558 q 801 632 758 610 q 897 654 843 654 q 910 654 903 654 q 999 631 957 651 q 1077 568 1040 611 q 1114 454 1114 525 q 1114 449 1114 451 q 1051 310 1110 368 q 914 249 992 251 q 900 249 907 249 q 790 281 843 249 q 715 347 738 313 l 685 386 q 645 336 668 365 q 578 278 622 307 q 468 249 533 249 q 416 251 460 249 q 321 312 372 253 q 269 450 269 371 m 332 453 q 372 355 332 394 q 441 313 413 315 q 474 311 469 311 q 568 349 522 311 q 631 418 601 372 l 654 454 q 565 559 606 528 q 496 591 524 590 q 468 592 468 592 q 374 551 415 592 q 332 457 332 510 q 332 453 332 454 m 757 399 q 817 342 775 368 q 901 317 858 317 q 914 317 907 317 q 1009 363 972 321 q 1047 431 1046 404 q 1047 458 1047 457 q 1003 548 1047 508 q 900 588 960 588 q 885 588 893 588 q 799 555 836 583 q 751 503 763 526 l 726 456 q 757 399 739 428 z "},"∫":{"ha":1389,"x_min":485,"x_max":904,"o":"m 515 -79 q 536 -82 526 -79 q 565 -87 546 -85 q 572 -89 568 -87 q 596 -81 582 -87 q 618 -65 610 -74 q 653 -9 642 -42 q 665 79 665 24 l 665 853 q 835 1090 678 1082 q 888 1079 871 1089 q 904 1056 904 1069 q 874 1032 904 1032 q 853 1035 863 1032 q 824 1040 843 1038 q 817 1042 821 1040 q 793 1033 807 1040 q 771 1018 779 1026 q 735 962 747 994 q 724 874 724 929 l 724 100 q 554 -137 711 -129 q 501 -126 518 -136 q 485 -103 485 -117 q 515 -79 485 -79 z "},"≈":{"ha":1389,"x_min":140,"x_max":1249,"o":"m 272 421 q 450 468 350 468 q 579 444 519 468 q 696 390 639 419 q 812 337 753 361 q 940 313 871 313 q 1083 350 1018 313 q 1192 450 1147 388 l 1249 413 q 1117 283 1194 331 q 939 236 1039 236 q 808 260 868 236 q 692 314 749 285 q 576 367 635 343 q 447 392 517 392 q 306 353 371 392 q 197 254 242 315 l 140 292 q 272 421 194 372 m 140 521 q 272 649 194 601 q 450 697 350 697 q 579 673 519 697 q 696 619 639 649 q 812 566 753 590 q 940 542 871 542 q 1083 579 1018 542 q 1192 679 1147 617 l 1249 642 q 1117 513 1194 560 q 939 465 1039 465 q 808 490 868 465 q 692 543 749 514 q 576 597 635 572 q 447 621 517 621 q 306 583 371 621 q 197 483 242 544 l 140 521 z "},"≠":{"ha":1389,"x_min":174,"x_max":1215,"o":"m 174 410 l 174 471 l 633 471 l 692 686 l 174 686 l 174 747 l 710 747 l 793 1057 l 854 1046 l 772 747 l 1215 747 l 1215 686 l 756 686 l 697 471 l 1215 471 l 1215 410 l 681 410 l 594 94 l 533 106 l 617 410 l 174 410 z "},"≤":{"ha":1389,"x_min":183,"x_max":1204,"o":"m 1188 906 l 1201 833 l 332 596 l 1201 357 l 1188 285 l 194 565 l 194 624 l 1188 906 m 204 385 l 1204 78 l 1179 4 l 183 315 l 204 385 z "},"≥":{"ha":1389,"x_min":183,"x_max":1204,"o":"m 201 906 l 1193 624 l 1193 565 l 201 285 l 186 357 l 1056 596 l 186 833 l 201 906 m 1183 385 l 1204 315 l 208 4 l 183 78 l 1183 385 z "},"◊":{"ha":1389,"x_min":240,"x_max":1147,"o":"m 690 56 l 974 532 l 690 1010 l 408 532 l 690 56 m 729 1217 l 1147 532 l 729 -151 l 658 -151 l 240 532 l 658 1217 l 729 1217 z "},"":{"ha":1389,"x_min":293,"x_max":1092,"o":"m 328 615 q 535 751 407 751 q 643 729 579 751 q 714 708 706 708 q 738 713 721 708 q 779 726 754 718 q 874 743 831 743 q 1060 657 968 743 q 1067 644 1065 650 q 1060 635 1065 639 q 960 468 960 563 q 992 364 963 410 q 1081 289 1021 318 q 1092 275 1092 285 q 1089 265 1092 271 q 864 26 968 26 q 829 31 849 26 q 786 43 810 36 q 744 55 763 50 q 714 60 726 60 q 639 39 693 60 q 595 24 614 29 q 563 18 576 18 q 347 249 447 18 q 293 472 293 361 q 328 615 293 558 m 701 754 q 716 825 706 792 q 742 882 726 858 q 876 961 778 940 q 882 963 879 963 q 892 957 886 963 q 897 944 897 951 q 887 859 897 894 q 858 801 876 824 q 803 760 839 778 q 721 732 767 743 q 717 731 718 731 q 706 736 711 731 q 701 750 701 742 q 701 754 701 753 z "},"":{"ha":843,"x_min":28,"x_max":794,"o":"m 28 653 q 36 658 28 658 l 147 658 l 147 764 q 201 954 153 890 q 336 1022 249 1018 q 399 1009 379 1021 q 419 981 419 997 q 376 949 419 949 q 347 953 361 949 l 349 953 l 322 957 q 297 950 311 957 q 274 936 282 943 q 238 878 250 913 q 225 786 225 844 l 225 658 l 351 658 q 360 653 360 658 l 360 613 q 351 607 360 607 l 225 607 l 225 64 l 353 40 q 360 35 360 40 l 360 6 q 351 0 360 0 l 36 0 q 28 6 28 0 l 28 35 q 35 40 28 40 l 147 64 l 147 607 l 36 607 q 28 613 28 607 l 28 653 m 449 6 l 449 35 q 456 40 449 40 l 582 64 l 582 581 l 481 581 q 472 588 472 581 l 472 618 q 479 624 472 624 l 651 642 q 661 636 661 642 l 661 64 l 788 40 q 794 35 794 40 l 794 6 q 786 0 794 0 l 457 0 q 449 6 449 0 m 542 906 q 562 953 542 933 q 610 974 582 974 q 658 953 638 974 q 679 906 679 933 q 658 860 679 879 q 610 840 638 840 q 562 860 582 840 q 542 906 542 879 z "},"":{"ha":843,"x_min":28,"x_max":797,"o":"m 36 657 l 147 657 l 147 764 q 201 954 153 890 q 336 1022 249 1018 q 399 1009 379 1021 q 419 981 419 997 q 376 949 419 949 q 347 953 361 949 l 349 953 l 322 957 q 297 950 311 957 q 274 936 282 943 q 238 878 250 913 q 225 786 225 844 l 225 657 l 351 657 q 360 651 360 657 l 360 611 q 351 606 360 606 l 225 606 l 225 64 l 353 40 q 360 35 360 40 l 360 6 q 351 0 360 0 l 36 0 q 28 6 28 0 l 28 35 q 35 40 28 40 l 147 64 l 147 606 l 36 606 q 28 611 28 606 l 28 651 q 36 657 28 657 m 451 35 q 458 40 451 40 l 585 64 l 585 961 l 483 961 q 475 967 475 961 l 475 997 q 482 1004 475 1004 l 654 1022 q 665 1015 665 1022 l 665 64 l 790 40 q 797 35 797 40 l 797 6 q 789 0 797 0 l 460 0 q 451 6 451 0 l 451 35 z "}," ":{"ha":401,"x_min":0,"x_max":0,"o":""},"Ғ":{"ha":882,"x_min":58,"x_max":872,"o":"m 58 507 l 58 553 q 67 558 58 558 l 190 558 l 190 946 l 65 968 q 60 975 60 968 l 60 1006 q 67 1011 60 1011 l 838 1011 q 846 1007 846 1011 l 872 796 q 865 789 872 792 l 832 775 q 828 774 829 774 q 821 779 822 774 l 756 954 l 272 954 l 272 558 l 629 558 l 653 694 q 661 699 653 699 l 700 699 q 708 693 708 699 l 708 365 q 700 358 708 358 l 661 358 q 653 363 653 358 l 629 501 l 272 501 l 272 65 l 400 42 q 406 36 406 42 l 406 6 q 399 0 406 0 l 67 0 q 60 6 60 0 l 60 36 q 65 42 60 42 l 190 65 l 190 501 l 67 501 q 58 507 58 501 z "},"ғ":{"ha":621,"x_min":58,"x_max":576,"o":"m 58 304 l 58 350 q 67 356 58 356 l 176 356 l 176 593 l 65 615 q 60 622 60 615 l 60 653 q 67 658 60 658 l 556 658 q 564 654 564 658 l 576 499 q 569 492 576 494 l 536 478 q 532 476 533 476 q 525 482 526 476 l 486 601 l 258 601 l 258 356 l 419 356 l 443 436 q 451 440 443 440 l 482 440 q 490 435 490 440 l 490 218 q 482 211 490 211 l 451 211 q 443 215 443 211 l 419 299 l 258 299 l 258 65 l 372 42 q 378 36 378 42 l 378 6 q 371 0 378 0 l 67 0 q 60 6 60 0 l 60 36 q 65 42 60 42 l 176 65 l 176 299 l 67 299 q 58 304 58 299 z "},"Ҙ":{"ha":763,"x_min":43,"x_max":721,"o":"m 51 150 l 81 175 q 93 181 89 181 q 99 178 96 181 q 110 169 103 176 q 171 122 136 140 q 240 91 206 103 q 304 74 274 79 q 354 69 335 69 q 461 85 410 69 q 552 127 513 100 q 615 191 592 154 q 639 271 639 228 q 615 367 639 326 q 551 433 590 407 q 465 474 513 460 q 369 493 417 489 q 355 501 361 494 q 349 515 349 507 l 349 529 q 372 556 349 543 q 449 585 410 567 q 522 630 489 604 q 576 688 556 656 q 597 761 597 721 q 535 887 594 836 q 363 938 475 938 q 269 918 324 938 q 161 838 214 899 q 149 827 153 828 q 146 826 146 826 q 131 832 140 826 l 101 853 q 94 867 94 860 q 96 874 94 868 q 103 890 97 879 q 168 945 129 924 q 247 979 207 967 q 320 997 286 992 q 372 1003 354 1003 q 498 985 440 1003 q 596 935 556 967 q 659 858 636 903 q 682 761 682 814 q 622 623 676 682 q 492 536 568 564 q 489 532 489 533 q 492 531 489 531 q 592 495 549 521 q 663 434 635 469 q 706 356 692 399 q 721 268 721 313 q 698 174 721 218 q 635 97 675 131 q 544 40 596 63 q 438 7 493 17 l 439 7 l 421 3 q 488 -131 483 -53 q 488 -139 488 -135 q 463 -201 488 -176 q 364 -236 429 -236 q 226 -179 279 -236 q 223 -175 224 -176 q 222 -172 222 -174 q 226 -169 222 -171 l 257 -142 q 264 -140 261 -140 q 271 -143 268 -140 q 350 -179 299 -179 q 408 -162 397 -179 q 419 -119 419 -146 q 419 -112 419 -115 q 350 0 418 -61 l 344 0 q 278 8 319 1 q 195 26 238 14 q 114 60 153 39 q 53 113 75 81 q 44 129 46 124 q 43 136 43 135 q 51 150 43 144 z "},"ҙ":{"ha":494,"x_min":43,"x_max":494,"o":"m 53 115 l 69 132 q 88 139 82 139 q 90 138 88 139 q 103 128 93 138 q 141 97 119 108 q 183 78 163 85 q 223 68 204 71 q 251 65 242 65 q 314 74 283 65 q 368 99 344 83 q 406 135 392 114 q 421 182 421 157 q 407 240 421 217 q 370 279 393 264 q 319 303 347 294 q 261 314 290 311 q 244 322 250 314 q 238 338 238 331 l 238 347 q 261 375 238 367 q 306 392 283 382 q 348 417 329 403 q 379 451 367 432 q 392 494 392 471 q 356 567 390 539 q 257 594 321 594 q 200 583 233 594 q 135 536 167 572 q 119 526 126 526 q 100 531 111 526 l 83 543 l 85 543 q 74 554 74 549 q 74 557 74 554 q 79 571 75 560 q 81 572 81 571 q 82 578 81 575 q 128 617 101 601 q 181 642 156 633 q 230 656 207 651 q 264 660 253 660 q 347 647 310 660 q 412 613 385 635 q 454 561 439 592 q 469 494 469 531 q 441 411 467 446 q 371 351 415 376 q 464 280 433 328 q 494 181 494 232 q 480 118 494 146 q 442 69 465 90 q 388 33 418 47 q 328 10 358 18 q 390 -119 386 -47 q 390 -128 390 -124 q 365 -190 390 -165 q 267 -225 332 -225 q 129 -168 182 -225 q 126 -164 126 -165 q 125 -161 125 -162 q 129 -158 125 -160 l 160 -131 q 167 -129 164 -129 q 174 -132 171 -129 q 253 -168 201 -168 q 311 -151 300 -168 q 322 -108 322 -135 q 322 -101 322 -104 q 264 0 319 -54 l 254 0 q 190 8 214 3 q 138 21 165 13 q 92 44 117 31 q 56 72 67 57 q 44 90 46 83 q 43 99 43 97 q 53 115 43 108 z "},"Ҡ":{"ha":1108,"x_min":42,"x_max":1094,"o":"m 51 1011 l 344 1011 q 354 1006 354 1011 l 354 503 l 814 946 q 758 958 786 953 q 701 968 731 964 q 694 975 694 968 l 694 1006 q 704 1011 694 1011 l 1051 1011 q 1061 1006 1061 1011 l 1061 975 q 1053 968 1061 968 l 897 942 l 567 628 l 954 67 l 1086 42 q 1094 36 1094 42 l 1094 6 q 1085 0 1094 0 l 749 0 q 740 6 740 0 l 740 36 q 747 42 740 42 l 863 65 l 688 321 q 514 576 600 449 l 354 425 l 354 65 l 481 42 q 489 36 489 42 l 489 6 q 479 0 489 0 l 149 0 q 139 6 139 0 l 139 36 q 146 42 139 42 l 274 65 l 274 946 l 49 946 q 42 953 42 946 l 42 1006 q 51 1011 42 1011 z "},"ҡ":{"ha":796,"x_min":-6,"x_max":810,"o":"m 1 658 l 243 658 q 254 651 254 658 l 254 315 l 544 594 q 498 606 521 601 q 451 617 475 611 q 443 622 443 617 l 443 653 q 453 658 443 658 l 753 658 q 761 653 761 658 l 761 622 q 754 617 761 617 l 626 593 l 433 408 l 678 65 l 803 40 q 810 35 810 40 l 810 6 q 801 0 810 0 l 489 0 q 481 6 481 0 l 481 35 q 488 40 481 40 l 583 64 l 378 356 l 254 236 l 254 64 l 365 40 q 372 35 372 40 l 372 6 q 364 0 372 0 l 64 0 q 54 6 54 0 l 54 35 q 63 40 54 40 l 174 64 l 174 593 l 3 593 q -6 599 -6 593 l -6 651 q 1 658 -6 658 z "},"Ң":{"ha":1275,"x_min":42,"x_max":1261,"o":"m 51 1011 l 383 1011 q 392 1006 392 1011 l 392 975 q 385 968 392 968 l 257 944 l 257 557 l 911 557 l 911 946 l 785 968 q 776 975 776 968 l 776 1006 q 786 1011 776 1011 l 1117 1011 q 1126 1006 1126 1011 l 1126 975 q 1118 968 1126 968 l 992 944 l 992 65 l 1118 65 q 1126 60 1126 65 l 1126 -196 l 1253 -219 q 1261 -225 1261 -219 l 1261 -256 q 1251 -261 1261 -261 l 921 -261 q 911 -256 911 -261 l 911 -225 q 919 -219 911 -219 l 1046 -196 l 1046 0 l 786 0 q 776 6 776 0 l 776 36 q 785 42 776 42 l 911 65 l 911 500 l 257 500 l 257 65 l 385 42 q 392 36 392 42 l 392 6 q 383 0 392 0 l 51 0 q 42 6 42 0 l 42 36 q 50 42 42 42 l 176 65 l 176 946 l 50 968 q 42 975 42 968 l 42 1006 q 51 1011 42 1011 z "},"ң":{"ha":942,"x_min":42,"x_max":928,"o":"m 42 36 q 50 42 42 42 l 163 65 l 163 599 l 50 621 q 42 628 42 621 l 42 658 q 51 664 42 664 l 356 664 q 364 658 364 664 l 364 628 q 357 621 364 621 l 243 597 l 243 376 l 606 376 l 606 599 l 493 621 q 485 628 485 621 l 485 658 q 494 664 485 664 l 797 664 q 807 658 807 664 l 807 628 q 799 621 807 621 l 686 597 l 686 65 l 799 65 q 807 60 807 65 l 807 -196 l 919 -219 q 928 -225 928 -219 l 928 -256 q 918 -261 928 -261 l 615 -261 q 606 -256 606 -261 l 606 -225 q 614 -219 606 -219 l 726 -196 l 726 0 l 494 0 q 485 6 485 0 l 485 36 q 493 42 485 42 l 606 65 l 606 319 l 243 319 l 243 65 l 357 42 q 364 36 364 42 l 364 6 q 356 0 364 0 l 51 0 q 42 6 42 0 l 42 36 z "},"Ҫ":{"ha":1042,"x_min":89,"x_max":993,"o":"m 129 729 q 235 894 169 828 q 385 995 300 961 q 560 1029 469 1029 q 726 1013 644 1029 q 868 974 808 997 q 874 968 874 974 l 921 811 q 921 810 921 810 q 914 804 921 807 l 882 792 q 878 790 879 790 q 872 794 874 790 q 856 825 865 808 q 837 858 847 842 q 815 890 826 875 q 789 915 803 906 q 685 960 749 947 q 561 974 621 974 q 508 969 543 974 q 428 948 472 964 q 339 901 385 932 q 256 817 293 869 q 195 685 219 764 q 171 497 171 607 q 203 304 171 389 q 289 161 235 219 q 413 72 343 103 q 561 42 483 42 q 647 53 607 42 q 723 83 688 64 q 788 124 758 101 q 840 172 817 147 q 935 304 896 229 q 940 307 938 307 q 946 306 943 307 l 989 278 q 993 274 993 276 q 992 271 993 272 q 803 54 908 126 q 619 -15 719 -3 q 563 -18 592 -18 q 550 -18 556 -18 q 414 6 488 -15 q 260 85 332 28 q 138 243 188 143 q 89 497 89 343 q 129 729 89 629 m 407 -169 l 438 -142 q 444 -140 442 -140 q 451 -143 449 -140 q 531 -179 479 -179 q 589 -162 578 -179 q 600 -119 600 -146 q 600 -112 600 -115 q 550 -18 597 -67 q 521 8 536 -6 q 518 13 518 10 q 519 17 518 14 q 528 19 521 19 l 582 19 q 619 -15 603 3 q 668 -131 665 -65 q 668 -139 668 -135 q 643 -201 668 -176 q 544 -236 610 -236 q 407 -179 460 -236 q 403 -175 404 -176 q 403 -172 403 -174 q 407 -169 403 -171 z "},"ҫ":{"ha":701,"x_min":22,"x_max":660,"o":"m 51 481 q 127 588 79 544 q 234 651 175 631 q 354 672 293 672 q 363 672 358 672 q 549 621 469 672 q 608 573 586 597 q 635 528 631 549 q 636 519 636 524 q 631 502 636 511 q 617 490 625 493 q 611 489 614 489 q 589 496 601 489 q 561 524 576 503 q 467 589 518 564 q 363 614 415 614 q 242 589 293 614 q 159 524 192 564 q 110 433 126 485 q 94 331 94 382 q 113 219 94 272 q 167 127 132 167 q 253 64 203 88 q 364 40 303 40 q 372 40 368 40 q 429 48 399 40 q 492 74 460 56 q 553 117 524 92 q 607 175 582 143 q 614 179 610 179 q 621 176 617 179 l 657 151 q 660 149 660 150 q 658 143 660 146 q 521 22 596 61 q 411 -15 467 -7 q 365 -18 389 -18 q 340 -17 353 -18 q 224 10 278 -14 q 115 83 160 36 q 47 194 71 131 q 22 328 22 257 q 51 481 22 415 m 199 -169 l 229 -142 q 236 -140 233 -140 q 243 -143 240 -140 q 322 -179 271 -179 q 381 -162 369 -179 q 392 -119 392 -146 q 392 -112 392 -115 q 340 -17 389 -67 q 313 8 328 -4 q 310 13 310 10 q 311 17 310 14 q 319 19 313 19 l 374 19 q 411 -15 394 3 q 460 -131 457 -65 q 460 -139 460 -135 q 435 -201 460 -176 q 336 -236 401 -236 q 199 -179 251 -236 q 195 -175 196 -176 q 194 -172 194 -174 q 199 -169 194 -171 z "},"Ү":{"ha":1007,"x_min":18,"x_max":1000,"o":"m 28 1011 l 381 1011 q 389 1006 389 1011 l 389 975 q 382 968 389 968 l 246 944 l 533 504 q 674 725 604 615 q 815 944 744 835 q 764 957 790 950 q 713 968 738 964 q 704 975 704 968 l 704 1006 q 714 1011 704 1011 l 992 1011 q 1000 1006 1000 1011 l 1000 975 q 993 968 1000 968 l 886 943 l 561 449 l 561 65 l 688 42 q 696 36 696 42 l 696 6 q 686 0 696 0 l 354 0 q 346 6 346 0 l 346 36 q 353 42 346 42 l 481 65 l 481 457 l 157 943 l 26 968 q 18 975 18 968 l 18 1006 q 28 1011 18 1011 z "},"ү":{"ha":926,"x_min":42,"x_max":885,"o":"m 42 651 q 51 657 42 657 l 404 657 q 413 651 413 657 l 413 621 q 406 614 413 614 l 269 590 l 483 156 l 700 590 q 649 603 675 596 q 597 614 622 610 q 589 621 589 614 l 589 651 q 599 657 589 657 l 876 657 q 885 651 885 657 l 885 621 q 878 614 885 614 l 771 589 l 515 96 l 515 -150 l 642 -174 q 650 -179 650 -174 l 650 -210 q 640 -215 650 -215 l 308 -215 q 300 -210 300 -215 l 300 -179 q 307 -174 300 -174 l 435 -150 l 435 110 l 181 589 l 50 614 q 42 621 42 614 l 42 651 z "},"Һ":{"ha":932,"x_min":42,"x_max":890,"o":"m 42 6 l 42 35 q 50 40 42 40 l 160 64 l 160 961 l 58 961 q 51 967 51 961 l 51 997 q 57 1004 51 1004 l 229 1022 q 240 1015 240 1022 l 240 560 q 295 599 264 579 q 363 635 326 619 q 438 662 399 651 q 519 672 478 672 q 622 655 575 672 q 701 608 668 638 q 753 542 735 579 q 771 463 771 504 l 771 64 l 883 40 q 890 35 890 40 l 890 6 q 882 0 890 0 l 582 0 q 572 6 572 0 l 572 35 q 581 40 572 40 l 690 64 l 690 443 q 683 501 690 471 q 655 556 675 531 q 602 597 635 581 q 519 614 569 614 q 385 584 457 614 q 240 490 313 554 l 240 64 l 350 40 q 358 35 358 40 l 358 6 q 349 0 358 0 l 51 0 q 42 6 42 0 z "},"һ":{"ha":821,"x_min":42,"x_max":779,"o":"m 42 6 l 42 35 q 50 40 42 40 l 146 64 l 146 604 l 58 604 q 51 610 51 604 l 51 640 q 57 647 51 647 l 215 665 q 226 658 226 665 l 226 414 q 274 453 247 433 q 330 488 300 472 q 394 514 360 504 q 464 524 428 524 q 557 506 518 524 q 622 460 596 489 q 661 393 649 431 q 674 314 674 356 l 674 64 l 772 40 q 779 35 779 40 l 779 6 q 771 0 779 0 l 499 0 q 489 6 489 0 l 489 35 q 497 40 489 40 l 593 64 l 593 294 q 588 352 593 322 q 569 407 583 382 q 530 449 556 432 q 464 465 504 465 q 349 435 403 465 q 226 342 294 406 l 226 64 l 322 40 q 331 35 331 40 l 331 6 q 321 0 331 0 l 51 0 q 42 6 42 0 z "},"Ә":{"ha":1015,"x_min":42,"x_max":974,"o":"m 43 750 q 124 867 76 815 q 231 954 172 918 q 356 1010 289 990 q 494 1029 424 1029 q 685 991 597 1029 q 838 884 774 953 q 938 719 901 815 q 974 507 974 622 q 940 303 974 399 q 844 135 906 207 q 697 23 782 64 q 508 -18 611 -18 q 340 17 422 -18 q 194 113 258 53 q 92 250 131 172 q 53 413 53 328 l 53 438 q 65 442 53 442 l 846 442 q 885 448 872 442 q 897 472 897 454 l 897 496 q 867 686 897 599 q 785 838 838 774 q 658 938 732 901 q 494 974 583 974 q 392 958 449 974 q 283 910 336 942 q 185 831 229 879 q 119 719 142 783 q 114 714 118 714 q 110 715 111 714 l 47 739 q 42 744 42 740 q 43 750 42 747 m 144 322 q 209 195 169 249 q 297 108 249 142 q 400 58 346 74 q 510 42 454 42 q 631 63 572 42 q 740 124 690 85 q 825 222 789 164 q 881 353 861 279 q 878 374 881 368 q 853 379 876 379 l 164 379 q 137 370 138 379 q 136 360 136 361 q 144 322 136 344 z "},"ә":{"ha":732,"x_min":43,"x_max":690,"o":"m 44 511 q 174 627 93 582 q 356 672 256 672 q 496 644 433 672 q 601 569 558 617 q 667 456 644 521 q 690 318 690 392 q 676 215 690 272 q 625 105 663 157 q 522 17 588 53 q 354 -18 457 -18 q 220 8 278 -18 q 124 78 163 35 q 67 178 86 122 q 47 294 47 235 l 47 328 q 57 333 47 333 l 611 333 q 592 442 608 392 q 545 531 576 493 q 467 592 514 569 q 354 614 419 614 q 269 601 310 614 q 196 569 229 589 q 138 526 163 550 q 96 479 113 501 q 89 475 93 475 q 82 478 86 475 l 46 503 q 43 506 43 504 q 44 511 43 508 m 147 188 q 190 112 163 144 q 260 60 218 79 q 354 40 301 40 q 469 60 422 40 q 545 111 515 79 q 590 186 575 143 q 610 278 606 229 l 131 278 q 147 188 132 231 z "},"Ө":{"ha":1035,"x_min":42,"x_max":993,"o":"m 76 717 q 174 882 111 813 q 325 990 238 951 q 517 1029 413 1029 q 707 990 619 1029 q 858 882 794 951 q 957 717 921 813 q 993 508 993 621 q 958 299 993 396 q 860 132 924 203 q 710 22 797 61 q 517 -18 622 -18 q 327 21 414 -18 q 177 129 240 60 q 78 296 114 199 q 42 508 42 393 q 76 717 42 621 m 121 525 l 911 525 q 882 688 908 610 q 802 835 854 772 q 678 936 750 899 q 517 974 606 974 q 356 936 429 974 q 231 835 283 899 q 150 688 179 772 q 121 525 124 610 m 149 328 q 228 179 176 243 q 352 78 279 115 q 517 42 425 42 q 681 78 608 42 q 805 179 754 115 q 883 328 856 243 q 910 467 904 393 l 122 467 q 149 328 126 393 z "},"ө":{"ha":742,"x_min":42,"x_max":700,"o":"m 67 464 q 136 573 92 526 q 241 646 181 619 q 371 672 301 672 q 501 646 440 672 q 606 573 561 619 q 675 463 650 526 q 700 326 700 400 q 675 190 700 253 q 606 81 650 128 q 501 8 561 35 q 371 -18 440 -18 q 241 8 301 -18 q 136 81 181 35 q 67 190 92 128 q 42 326 42 253 q 67 464 42 400 m 618 354 q 600 438 614 397 q 547 529 581 490 q 467 591 513 568 q 371 614 422 614 q 274 591 319 614 q 195 529 229 568 q 142 438 161 490 q 122 354 126 397 l 618 354 m 142 215 q 195 123 161 163 q 274 60 229 83 q 371 38 319 38 q 467 60 422 38 q 547 123 513 83 q 600 215 581 163 q 618 296 614 254 l 124 296 q 142 215 126 254 z "},"℉":{"ha":1304,"x_min":49,"x_max":1294,"o":"m 107 1046 q 244 1103 164 1103 q 381 1046 328 1103 q 438 913 438 992 q 381 776 438 833 q 244 721 325 721 q 107 778 160 721 q 49 913 49 835 q 107 1046 49 992 m 133 868 q 158 826 142 844 q 194 799 174 808 q 238 790 215 790 q 244 790 242 790 q 330 826 296 790 q 364 913 364 861 q 364 918 364 915 q 354 963 364 942 q 327 1000 344 985 q 287 1024 310 1015 q 240 1033 264 1033 q 196 1026 218 1033 q 157 999 174 1018 q 132 960 140 982 q 124 915 124 939 q 133 868 124 890 m 482 36 q 488 42 482 42 l 613 65 l 613 946 l 488 968 q 482 975 482 968 l 482 1006 q 489 1011 482 1011 l 1260 1011 q 1268 1007 1268 1011 l 1294 796 q 1288 789 1294 792 l 1254 775 q 1250 774 1251 774 q 1243 779 1244 774 l 1178 954 l 694 954 l 694 558 l 1051 558 l 1075 694 q 1083 699 1075 699 l 1122 699 q 1131 693 1131 699 l 1131 365 q 1122 358 1131 358 l 1083 358 q 1075 363 1075 358 l 1051 501 l 694 501 l 694 65 l 822 42 q 828 36 828 42 l 828 6 q 821 0 828 0 l 489 0 q 482 6 482 0 l 482 36 z "},"℃":{"ha":1340,"x_min":32,"x_max":1292,"o":"m 90 1046 q 228 1103 147 1103 q 364 1046 311 1103 q 421 913 421 992 q 364 776 421 833 q 228 721 308 721 q 90 778 143 721 q 32 913 32 835 q 90 1046 32 992 m 117 868 q 141 826 125 844 q 178 799 157 808 q 221 790 199 790 q 228 790 225 790 q 313 826 279 790 q 347 913 347 861 q 347 918 347 915 q 338 963 347 942 q 310 1000 328 985 q 270 1024 293 1015 q 224 1033 247 1033 q 179 1026 201 1033 q 140 999 157 1018 q 115 960 124 982 q 107 915 107 939 q 117 868 107 890 m 388 497 q 428 728 388 629 q 533 894 468 828 q 683 995 599 961 q 858 1029 768 1029 q 1025 1013 943 1029 q 1167 974 1107 997 q 1172 968 1172 974 l 1219 811 q 1219 810 1219 810 q 1213 804 1219 807 l 1181 792 q 1176 790 1178 790 q 1171 794 1172 790 q 1155 825 1164 808 q 1135 858 1146 842 q 1113 890 1125 875 q 1088 915 1101 906 q 983 960 1047 947 q 860 974 919 974 q 806 969 842 974 q 727 948 771 964 q 638 901 683 932 q 555 817 592 869 q 494 685 518 764 q 469 497 469 607 q 501 304 469 389 q 588 161 533 219 q 712 72 642 103 q 860 42 782 42 q 946 53 906 42 q 1022 83 986 64 q 1086 124 1057 101 q 1139 172 1115 147 q 1233 304 1194 229 q 1239 307 1236 307 q 1244 306 1242 307 l 1288 278 q 1292 274 1292 276 q 1290 271 1292 272 q 1101 54 1207 126 q 861 -18 996 -18 q 713 5 794 -18 q 558 85 631 28 q 437 243 486 143 q 388 497 388 343 z "}}}
